<?xml version="1.0" encoding="UTF-8"?>
<svg viewBox="0 0 768.33331 668.12408" xmlns="http://www.w3.org/2000/svg">
 <g transform="translate(2.2222 -330.21)" fill="#fff" stroke="#000">
  <path d="m140.83 803.67s-96.981-5.233-120.57 36.631 49.801-5.233 68.149 31.398 34.074 36.631 52.422 23.549 60.286-26.165 62.907 2.6165 136.3-68.029 115.33-91.578-60.286-34.014-60.286-34.014z" stroke-width="7.2712"/>
  <path d="m140.83 803.67s-96.981-5.233-120.57 36.631 49.801-5.233 68.149 31.398 34.074 36.631 52.422 23.549 60.286-26.165 62.907 2.6165 136.3-68.029 115.33-91.578-60.286-34.014-60.286-34.014z" stroke-width="7.2712"/>
  <path d="m275.22 821.18s-4.136-14.369-13.102-36.548-22.763-52.168-42.084-83.407-44.167-63.73-75.232-90.913-68.348-49.057-112.54-59.065c-8.1323 0.92197-17.123 60.63-17.818 69.751 0 0-27.645 202.98 257.32 202.89z" stroke-width="7.2712"/>
  <path d="m59.579 628.36s26.211 141.29 159.89 167.46" stroke-linecap="round" stroke-width="7.2712"/>
  <path d="m77.926 858.61s36.696-26.165 86.497-28.782" stroke-linecap="round" stroke-width="7.2712"/>
  <path d="m192.67 881.44s19.402-22.475 45.734-24.722" stroke-linecap="round" stroke-width="7.2712"/>
  <path d="m623.06 803.67s96.981-5.233 120.57 36.631-49.801-5.233-68.149 31.398-34.074 36.631-52.422 23.549-60.286-26.165-62.907 2.6165-136.3-68.029-115.33-91.578 60.286-34.014 60.286-34.014z" stroke-width="7.2712"/>
  <path d="m623.06 803.67s96.981-5.233 120.57 36.631-49.801-5.233-68.149 31.398-34.074 36.631-52.422 23.549-60.286-26.165-62.907 2.6165-136.3-68.029-115.33-91.578 60.286-34.014 60.286-34.014z" stroke-width="7.2712"/>
  <path d="m488.66 821.18s4.136-14.369 13.102-36.548 22.763-52.168 42.084-83.407 44.167-63.73 75.232-90.913 68.348-49.057 112.54-59.065c8.1323 0.92197 17.123 60.63 17.818 69.751 0 0 27.645 202.98-257.32 202.89z" stroke-width="7.2712"/>
  <path d="m704.31 628.36s-26.211 141.29-159.89 167.46" stroke-linecap="round" stroke-width="7.2712"/>
  <path d="m685.96 858.61s-36.696-26.165-86.497-28.782" stroke-linecap="round" stroke-width="7.2712"/>
  <path d="m579.08 882.75s-19.402-22.475-45.734-24.722" stroke-linecap="round" stroke-width="7.2712"/>
  <path d="m625.74 606.12c0.56663 111.93-141.84 202.78-235.9 202.78-92.599 0-246.38-98.694-246.38-210.63s153.79-194.93 246.38-194.93 235.9 90.845 235.9 202.78z" stroke-width="7.2712"/>
  <path d="m261.35 564.47c-0.63722-7.0517 128.99 179.14 258.72-1.745" stroke-linecap="round" stroke-width="7.2712"/>
  <path transform="matrix(.91739 0 0 .91578 404.25 -48.075)" d="m-30 638.79a12.143 6.4286 0 1 1 -24.286 0 12.143 6.4286 0 1 1 24.286 0z" stroke-width="7.933"/>
  <path transform="matrix(.91739 0 0 .91578 457.99 -46.767)" d="m-30 638.79a12.143 6.4286 0 1 1 -24.286 0 12.143 6.4286 0 1 1 24.286 0z" stroke-width="7.933"/>
  <path d="m272.28 863.32c4.0432 20.893-35.234 30.109-43.984 38.652s-13.573 19.964-5.6159 30.421c30.603 40.22 33.741-14.219 47.015-26.718 17.1-16.101 25.329 4.094 18.992 14.878 0 0-42.379 43.551-8.291 54.742s35.102-74.696 35.102-74.696c3.5469-5.2838 15.85-13.859 16.41 0.62407 0.65933 17.081-9.5885 49.678 15.819 53.779 12.965 2.0922 28.898-14.272 26.414-25.356s-13.882-25.374-25.974-35.844c-10.127-8.7681-9.4985-8.4756-14.131-22.678" stroke-width="7.2712"/>
  <path d="m238.41 710.71c-2.9982 3.2889-2.9252-1.701 0.41178 4.0799 10.109 26.676 11.939 22.789 18.584 52.031 0.55732 45.323 8.3531 81.112 8.3531 81.112l6.3512 17.963s32.299 52.403 58.205 39.754 3.384-47.124 1.2383-96.807c-0.62766-14.533 5.1434-41.753 6.9218-65.519 0.88916-11.883-3.0601-15.278-6.4018-23.791" stroke-width="7.2712"/>
  <path d="m271.87 873.82c-15.444 5.9044-37.59 17.149-47.037 26.498s-13.658 20.488-5.0677 31.931c33.041 44.012 37.197-8.2726 51.528-21.949 18.462-17.619 19.886 0.5219 13.044 12.322 0 0-42.898 41.074-6.0955 53.32s38.144-72.153 38.144-72.153c3.8294-5.7819 13.782-8.3023 14.385 7.546 0.71185 18.691-12.777 42.954 14.655 47.441 13.998 2.2895 34.457-16.523 31.776-28.653s-14.988-24.093-28.043-35.55c-10.934-9.5946-6.8386-9.2166-11.84-24.758" stroke-linecap="round" stroke-width="7.2712"/>
  <path transform="matrix(.91739 0 0 .91578 253.54 -92.032)" d="m274.29 526.65a60 60 0 1 1 -120 0 60 60 0 1 1 120 0z" stroke-width="7.933"/>
  <path transform="matrix(.91739 0 0 .91578 456.68 -4.641)" d="m11.429 458.08a25.714 25.714 0 1 1 -51.429 0 25.714 25.714 0 1 1 51.429 0z" stroke-width="7.933"/>
  <path transform="matrix(.91739 0 0 .91578 140.83 -94.649)" d="m274.29 526.65a60 60 0 1 1 -120 0 60 60 0 1 1 120 0z" stroke-width="7.933"/>
  <path transform="matrix(.91739 0 0 .91578 350.52 -8.304)" d="m11.429 458.08a25.714 25.714 0 1 1 -51.429 0 25.714 25.714 0 1 1 51.429 0z" stroke-width="7.933"/>
  <path d="m493.36 863.32c-4.0432 20.893 35.234 30.109 43.984 38.652s13.573 19.964 5.6159 30.421c-30.603 40.22-33.741-14.219-47.015-26.718-17.1-16.101-25.329 4.094-18.992 14.878 0 0 42.379 43.551 8.291 54.742s-35.102-74.696-35.102-74.696c-3.5469-5.2838-15.85-13.859-16.409 0.62407-0.65933 17.081 9.5885 49.678-15.819 53.779-12.965 2.0922-28.898-14.272-26.414-25.356s13.882-25.374 25.974-35.844c10.127-8.7681 9.4985-8.4756 14.131-22.678" stroke-width="7.2712"/>
  <path d="m527.24 710.71c2.9982 3.2889 2.9252-1.701-0.41178 4.0799-10.109 26.676-11.939 22.789-18.584 52.031-0.55733 45.323-8.3531 81.112-8.3531 81.112l-6.3512 17.963s-32.299 52.403-58.205 39.754-3.384-47.124-1.2383-96.807c0.62767-14.533-5.1434-41.753-6.9217-65.519-0.88917-11.883 3.0601-15.278 6.4018-23.791" stroke-width="7.2712"/>
  <path d="m493.78 873.82c15.444 5.9044 37.59 17.149 47.037 26.498s13.658 20.488 5.0677 31.931c-33.041 44.012-37.197-8.2726-51.528-21.949-18.462-17.619-19.886 0.5219-13.044 12.322 0 0 42.898 41.074 6.0955 53.32s-38.144-72.153-38.144-72.153c-3.8294-5.7819-13.782-8.3023-14.385 7.546-0.71184 18.691 12.777 42.954-14.655 47.441-13.998 2.2895-34.457-16.523-31.776-28.653s14.988-24.093 28.043-35.55c10.934-9.5946 6.8386-9.2166 11.84-24.758" stroke-linecap="round" stroke-width="7.2712"/>
 </g>
</svg>
