<?xml version="1.0" encoding="UTF-8"?>
<!DOCTYPE svg  PUBLIC '-//W3C//DTD SVG 1.1//EN'  'http://www.w3.org/Graphics/SVG/1.1/DTD/svg11.dtd'>
<svg enable-background="new 0 0 1840 1619.7443" version="1.1" viewBox="0 0 1840 1619.7443" xml:space="preserve" xmlns="http://www.w3.org/2000/svg">
	<path d="m355.09 917.11c-26.36-3.9943-52.85-7.1313-79.285-10.639-6.9265-0.9191-14.962-5.9771-15.524 7.6788-0.4358 10.595-1.9999 18.847 13.37 19.21 22.575 0.5328 45.097 3.3276 67.643 5.146 3.4702 0.2828 7.0588 0.0945 10.39 0.9321 12.645 3.1807 15.047-5.7037 16.459-14.453 1.8915-11.725-8.2764-7.1511-13.052-7.8746z" fill="none"/>
	<path d="m846.41 633.86c-54.652-13.483-110.07-19.406-177.13-19.163-14.64 0.7152-40.132 2.7836-65.63 2.8863-14.462 0.0583-16.271 5.8431-13.995 18.167 5.88 31.847 10.641 63.899 16.346 95.78 2.1284 11.894-0.8943 16.345-13.828 15.601-29.735-1.7115-59.509-2.9084-88.55-9.9811-14.437-3.516-22.013 0.189-22.05 15.813-0.011 4.6285 0.0537 9.4387-1.111 13.85-4.1202 15.608 3.8374 19.674 17.571 21.582 42.308 5.88 83.8 15.892 125.44 25.357 38.81 8.8202 69.722 28.174 95.265 57.983 28.064 32.75 36.091 68.7 17.281 108.24-4.3262 9.0947-3.3558 10.337 5.3813 11.611 20.859 3.04 41.888 5.5794 62.353 10.414 13.635 3.2209 16.78-1.1447 18.008-13.68 11.118-113.47 22.678-226.9 34.324-340.31 0.8382-8.1618-0.5075-11.882-9.6825-14.145z" fill="none"/>
	<path d="m454.12 733.29c-5.3154-0.5259-4.7373 3.6467-4.9839 6.9141-0.777 10.293-1.4725 20.591-2.4921 35.031-0.0463-0.5385-2.5255 4.7476 3.6511 5.2994 6.2092 0.5547 5.0422-4.9855 5.406-8.6158 1.03-10.279 1.7857-20.586 2.6027-30.885 0.2734-3.4488 0.7464-7.2555-4.1838-7.7434z" fill="none"/>
	<path d="m1164.9 323.06c-7.9775 5.1929-15.955 10.386-26.422 17.199 30.162 3.9906 31.849 2.7016 26.422-17.199z" fill="none"/>
	<path d="m1111.6 548.03c35.664-6.9437 35.662-6.9467 39.892-43.167 0.2021-1.7297 0.3762-3.47 0.7146-5.1753 1.6722-8.4298-1.5664-11.65-10.216-10.831-14.434 1.3666-28.921 2.2441-43.403 3.0156-4.7177 0.2513-9.6918-0.4435-10.545-6.5593-0.803-5.7551 1.1348-8.7111 7.4373-11.291 16.625-6.8053 27.014-20.107 30.01-37.832 5.6444-33.396-6.3007-62.589-23.56-90.149-1.391-2.2208-4.2573-4.1243-6.8239-4.9027-15.105-4.5813-29.189-11.381-42.518-19.641-6.9059-4.2799-10.913-2.6256-12.482 4.6782-2.9718 13.83-12.58 15.923-24.726 16.174-31.404 0.6481-62.764-0.1488-93.91-3.8035-15.878-1.8632-12.328 9.6515-14.416 17.477-2.4014 9.0035 0.3658 13.094 10.709 14.661 21.738 3.2928 43.161 8.6602 64.724 13.127 7.8157 1.6189 13.48 5.795 17.771 12.668 30.299 48.53 51.024 100.94 58.591 157.53 8.1188 60.726-26.88 113.63-84.94 133.78-6.6351 2.3027-11.328 2.3089-15.975-4.2986-15.66-22.268-40.867-27.663-64.777-34.887-7.6918-2.3239-10.066 2.3084-12.048 9.8477-4.6865 17.826-4.797 36.122-6.921 54.122-4.8162 40.816-7.2954 81.902-11.224 122.83-5.1429 53.578-10.538 107.14-16.375 160.64-1.1946 10.948 3.3306 14.02 13.013 15.453 23.376 3.4614 46.692 7.4256 69.905 11.856 44.178 8.4312 47.482 5.8077 56.825-39.327 11.352-54.839-11.696-98.758-59.475-119.2-6.126-2.6207-14.192-0.7036-20.307-10.308 12.109 2.2711 21.678-2.7263 32.057-3.2498 56.241-2.837 112.44-7.1486 168.79-6.2732 13.133 0.2041 13.145-7.6838 14.428-16.524 1.5482-10.67-4.21-12.068-12.983-12.68-38.318-2.6718-76.593-5.9598-115.25-9.054 0.9653-6.5475 6.1948-10.486 11.168-11.656 16.318-3.8372 27.482-14.89 38.142-26.138 39.544-41.727 63.925-92.016 77.372-147.2 5.4119-22.21 7.2588-45.783-15.804-63.355-9.1765-6.9913 1.0815-9.1827 7.1408-10.362z" fill="none"/>
	<path d="m817.14 508.91c14.009 1.8677 30.669-2.7854 32.47-16.294 1.0339-7.7549-20.43-16.727-23.932-17.194-9.2559-1.2341-13.792 2.2349-14.893 10.49-1.8678 14.009 0.3504 22.197 6.3542 22.998z"/>
	<polygon points="846.63 532.19 853.38 529.27 859.13 533.86 864.64 530.77 856.05 509.26 842.12 527.77"/>
	<path d="m893.69 519.11c6.0039 0.8004 10.29-6.5209 12.158-20.53 1.1006-8.2552-2.3682-12.791-11.624-14.025-3.5022-0.467-26.567 2.5685-27.601 10.323v1e-4c-1.8011 13.508 13.058 22.364 27.067 24.232z"/>
	<path d="m1819.7 844.65c-6.1375-8.4548-10.671-10.498-18.993-2.9891-5.8108 5.2429-11.705 10.872-21.091 10.608-27.546-0.7748-51.582-8.0967-67.174-32.91-6.5208-10.377-15.567-17.157-27.645-19.432-24.752-4.6622-64.73 18.988-73.875 44.061 14.316-2.822 28.316-7.851 41.597 3.0563 20.667 16.973 42.549 32.318 66.672 44.1 8.301 4.0544 6.7563 7.4349 0.5515 11.964-11.253 8.2133-22.534 16.424-33.323 25.225-6.4197 5.2371-9.5406 4.1652-14.98-2.1948-29.718-34.748-54.749-74-95.852-97.963-9.4962-5.5361-12.358-6.921-19.858 3.0751-55.784 74.352-119.34 140.77-200.08 188.78-7.0249 4.1775-14.519 7.5662-23.108 11.999 10.241-59.409 8.281-96.09-5.3518-145.38-3.9608-14.32-10.814-20.974-25.836-25.398-44.64-13.145-90.342-11.973-135.84-14.651-8.0604-0.4745-17.591 1.9105-16.599-13.022 0.9014-13.562 7.1327-14.386 17.816-13.464 46.274 3.9968 92.647 6.944 138.85 11.588 12.263 1.2325 17.508-2.7314 22.442-13.042 16.049-33.541 30.467-67.687 40.027-103.64 8.3734-31.489 14.725-63.379 8.5686-96.224-5.3536-28.561-17.232-49.76-49.258-57.611-45.219-11.085-90.416-19.717-137.06-20.195-5.1758-0.053-12.946 4.0963-13.836-7.3868-3.4247-44.167 3.6414-51.658 47.21-48.332 7.0649 0.5393 13.906 1.8263 20.11 5.0854 13.401 7.0398 20.622 0.8906 25.565-11.166 12.399-30.246 12.035-61.003 4.0247-92.148-4.9283-19.162-15.63-31.822-36.326-34.69-10.31-1.4283-20.351-5.2874-30.664-6.0702-10.378-0.788-12.428-5.3916-11.466-14.568 2.6023-24.827 4.9053-49.694 6.7358-74.588 0.3918-5.3309 4.6187-14.414-6.2813-14.407-7.1487 0.0042-15.752-4.0686-20.406 7.4402-8.0592 19.926-47.067 33.31-63.933 21.081-7.9835-5.7886-16.77-10.427-24.65-10.327-29.878 0.3794-32.311-19.063-32.923-40.964-0.0486-1.7329-0.2031-3.4625-0.2849-5.1948-0.6832-14.464-6.6506-24.896-21.582-28.701-29.245-7.4536-58.656-14.411-88.608-17.964-14.334-1.6998-18.079-7.1873-16.535-21.144 4.469-40.386 7.6115-80.919 11.374-121.39 0.5916-6.363 0.5179-11.272-8.0697-11.864-7.7172-0.5327-10.575 2.308-10.462 9.6953 0.0919 6.0063-1.3431 10.788-7.9476 13.845-25.438 11.773-50.661 22.543-80.015 19.326-26.996-2.9583-53.394 1.1459-77.591 14.417-11.512 6.3141-21.581 14.332-24.999 32.127 19.123-13.933 36.069-12.972 53.682-5.1842 41.125 18.184 82.767 21.271 124.9 3.1472 0.5948-0.256 1.8168 0.9459 3.5946 1.9437-1.5637 15.141-3.8098 30.642-4.542 46.213-0.4762 10.126-3.8905 12.916-13.809 11.006-13.758-2.6493-27.778-3.9369-43.708-6.0793 27.699 59.973 50.007 117.09-9.5358 169.57 2.7704 1.3765 4.5911 2.8271 6.6075 3.1904 9.667 1.7405 19.373 3.2798 29.093 4.7018 5.6433 0.8257 11.928 0.0182 13.165 8.1825 2.4135 15.922-5.9213 24.874-22.096 23.32-4.6206-0.4438-9.2122-1.1831-13.829-1.6781-53.683-5.756-107.32-12.539-161.5-9.3151-6.421 0.3821-13.825-0.5601-18.502 6.6976 31.607 29.323 34.584 61.794 17.684 99.929-15.276 34.472-40.526 60.302-65.477 86.73-12.864 13.626-24.374 29.061-42.679 39.583 1.7271-16.726-5.2181-19.538-19.281-17.691-15.994 2.1008-32.46 0.3806-48.703 0.8984-11.208 0.3575-15.063-3.1404-13.678-15.28 4.4557-39.049 7.3844-78.27 11.38-117.38 1.0453-10.231 0.086-16.011-12.585-16.813-12.467-0.7893-14.497 4.5835-15.131 14.913-0.5766 9.4053 3.5292 21.525-6.376 27.437-18.191 10.857-37.38 18.26-59.355 8.7335-33.231-14.406-78.692-2.7697-101.08 25.184-3.7868 4.7285-8.6927 9.4237-6.436 18.519 20.685-14.71 40.373-6.3714 61.021-0.0438 13.163 4.0337 24.009 12.931 39.592 12.91 22.016-0.0288 43.272-2.762 64.602-8.1406 1.9944 11.213-2.3259 20.927-1.5771 30.565 1.2927 16.638-7.1179 16.71-20.04 15.69-19.02-1.5015-37.037-9.0315-55.917-9.1758-17.605-0.1345-34.533-3.1721-51.709-5.9617-10.986-1.7842-21.026-8.843-34.284-6.6561 2.4425 4.0558 4.1651 6.9762 5.9446 9.8617 16.162 26.206 30.803 53.061 36.947 83.713 1.6688 8.3259 2.0847 13.364-9.6505 10.543-16.89-4.059-34.187-6.4928-51.375-9.2128-9.9119-1.5686-14.518-4.7273-13.403-16.749 3.7009-39.88 5.6918-79.917 8.4327-119.89 0.5878-8.5714 1.3159-15.399-11.35-16.243-12.225-0.814-14.225 4.4539-15.463 14.451-3.1083 25.112-19.142 37.691-42.757 35.047-7.8813-0.8826-14.457-4.3939-20.302-9.229-16.222-13.417-33.569-14.735-51.832-5.0698-21.602 11.433-35.38 29.11-42.152 53.886 20.846-16.611 41.372-11.144 60.114-0.714 18.994 10.57 38.734 8.6521 58.76 9.8612 9.9965 0.6035 23.842-7.7014 28.597 0.7543 4.5202 8.0377-0.8058 21.337-0.9175 32.332-0.1151 11.328-5.217 13.175-15.386 11.235-34.758-6.6282-69.489-13.784-104.54-18.392-35.173-4.6243-69.024-18.494-107.73-15.388 13.694 23.89 25.277 45.91 32.453 69.887 18.732 62.584 14.385 120.98-33.985 169.68-12.56 12.646-7.2635 14.764 5.2675 19.219 59.855 21.277 121.93 33.122 184.26 43.696 11.197 1.8996 15.013 5.3441 13.186 16.478-1.6323 9.9457-0.9462 18.95-16.38 17.899-24.258-1.6521-48.78-1.6561-72.796 3.8867-6.7152 1.55-14.445 2.6567-15.219 11.632-2.2844 26.498-5.662 53.005-6.0417 79.545-1.2448 87.003 10.814 172.45 33.318 256.43 12.658 47.236 28.077 93.372 57.284 133.52 14.145 19.443 31.85 33.037 56.522 37.262 21.114 3.6154 41.879 9.2922 62.771 14.173 201.6 47.102 402.48 97.732 607.52 128.49 58.59 8.788 117.56 17.235 176.56 3.447 175.88-41.106 321.72-131.67 432.17-274.17 27.224-35.126 52.839-52.308 95.241-44.107 24.366 4.713 41.168-7.076 55.291-24.8 5.0535-6.342 9.415-13.233 14.412-19.624 6.5269-8.3479 4.9978-13.737-4.3726-19.067-22.806-12.972-46.895-22.826-71.493-31.627-14.929-5.3414-29.883-10.613-48.872-17.351 26.624-7.978 47.933-16.676 67.566-29.046 66.706-42.03 83.396-97.225 49.748-168.39-5.3003-11.21-2.4731-15.686 6.3328-22.163 37.886-27.866 74.958-56.841 112.91-84.612 9.4619-6.9234 7.6838-11.222 1.8806-19.216zm-1451.6 80.338c-1.4114 8.7495-3.8134 17.634-16.459 14.453-3.3307-0.8376-6.9193-0.6494-10.39-0.9321-22.546-1.8184-45.068-4.6132-67.643-5.146-15.37-0.3628-13.806-8.6143-13.37-19.21 0.5616-13.656 8.5976-8.598 15.524-7.6788 26.435 3.5075 52.925 6.6445 79.285 10.639 4.7757 0.7235 14.944-3.8504 13.052 7.8746zm90.165-183.96c-0.817 10.3-1.5726 20.606-2.6027 30.885-0.3638 3.6303 0.8032 9.1705-5.406 8.6158-6.1766-0.5518-3.6973-5.8379-3.6511-5.2994 1.0197-14.44 1.7151-24.738 2.4921-35.031 0.2466-3.2673-0.3314-7.4399 4.9839-6.9141 4.9303 0.488 4.4573 4.2947 4.1838 7.7434zm706.55-417.97c5.4268 19.901 3.7397 21.19-26.422 17.199 10.467-6.8132 18.445-12.006 26.422-17.199zm-365.26 157.03l0.4832-47.546c3.0017-22.514 43.36-38.775 70.878-35.106s62.206 29.935 59.204 52.449l-11.99 46.012 6.6543 13.108-25.766 27.117-14.092 0.6672-3.4354 10.49-20.163 8.0051-22.514-3.0016-17.361-13.008-0.5671-11.024-13.425-4.3359-17.762-32.92 9.8562-10.907zm162.25 56.767c-25.016-3.3352-31.27-4.1689-54.951 1.585l23.681-24.849c10.39-3.4522 14.242-7.5216 19.062-22.664 9.0056 1.2007 15.977 6.2037 15.376 10.706-1.1674 8.7556-6.3706 5.7704-7.738 16.027-1.1675 8.7556 6.1371 7.438 4.5696 19.195zm-78.716 28.969l5.1698-12.041c12.258 9.2723 26.3 14.709 37.057 16.143 5.0032 0.667 8.9391 5.52 8.1052 11.774-22.147 1.8848-17.477 20.33-27.234 19.029-11.507-1.5342-7.8384-17.594-30.803-30.586l7.7048-4.3195zm-11.407-2.2847l1.134-8.5054 8.0717-3.2521-3.7023 8.6722-5.5034 3.0853zm-1.5676-7.3379l-1.1007 8.2551-8.0383 3.002 1.1339-8.5052 8.0051-2.7519zm-10.54 2.6685l-1.1672 8.7555-8.7556-1.1674 1.1674-8.7554 8.7554 1.1673zm-11.257-1.5009l-1.1672 8.7555-8.7556-1.1672 1.1674-8.7556 8.7554 1.1673zm-11.224-1.7509l-1.134 8.5054-6.9712-5.0031 1.1007-8.2552 7.0045 4.7529zm-16.244-11.841l6.9377 5.2533-1.1339 8.5054-4.5029-4.4194-1.3009-9.3393zm0.5006 19.162c-25.566 6.521-26.233 22.981-37.74 21.447-9.7562-1.3008-0.4172-17.878-21.297-25.499 0.8339-6.2539 5.9037-9.9063 10.907-9.2393 10.757 1.4341 25.733-0.1337 39.992-5.8707l1.8345 12.975 6.3041 6.1873zm-65.242-72.095c1.3674-10.256-4.4362-8.7388-3.2689-17.494 0.6003-4.5027 8.6387-7.5048 17.644-6.3041 0.684 15.877 3.3356 20.813 12.458 26.867l16.344 30.186c-21.347-11.757-27.601-12.591-52.617-15.926 1.5676-11.757 8.2718-8.5721 9.4391-17.328zm47.606 511.15c-20.466-4.8346-41.494-7.374-62.353-10.414-8.7372-1.2735-9.7075-2.5161-5.3813-11.611 18.809-39.54 10.783-75.49-17.281-108.24-25.544-29.809-56.455-49.163-95.265-57.983-41.645-9.4644-83.136-19.477-125.44-25.357-13.733-1.9086-21.691-5.9744-17.571-21.582 1.1647-4.4117 1.0999-9.2219 1.111-13.85 0.0375-15.624 7.6134-19.329 22.05-15.813 29.042 7.0728 58.815 8.2696 88.55 9.9811 12.934 0.7444 15.956-3.7071 13.828-15.601-5.7054-31.881-10.466-63.933-16.346-95.78-2.2754-12.324-0.4663-18.108 13.995-18.167 25.499-0.1027 50.99-2.1711 65.63-2.8863 67.058-0.2433 122.48 5.68 177.13 19.163 9.175 2.2635 10.521 5.9833 9.6826 14.145-11.647 113.42-23.206 226.84-34.324 340.31-1.2284 12.536-4.3734 16.901-18.008 13.68zm300.73-443.61c23.063 17.572 21.216 41.145 15.804 63.355-13.447 55.184-37.827 105.47-77.372 147.2-10.66 11.248-21.824 22.301-38.142 26.138-4.9727 1.1693-10.202 5.1081-11.168 11.656 38.661 3.0941 76.936 6.3821 115.25 9.054 8.7734 0.6118 14.532 2.0096 12.983 12.68-1.2826 8.8401-1.2942 16.728-14.428 16.524-56.352-0.8754-112.55 3.4362-168.79 6.2732-10.378 0.5235-19.948 5.5209-32.057 3.2498 6.1149 9.6044 14.181 7.6873 20.307 10.308 47.78 20.44 70.827 64.359 59.475 119.2-9.343 45.134-12.647 47.758-56.825 39.327-23.213-4.4302-46.53-8.3943-69.905-11.856-9.6821-1.4338-14.207-4.5054-13.013-15.453 5.8379-53.506 11.232-107.06 16.375-160.64 3.9286-40.928 6.4078-82.014 11.224-122.83 2.124-18.001 2.2345-36.296 6.921-54.122 1.9821-7.5392 4.3564-12.172 12.048-9.8477 23.911 7.2238 49.118 12.619 64.777 34.887 4.6467 6.6075 9.3398 6.6014 15.975 4.2986 58.059-20.149 93.058-73.054 84.94-133.78-7.5664-56.594-28.291-109-58.591-157.53-4.2913-6.8732-9.9551-11.049-17.771-12.668-21.562-4.4666-42.986-9.8339-64.724-13.127-10.343-1.5668-13.11-5.6572-10.709-14.661 2.087-7.8252-1.4626-19.34 14.416-17.477 31.147 3.6547 62.507 4.4515 93.91 3.8035 12.147-0.2507 21.754-2.3439 24.726-16.174 1.5695-7.3038 5.5763-8.9581 12.482-4.6782 13.329 8.2605 27.412 15.06 42.518 19.641 2.5665 0.7784 5.4329 2.6819 6.8239 4.9027 17.26 27.56 29.205 56.753 23.56 90.149-2.9958 17.725-13.385 31.026-30.01 37.832-6.3025 2.5798-8.2402 5.5358-7.4373 11.291 0.8535 6.1158 5.8276 6.8107 10.545 6.5593 14.481-0.7715 28.968-1.649 43.403-3.0156 8.6498-0.8188 11.888 2.4016 10.216 10.831-0.3384 1.7053-0.5125 3.4456-0.7146 5.1753-4.2305 36.22-4.2285 36.223-39.892 43.167-6.0591 1.1798-16.317 3.3712-7.1408 10.362z"/>
	<path d="m820.93 528.25l0.5671 11.024 17.361 13.008 22.514 3.0016 20.163-8.0051 3.4354-10.49 14.092-0.6672 25.766-27.117-6.6543-13.108 11.99-46.012c3.0016-22.514-31.687-48.78-59.204-52.449s-67.876 12.592-70.878 35.106l-0.4832 47.546-9.8562 10.907 17.762 32.92 13.425 4.3358zm45.695-33.371v-1e-4c1.0339-7.7549 24.098-10.79 27.601-10.323 9.2559 1.234 12.725 5.7701 11.624 14.025-1.8677 14.009-6.1536 21.33-12.158 20.53-14.009-1.8678-28.868-10.723-27.067-24.232zm-1.9843 35.889l-5.5034 3.0853-5.7537-4.5862-6.7542 2.9186-4.5029-4.4194 13.925-18.512 8.5889 21.513zm-53.851-44.861c1.1006-8.2551 5.6367-11.724 14.893-10.49 3.5022 0.4668 24.966 9.439 23.932 17.194-1.801 13.508-18.461 18.162-32.47 16.294-6.0038-0.8005-8.222-8.9889-6.3542-22.998z" fill="#fff"/>
	<path d="m965.02 501.64c0.6003-4.5028-6.3708-9.5059-15.376-10.706-4.8196 15.143-8.6719 19.212-19.062 22.664l-23.681 24.849c23.682-5.7539 29.936-4.9202 54.951-1.585 1.5675-11.757-5.7371-10.44-4.5697-19.195 1.3675-10.256 6.5708-7.2712 7.7381-16.027z" fill="#fff"/>
	<polygon points="869.06 564.46 870.16 556.21 862.15 558.96 861.02 567.46" fill="#fff"/>
	<path d="m906.23 600.73c9.7562 1.3007 5.0864-17.144 27.234-19.029 0.8339-6.2539-3.1021-11.107-8.1052-11.774-10.757-1.4342-24.799-6.8708-37.057-16.143l-5.1698 12.041-7.7048 4.3196c22.965 12.991 19.296 29.051 30.803 30.586z" fill="#fff"/>
	<path d="m813.25 543.78c-14.259 5.7371-29.235 7.3048-39.992 5.8707-5.0032-0.667-10.073 2.9854-10.907 9.2393 20.88 7.6213 11.541 24.198 21.297 25.499 11.507 1.5341 12.174-14.926 37.74-21.447l-6.3042-6.1873-1.8344-12.975z" fill="#fff"/>
	<polygon points="826.7 557.54 827.83 549.03 820.89 543.78 822.19 553.12" fill="#fff"/>
	<path d="m782.98 493.92c-9.1226-6.0537-11.774-10.99-12.458-26.867-9.0057-1.2007-17.044 1.8014-17.644 6.3041-1.1672 8.7556 4.6364 7.2379 3.2689 17.494-1.1674 8.7555-7.8716 5.5703-9.4391 17.328 25.016 3.3352 31.27 4.1689 52.617 15.926l-16.344-30.186z" fill="#fff"/>
	<polygon points="836 564.13 837.14 555.62 830.13 550.87 829.03 559.12" fill="#fff"/>
		<rect transform="matrix(-.1321 .9912 -.9912 -.1321 1511.1 -200.68)" x="838.98" y="556.75" width="8.833" height="8.833" fill="#fff"/>
	<polygon points="872.86 555.04 871.72 563.54 877.23 560.46 880.93 551.79" fill="#fff"/>
		<rect transform="matrix(-.1321 .9912 -.9912 -.1321 1525.3 -210.14)" x="850.24" y="558.25" width="8.833" height="8.833" fill="#fff"/>
</svg>
