<?xml version="1.0" encoding="UTF-8"?>
<svg viewBox="0 0 689.974 390.71631" xmlns="http://www.w3.org/2000/svg">
 <g transform="matrix(3.2448 0 0 3.2448 -405.38 -1202.1)">
  <path d="m337.58 415.86c-6.9338-12.753-4.7809-33.422-14.509-45.405l-1.9526 0.44018c-40.524 17.009-70.384 34.267-87.474 48.812-9.286-4.3656-49.593-1.8287-91.78 3.2583l-16.48 54.749c1.3256 1.2833 3.2088 5.4745 2.6944 7.7026-2.0065 0.63234-3.7364 2.3359-2.945 2.6944 0.01696 0.00721 0.04317 0.05659 0.06266 0.06266 0.10395 0.03059 0.20885 6e-3 0.37596 0 21.032-0.07802 95.815-6.0343 99.111-6.266 2.5025-0.24178 4.4245-1.3022 5.89-2.6317 0.66498 2.1222 2.3615 4.2274 3.6343 4.7622 1.4113 0.59293 3.1993 1.6945 6.5793-0.06266 3.2961-1.6556 6.2376-3.1203 9.587-4.7622 2.0315 3.8732 4.013 8.4944 4.9502 11.655 0.38314-1.2168 1.5876-3.7937 1.9425-5.5141 1.3751 1.7069 3.9375 3.2387 5.3261 4.0102-2.0255-3.2984-4.0452-8.4395-6.5166-12.908 27.969-13.579 56.729-26.743 77.761-39.664 0.16712-0.09354 0.27201-0.19735 0.37596-0.31331 0.0195-0.02237 0.04569-0.03997 0.06265-0.06266 0.79142-1.0943-0.93849-2.8755-2.945-2.6944-1.0699-3.3958 0.03902-8.3556 6.2481-17.863zm-1.9559 0.12171c-46.827 19.651-89.795 39.893-101.2 56.324-1.6349-2.7818-0.67011-49.151-0.27913-50.097 5.1135-12.375 59.903-39.064 87.761-50.956 4.9893-0.02286 11.624 45.17 13.717 44.729zm0.09398 0.95246c-6.3973 10.727-7.161 15.563-4.3862 19.42-0.08798 0.07213-0.23548 0.18412-0.37595 0.25065-1.5561 0.73692-50.841 25.154-76.195 37.596-1.8425-2.8848-3.916-5.2278-6.266-6.83l-6.7673 3.4463c1.4667 0.42232 2.7099-0.16064 4.8875 2.3811 0.77069 0.89913 1.6163 2.2278 2.5064 3.7596-5.2994 2.5887-8.707 4.2621-9.0857 4.3862-2.0025 0.65627-4.8603-0.01368-5.3888-1.8752-7.1033-16.836 76.795-50.464 101.07-62.535zm-122.5 1.0785c12.25-0.15045 18.524 0.6813 18.923 5.2033 0.08682 0.75011 0.23735 46.745-1.3728 49.175-12.513-4.3958-56.647-0.35119-104.03 4.8473l15.705-53.646c21.892-2.5004 48.267-5.4709 70.775-5.5797zm-3.8849 53.812c14.443-0.17735 24.156 1.2181 21.492 5.9527-0.52842 1.3012-3.3862 1.9653-5.3888 2.3139-0.37866 0.06589-95.425 6.8193-96.981 6.9553-0.14048 0.01226-0.28796 0.01041-0.37597 0 2.1404-2.174-0.4093-6.8382-1.3159-9.1438 15.172-1.1119 58.498-5.7825 82.569-6.078z"/>
 </g>
</svg>
