<?xml version="1.0" encoding="UTF-8"?>
<svg enable-background="new 0 0 228.11 211.151" viewBox="0 0 228.11 211.151" xmlns="http://www.w3.org/2000/svg">
 <path d="m142.195,23.461c8.987-.117 3.651-16.455 10.872-17.739 2.865-.509 3.993,1.098 6.294,2.289 .136,2.424-1.669,2.909-2.289,4.578 2.059,1.772 3.612-.625 5.723-.572 .71,4.021-5.323,3.158-6.866,1.717-1.166-2.123.444-3.351 1.144-5.15-8.055-3.644-5,5.109-6.294,9.728-1.933,6.899-12.731,10.832-13.733,1.145-.613-5.93 7.422-13.114 1.145-16.595-4.786,3.822-7.407,10.243-10.3,16.022-5.107,10.204-10.6,22.906-16.595,32.617 .417,2.826 3.612,2.874 4.578,5.15 .559,2.657-3.42.776-2.861,3.434 3.25.649 6.678-1.338 8.583-3.434 1.062-1.168.825-2.688 1.717-4.006 3.303-4.881 8.016-6.332 14.878-8.583 1.64-4.048 6.157-5.747 10.872-5.15 1.997-.864 2.298-3.424 3.434-5.15 2.595-2.364 7.203-2.715 9.728-5.15-.42-2.09-2.851-2.791-.572-4.578 3.336-.475 2.923,2.799 2.861,5.723-2.962,2.951-8.354,3.473-10.3,7.439 1.55.882 2.591-.002 4.577,1.144 1.866-1.186 1.551-4.553 3.434-5.722 6.82-.237 6.818-7.297 9.156-12.017 4.104,1.292-.745,9.432-2.289,10.872-1.906,1.778-4.257,2.046-5.723,2.289-.899,3.106-2.247,5.764-4.578,7.439-2.026.31-1.406-2.026-3.433-1.717-2.952,2.961-4.424,7.402-10.873,6.867-1.773,4.902-10.318,3.033-14.306,5.723-.27,9.67-10.3,12.558-18.883,12.017 5.555,9.578 17.975,2.118 24.606-2.289 1.396-.928 3.021-1.361 4.578-2.289 2.797-1.667 5.184-4.343 8.011-5.723 6.889-3.36 22.481-5.966 31.473-1.145-1.842,6.08-13.174-.458-15.45,4.578 3.563,2.402 8.129.184 12.017.572 6.121.611 12.337,3.942 20.601,3.433 2.313.929 2.983,3.501 6.294,3.434 1.188,4.725 9.618,2.208 9.156,8.583-6.51.749-11.486-4.406-17.739-4.578-2.053-.056-4.189,1.297-6.295,1.145-2.782-.202-5.279-2.514-8.011-2.861-7.706-.98-13.863,4.659-21.745,4.578-3.199-.033-6.577-2.577-9.728-.572 2.203,5.045 12.046,2.45 17.739,4.005 2.117-.401 1.427,2.006 2.289,2.861 3.604-.362 5.448,1.037 5.722,4.005 .682,2.398-2.412,1.021-2.86,2.289 2.979,4.458 11.896,2.982 13.161,9.156-4.667,2.369-9.631-1.496-14.306-1.717-1.382-.065-3.221.729-4.578.572-4.615-.532-8.32-3.124-11.444-5.15-8.646-1.172-15.95,1.619-22.89,0-5.572-1.3-8.789-7.578-13.733-8.583-1.379,3.8 2.431,7.009 5.723,8.011 4.759,5.731 11.295,9.686 17.167,14.306 .668,2.383 2.103,4.001 2.86,6.294 .634,3.113-1.943,3.016-1.716,5.722 9.838.262 24.989-.32 33.761,0 .759.958 1.517,1.917 1.145,4.006-.469-6.125 5.838-7.454 11.444-5.722 .988.347-.044,2.714 1.145,2.861 1.848.512.805-1.866 1.717-2.289 1.968.251 3.207-.226 4.578-.572 1.404.503 3.3.515 3.434,2.289 1.734.018.554-2.879 2.288-2.861 5.858-1.19 11.229-1.851 15.45-4.578 2.573-1.661 4.079-5.697 7.439-4.578 2.031-.111.805,2.335 1.145,3.433 .634,2.052 1.915,3.774 2.289,6.867 .086,1.421-.296,2.375-1.145,2.861 2.62,2.476-.145,3.631 1.145,7.439 .501,1.837-1.484,1.187-1.717,2.289-.37,2.277 1.514,2.3 1.145,4.578-6.254,4.823-9.831-3.85-18.884-6.867-1.633-.544-3.269-.162-4.578-.572-2.888-.905-5.033-2.267-10.3-1.145-1.389-.71-2.664-1.532-3.434-2.861-1.571,3.866-10.92,3.749-13.161.572-23.038-.064-44.957.223-65.234-.572 2.283,5.346 9.036,6.223 11.445,11.444 5.835,2.485 12.391,3.85 17.739,6.295 7.012,3.205 11.608,8.547 14.878,16.022 1.857-.332 2.662.39 4.005.572 3.944,8.072 20.788,3.245 26.895,9.155 1.476-.138-.785-.984 0-2.289 2.631,1.664 3.128,4.823 5.15,6.867s5.264,2.728 7.439,4.577c1.153.981 5.528,5.863 6.294,7.439 3.848,7.922.294,19.264-6.294,22.889-3.712,2.042-10.706,3.263-17.739,2.861-14.855-.848-28.631-11.62-46.923-12.589-11.378-.603-23.665,2.988-32.617,5.723-7.521,2.297-13.056,4.947-18.883,9.728-1.539,2.466-3.953,4.058-6.867,5.149-1.572-4.632 4.6-6.457 5.722-10.3 5.599-2.794 11.227-5.559 16.595-8.583 7.513-1.666 15.4-4.416 23.461-5.15 3.625-.33 7.182.859 10.3-1.145 4.927,1.974 8.437.62 13.161,1.145 1.86.207 4.137,1.435 6.295,1.717 7.815,1.021 12.906,3.12 21.744,5.15 5.873,1.349 14.757,6.386 22.89,3.433 4.27-1.55 6.416-7.206 5.722-13.161-.752-6.459-8.598-15.32-15.45-18.311-3.632-1.586-7.74-.873-10.3-3.434-1.837-.502-1.187,1.483-2.289,1.717-13.19-1.383-23.582-3.772-30.328-10.873-3.546-3.732-7.131-8.339-12.589-10.872-.105,5.311 9.452,5.767 10.873,11.444-3.982-1.245-7.98-4.101-12.589-5.149-3.943-.898-8.426-.562-12.017-1.717-5.729-1.842-8.865-6.029-13.733-8.012-.996-3.771-4.29-5.247-5.15-9.155-5.605-2.024-9.434-5.826-10.873-12.017-8.127.48-15.209.084-22.889,0-20.043-.219-41.965,1.648-64.662-.572-.627-1.54-.107-2.935.572-4.578 5.684.926 9.918-.033 16.022,0 6.875-4.188 13.529-8.597 17.739-15.45-1.618-2.96-7.877-1.279-8.583-5.15-1.588.129-1.619,1.814-2.861,2.289-1.855-.243-1.139-3.058-2.289-4.006 1.473-1.564 5.497-.06 6.295-3.433-.058-2.803-3.977-1.746-2.861-5.722 3.005-.335 2.587,2.753 4.005,4.005 4.498.874 3.087-4.162 6.867-4.005 .34,3.552.53,5.623 3.433,5.722 3.718.127 4.562-5.399 4.578-8.011 4.37-.938 8.211-1.527 12.017-1.717-2.348-3.375-2.807-8.638-4.578-12.589 1.563-2.458.478-5.229 1.145-7.439 1.108-3.673 3.968-6.155 5.722-9.728 .254-1.082-.778-3.449 1.145-2.861-.526-1.51-1.208-2.365-1.145-4.006 .05-1.308 1.887-3.632 2.861-5.15 .055-.085.447-2.184.572-2.289 1.091-.918 4.067-.523 4.578-1.145 1.323,6.24.813,14.542-2.289,20.6-1.087,2.125-.945,4.472-2.861,6.295 .221,2.399 2.018,5.356 0,8.583 1.613,4.211 1.263,7.833.572,12.589-.082.561.583,1.665.572,1.716-.6,2.935-2.808,4.099-3.434,6.867-.374,1.654.166,3.619 0,5.15-.928,8.584-7.141,11.567-10.872,18.311 6.591,2.827 6.096-1.264 10.3-4.578 1.583-1.247 3.808-1.535 4.578-2.289 2.289-2.24 3.027-6.146 6.294-8.011 1.531-.874 3.894-1.509 5.722-2.289 4.283-1.827 10.213-4.022 14.306-8.011 2.492-2.43 2.974-5.205 6.294-6.867 .385-2.858 1.741-4.745 2.289-7.439 2.594-1.603 4.444-3.949 5.722-6.867-2.124-1.838-2.14,2.097-5.15,1.144-1.664-1.769-2.639-4.228-5.15-5.15-3.539.755-6.454,4.858-10.873,2.861 .803-5.301 6.782-5.426 10.873-7.439-.168-3.837-6.809-1.203-7.439-4.578 1.635-3.706 8.643-2.038 12.017-4.005 14.374-15.183 26.426-32.696 40.053-48.634 2.923,1.778 5.783,2.908 6.294,5.722 .951,5.233-7.845,13.168-1.143,17.739zm1.143,20.601c1.242-1.047 4.687.108 5.723-1.145-2.132-.425-5.167-1.321-5.723,1.145zm-26.322,55.505c-4.301-4.284-9.525-10.483-15.45-8.583-5.315,1.705-9.909,13.435-17.167,13.162-.254,1.843-1.096,3.1-1.145,5.15 1.785.885 2.049,3.292 5.15,2.861 1.09-9.044 10.013-12.594 20.601-11.444 4.844.526 9.342,4.217 13.161,2.289-.664-2.198-2.634-3.089-5.15-3.435zm-69.239-8.583c-2.238,4.248-5.021,7.95-9.728,9.728-2.343,5.858-9.404,7-12.017,12.589 3.995-.583 8.467-.688 13.161-.572 5.785-4.828 16.243-12.429 12.017-21.745h-3.433zm36.05,6.867c-3.185,3.683-9.971,3.762-14.306,6.295 .331,4.527-3.34,5.053-4.006,8.583 2.296.873 5.308-1.105 6.867-2.289 4.421-3.356 7.827-8.823 12.589-11.445-.064-.698-.171-1.354-1.144-1.144zm-25.75,14.878c2.16,1.141 4.547.288 4.006-2.861-2.044.244-3.141,1.437-4.006,2.861zm17.739,0c2.054-.474 2.769,1.291 4.005,0 .174-2.953-3.996-2.697-4.005,0zm49.211,23.461c.818-1.73.476-3.303-1.716-3.434 .444,1.273.33,3.103 1.716,3.434zm5.15,6.294c-.335-2.335-1.254-4.086-3.433-4.578-1.282,1.991 1.558,3.929 3.433,4.578z" fill-rule="evenodd"/>
</svg>
