<?xml version="1.0" encoding="UTF-8"?>
<svg viewBox="0 0 727.26862 672.27911" xmlns="http://www.w3.org/2000/svg">
 <g transform="matrix(6.8233 0 0 6.8233 -77.847 -126.97)">
  <path d="m15.454 21.608 4.879 25.876c-3.7786 6.3618-5.9245 13.63-5.9245 21.346 0 25.017 22.513 45.305 50.271 45.305s50.315-20.288 50.315-45.305c0-7.4745-2.0588-14.519-5.6196-20.736l4.879-25.833-20.562 9.5402c-8.1959-5.2251-18.217-8.3205-29.013-8.3205-10.481 0-20.213 2.8909-28.272 7.8413l-20.954-9.7145z" fill="none" stroke="#000" stroke-linecap="round" stroke-linejoin="round" stroke-width="6"/>
  <path d="m15.454 21.608 4.879 25.876c-3.7786 6.3618-5.9245 13.63-5.9245 21.346 0 25.017 22.513 45.305 50.271 45.305s50.315-20.288 50.315-45.305c0-7.4745-2.0588-14.519-5.6196-20.736l4.879-25.833-20.562 9.5402c-8.1959-5.2251-18.217-8.3205-29.013-8.3205-10.481 0-20.213 2.8909-28.272 7.8413l-20.954-9.7145z" fill="#fff" stroke="#000" stroke-linecap="round" stroke-linejoin="round" stroke-width="3.9782"/>
  <path transform="matrix(1.9388 .8723 -.8723 1.9388 -50.299 -95.029)" d="m76 48c0 2.2091-1.7909 4-4 4s-4-1.7909-4-4 1.7909-4 4-4 4 1.7909 4 4z"/>
  <path transform="matrix(.76796 .34552 -.34552 .76796 11.205 -1.3029)" d="m76 48c0 2.2091-1.7909 4-4 4s-4-1.7909-4-4 1.7909-4 4-4 4 1.7909 4 4z" fill="#fff"/>
  <path transform="matrix(1.9388 .8723 -.8723 1.9388 -15.389 -95.1)" d="m76 48c0 2.2091-1.7909 4-4 4s-4-1.7909-4-4 1.7909-4 4-4 4 1.7909 4 4z"/>
  <path transform="matrix(.76796 .34552 -.34552 .76796 46.115 -1.3742)" d="m76 48c0 2.2091-1.7909 4-4 4s-4-1.7909-4-4 1.7909-4 4-4 4 1.7909 4 4z" fill="#fff"/>
  <path d="m41.227 86.168c0.71997 5.451 3.9594 11.035 11.152 11.152 9.5596 0.15794 17.384-10.258 19.682-17.547-5.2586-0.76083-10.517-0.71929-15.776-0.23408 2.2988 6.9385 10.416 17.652 18.397 17.781 7.6568 0.12382 10.288-4.9103 11.152-11.152" fill="none" stroke="#000" stroke-linecap="round" stroke-linejoin="round" stroke-width="2.788"/>
 </g>
</svg>
