<?xml version="1.0" encoding="UTF-8"?>
<svg enable-background="new 0 0 1019.74 1695.181" version="1.1" viewBox="0 0 1019.74 1695.181" xmlns="http://www.w3.org/2000/svg">
 <path d="m489.17 1263.6c-173.08 0-256.04 207.04-136.61 327.56 74.366 75.045 196.7 76.181 271.67 0.517 115.76-116.87 42.034-328.07-135.06-328.07z"/>
 <path d="m507.8 47.591c-581.81 0-593.52 644.73-260.45 613.61 6.165-41.026 9.911-80.024 6.211-93.635-10.065-38.126-42.593-66.9-54.816-97.472-62.182-155.38 13.798-290.65 185.65-308.6 199.5-20.838 267.13 136.32 243.52 188.29 20.847 32.551 68.833 80.567 72.965 103.59 2.517 13.847-13.838 18.703-21.747 23.559-7.548 2.518-15.814 0.719-20.846 6.834-3.595 4.496 1.257 12.049 2.337 17.624 0.18 9.172 10.961 13.668 9.883 22.12-1.08 7.194-7.188 10.071-12.76 14.567-5.931 4.675 15.097 13.668 8.269 21.94-7.009 8.092-17.254 17.444-13.658 28.954 5.211 17.804 15.277 36.327 7.009 50.175-18.627 30.79-44.073 25.411-101.07 25.817-17.925 31.586-24.66 39.714-41.631 67.804l-2.847 4.751c-28.863 48.606-53.719 107.53-69.149 170.1-13.114 53.136-19.664 109.02-19.664 167.66v14.489h108.67c2.75-66.916 17.077-122.64 42.95-167.14 106.24-182.73 414.49-202.85 414.49-496.25-1e-3 -246.37-231.39-378.78-483.31-378.78z"/>
</svg>
