<?xml version="1.0" encoding="UTF-8"?>
<svg viewBox="0, 0, 560, 768" xmlns="http://www.w3.org/2000/svg">
 <path d="m382.484,565.217c.192-1.335 17.201,71.152 6.874,99.828 .844-.739-31.934-16.557-53.115,1.052s-.31,64.416-.31,64.416l122.297-2.376c-.344-3.657 3.309-81.567 3.309-81.567l-35.172-122.121-43.883,40.768z" fill="#fff"/>
 <path d="m381.973,567.376 .02-.009-1.678-.027 .3,1.102 .684,2.826 .92,4.138 1.089,5.269 1.192,6.224 1.231,7.005 1.205,7.613 1.617,12.186 1.192,12.572 .452,8.297 .105,8.039-.307,7.591-.778,6.956-1.298,6.11-.825,2.569 4.619-2.428-.018-.111-.903-1.006-1.384-.766-1.956-.902-2.504-.999-2.992-1.03-3.421-.991-3.785-.883-4.088-.702-4.328-.449-4.511-.124-4.637.278-4.715.761-4.751,1.334-4.756,2.014-4.725,2.826-2.489,1.878c-.141.109-.279.225-.412.349l-1.864,1.734-3.684,4.635-2.705,5.26-1.643,5.377-.842,5.463-.219,5.528 .28,5.533 .674,5.454 .97,5.277 1.173,4.999 1.282,4.614 1.3,4.122 1.224,3.519 1.057,2.808 .798,1.986 .445,1.052 .064.145c.144.327.458.501.892.492l122.296-2.376c1.06-.02 2.543-1.098 3.313-2.408 .308-.524.467-1.031.452-1.441l-.021-.555 .024-2.235 .1-3.685 .165-4.883 .22-5.848 .263-6.588 .451-10.779 .649-14.874 .473-10.556 .287-6.333 .252-5.511 .206-4.466 .149-3.196 .079-1.705 .011-.223c.007-.152-.008-.291-.043-.414l-35.172-122.121c-.252-.877-1.499-.799-2.784.174-.152.116-.302.241-.446.375l-43.882,40.767c-1.211,1.125-1.79,2.581-1.292,3.251s1.884.302 3.096-.823l43.883-40.769-3.23.549 35.172,122.122-.042-.414-.011.224-.079,1.706-.149,3.197-.206,4.466-.252,5.512-.288,6.336-.472,10.559-.649,14.88-.452,10.785-.263,6.596-.221,5.86-.166,4.906-.1,3.737-.022,2.376 .02.556 3.765-3.849-122.298,2.376 .892.492-.054-.124-.433-1.022-.783-1.948-1.041-2.763-1.207-3.466-1.28-4.056-1.261-4.533-1.152-4.895-.949-5.14-.658-5.266-.278-5.265 .18-5.126 .698-4.824 1.224-4.321 1.672-3.626 2.387-3.216 1.865-1.735-.412.349 1.548-1.23 3.689-2.288 4.004-1.745 4.221-1.215 4.338-.718 4.361-.273 4.304.111 4.168.427 3.959.677 3.68.854 3.329.963 2.909.999 2.419.963 1.853.85 1.182.635 .284-.1 .019.113c.109.678.755.913 1.648.6 1.25-.438 2.58-1.793 2.971-3.028l.954-3.057 1.363-6.51 .797-7.201 .309-7.758-.108-8.158-.46-8.403-1.204-12.665-1.625-12.246-1.211-7.651-1.237-7.04-1.199-6.255-1.096-5.301-.929-4.177-.701-2.891-.355-1.272-1.903-.619-.022.009c-1.279.542-2.545,1.948-2.827,3.141s.526,1.72 1.805,1.178"/>
 <path d="m172.38 330.89c-12.497 61.036-43.912 63.008-61.249 122.14-10.014 34.155 26.481 59.945 27.079 82.696l2.438 134.8s-51.862-20.783-80.015-4.526-2.754 78.452-1.806 79.087 137.13 1.449 137.75 0.926c37.291-59.643-9.303-161.54 8.051-195.51 43.703 44.172 186.57 17.172 188.17 6.076 0.192-1.335 57.12 90.658 46.792 119.33 0.844-0.739-31.933-16.556-53.115 1.053s-0.31 64.415-0.31 64.415l142.26-1.687c0.313-111.64-79.145-156.76-63.125-204.2 52.809-29.164 78.129-63.327 47.934-146.75 1.37 0.735 9.099-16.452 16.598-37.701 0.739-18.553-9.327-16.681-15.988-11.195s-24.516 28.333-24.516 28.333-62.578-37.016-132.32 27.87c-34.622 34.213-79.5 10.513-96.889-11.201s-27.335-89.578-27.277-90.851c0.219-4.856-60.466 36.893-60.466 36.893z" fill="#fff"/>
 <path d="m170.059,331.909-1.226,5.552-2.732,10.036-3.074,8.839-3.369,7.847-3.615,7.036-3.822,6.418-6.088,8.949-8.543,11.512-6.59,9.143-4.42,6.706-4.309,7.301-4.145,8.067-3.917,8.976-3.634,10.04-1.71,5.511c-.014.046-.027.09-.038.135l-.805,3.176-.901,6.457 .039,6.277 .858,6.03 1.537,5.809 2.087,5.612 3.882,8.072 5.95,10.231 5.944,9.686 3.862,6.93 2.06,4.459 1.515,4.343 .852,4.21 .138,1.988-.004-.078 2.438,134.801 4.22-3.747-.149-.059-1.165-.445-2.219-.806-3.161-1.083-3.991-1.274-4.711-1.38-5.323-1.401-5.824-1.339-6.217-1.192-6.5-.958-6.679-.64-6.751-.235-6.723.257-6.601.842-6.397,1.528-6.131,2.338-3.095,1.595c-.096.05-.192.105-.288.165l-1.28.794-2.748,2.07-2.606,2.515-2.247,2.784-2.566,4.338-2.316,6.163-1.292,6.496-.468,6.696 .187,6.818 .71,6.823 1.111,6.689 1.396,6.409 1.564,5.978 1.62,5.393 1.561,4.654 1.387,3.758 1.101,2.711 .575,1.263 .252.465 .148.2c.116.14.279.233.48.275l.142.03 1.018.082 1.616.064 2.257.062 2.868.061 3.434.062 6.107.091 9.67.118 11.053.112 18.307.153 25.551.162 18.287.081 11.03.031 7.381.009 4.404-.001 3.932-.006 3.411-.014 2.841-.02 2.224-.027 1.561-.034 .871-.043 .378-.053c1.033-.191 2.302-1.186 2.996-2.349l1.687-2.826 3.149-6.061 2.693-6.311 2.228-6.46 1.802-6.594 1.412-6.718 1.457-10.253 .884-13.99-.119-14.225-.9-14.291-1.46-14.206-1.801-13.967-1.925-13.568-1.832-13.009-1.522-12.286-.995-11.394-.271-7.843 .094-4.841 .341-4.522 .612-4.157 .896-3.748 1.182-3.287 .64-1.335-4.212,2.522 2.12,2.019 4.703,3.775 5.233,3.385 5.703,3 6.128,2.63 6.509,2.278 6.845,1.945 7.137,1.626 7.385,1.326 7.59,1.042 11.66,1.065 15.86.58 15.899-.263 15.578-.979 14.908-1.566 13.888-2.025 9.551-1.747 5.876-1.244 5.418-1.288 4.932-1.318 4.408-1.337 3.852-1.343 3.277-1.35 2.714-1.378 2.255-1.52 2.062-2.137 1.036-1.982-3.815,3.113 .05.005-.264.112 .598.859 .9,1.367 1.158,1.821 1.391,2.242 1.599,2.632 1.785,2.993 2.974,5.104 4.402,7.799 4.73,8.722 4.88,9.416 4.846,9.88 4.63,10.113 4.233,10.114 3.653,9.883 2.891,9.417 1.556,6.601 .704,4.116 .415,3.867 .104,3.567-.223,3.219-.555,2.805-.365,1.114 4.621-2.435-.017-.111-.904-1.007-1.383-.765-1.957-.902-2.503-.999-2.993-1.03-3.42-.992-3.786-.882-4.087-.702-4.329-.45-4.511-.123-4.637.278-4.714.761-4.751,1.333-4.756,2.015-4.725,2.826-2.489,1.878c-.141.108-.279.225-.413.349l-1.863,1.733-3.685,4.635-2.705,5.261-1.643,5.377-.842,5.463-.219,5.528 .28,5.532 .674,5.454 .97,5.278 1.173,4.999 1.283,4.614 1.299,4.121 1.225,3.52 1.057,2.807 .797,1.985 .445,1.053 .064.145c.143.324.453.498.881.493l142.262-1.687c1.055-.013 2.539-1.084 3.315-2.394 .303-.511.465-1.007.462-1.414l-.043-5.184-.422-10.132-.844-9.773-1.233-9.409-1.59-9.06-1.915-8.722-2.206-8.397-2.466-8.085-2.692-7.786-2.888-7.499-4.622-10.734-6.545-13.434-6.744-12.524-6.683-11.709-6.362-10.993-5.785-10.377-4.949-9.856-3.855-9.427-2.508-9.083-.843-6.603-.02-4.299 .439-4.268 .923-4.211 .627-2.012-2.375,2.773 4.869-2.749 9.365-5.697 8.751-5.979 8.071-6.326 7.347-6.759 6.559-7.266 5.676-7.812 4.694-8.365 3.641-8.916 2.556-9.501 1.204-7.578 .453-5.272 .17-5.431-.111-5.63-.395-5.839-.685-6.058-.979-6.286-1.276-6.523-1.579-6.77-1.887-7.025-2.199-7.29-2.517-7.563-1.381-3.893-3.889,4.181 .147.017 2.207-.882 1.782-1.811 1.009-1.511 1.366-2.466 2.048-4.214 2.332-5.257 2.56-6.166 2.722-6.937 2.812-7.553 1.421-3.971c.09-.251.138-.488.143-.701l.038-1.68-.104-3.098-.335-2.693-.549-2.282-.749-1.893-.933-1.525-1.68-1.609-2.715-1.052-3.186.084-3.425,1.111-3.409,1.934-1.788,1.323-.255.206-.656.564-1.692,1.587-2.792,2.882-4.05,4.51-4.194,4.907-4.015,4.846-3.513,4.332-2.11,2.638-1.076,1.357-.759.962-.404.514-.057.073 3.497-1.714-.045-.026-.372-.21-.727-.389-1.07-.544-2.222-1.046-4.067-1.694-5.263-1.853-6.373-1.804-7.406-1.551-8.362-1.094-9.241-.43-10.047.442-8.042,1.033-5.59,1.076-5.728,1.411-5.881,1.777-6.024,2.17-6.159,2.592-6.281,3.04-6.394,3.516-6.493,4.019-6.579,4.547-6.648,5.098-6.704,5.672-3.418,3.103-.046.042-3.274,3.039-6.272,4.743-6.288,3.5-6.471,2.506-6.63,1.57-6.721.68-6.732-.155-6.665-.921-6.526-1.611-6.323-2.217-6.055-2.738-5.727-3.173-5.34-3.52-4.896-3.779-4.392-3.949-3.833-4.029-1.678-2.004 .028.035-1.608-2.168-3.044-5.004-2.869-5.833-2.697-6.515-3.708-10.692-4.274-15.068-2.683-11.178-1.533-7.087-1.325-6.607-1.111-5.957-.895-5.139-.673-4.157-.448-3.009-.219-1.687-.017-.244c-.003-.041-.008-.081-.014-.119l-.034-.194-.709-.78-1.34-.068-1.407.384-2.268.958-3.68,1.896-4.391,2.503-4.955,2.982-8.151,5.11-11.363,7.37-8.133,5.391-4.899,3.283-4.271,2.883-3.47,2.356-1.971,1.344-.971.664-.67.459-.347.238-.047.033c-1.302.895-2.242,2.396-2.1,3.352s1.314,1.006 2.616.11l.041-.028 .34-.233 .661-.454 .96-.656 1.953-1.332 3.446-2.34 4.244-2.864 4.856-3.254 8.049-5.337 11.235-7.288 8.004-5.02 4.769-2.873 4.082-2.334 3.184-1.66 1.611-.716 .49-.197-.043-.183-.061-.399 .034.194-.015-.119 .031.378 .224,1.732 .453,3.038 .678,4.185 .899,5.167 1.118,5.985 1.331,6.64 1.544,7.134 2.704,11.26 4.308,15.175 3.747,10.793 2.743,6.617 2.939,5.963 3.124,5.122 1.609,2.168 .027.035 1.741,2.076 3.917,4.111 4.48,4.021 4.989,3.846 5.446,3.584 5.849,3.235 6.203,2.797 6.504,2.27 6.759,1.655 6.97.945 7.141.137 7.279-.778 7.387-1.812 7.452-2.977 7.431-4.258 7.133-5.468 3.275-3.04-.046.042 3.109-2.832 6.277-5.327 6.219-4.784 6.153-4.268 6.084-3.779 6.009-3.317 5.925-2.879 5.832-2.464 5.73-2.073 5.617-1.704 5.494-1.359 5.334-1.035 7.743-1.006 9.772-.442 9.023.411 8.187,1.064 7.265,1.516 6.257,1.768 5.166,1.815 3.995,1.662 2.176,1.024 1.037.526 .698.374 .351.197 .046.027c.048.028.099.051.154.07 .847.292 2.343-.507 3.343-1.784l.045-.058 .388-.494 .741-.939 1.048-1.321 2.061-2.577 3.438-4.24 3.901-4.712 4.006-4.692 3.753-4.191 2.391-2.486 1.285-1.22 .657-.564-.255.206 .782-.642 2.045-1.289 2.168-.844 2.213-.208 2.156.713 1.427,1.301 .8,1.262 .666,1.631 .503,2.027 .316,2.451 .103,2.928-.038,1.68 .143-.701-1.393,3.895-2.772,7.446-2.673,6.814-2.492,6.01-2.223,5.021-1.855,3.841-1.041,1.92-.312.549 .712-.489 1.406-.339-.147-.017c-.577-.066-1.368.247-2.12.84-1.276,1.004-2.068,2.5-1.769,3.341l1.368,3.857 2.5,7.51 2.183,7.231 1.869,6.958 1.563,6.694 1.261,6.436 .965,6.185 .675,5.941 .39,5.704 .111,5.474-.16,5.249-.42,5.002-1.102,7.105-2.321,8.801-3.223,8.05-4.075,7.395-4.914,6.869-5.773,6.469-6.641,6.157-7.495,5.903-8.307,5.692-9.105,5.544-4.87,2.751c-1.084.612-2.062,1.754-2.375,2.773l-.737,2.432-.996,4.67-.458,4.624 .042,4.628 .905,6.911 2.58,9.297 3.91,9.549 4.983,9.919 5.797,10.399 6.358,10.985 6.664,11.673 6.712,12.464 6.511,13.36 4.596,10.669 2.866,7.44 2.671,7.718 2.444,8.009 2.186,8.313 1.896,8.629 1.574,8.958 1.222,9.299 .836,9.652 .419,10.034 .043,5.186 3.777-3.808-142.263,1.687 .88.493-.054-.124-.433-1.022-.783-1.948-1.041-2.763-1.206-3.466-1.28-4.056-1.262-4.533-1.151-4.895-.95-5.14-.657-5.265-.279-5.265 .181-5.126 .698-4.824 1.223-4.321 1.672-3.626 2.387-3.216 1.866-1.735-.413.349 1.548-1.23 3.69-2.288 4.004-1.746 4.22-1.214 4.338-.718 4.362-.273 4.304.11 4.168.428 3.959.676 3.679.855 3.329.962 2.909.999 2.419.963 1.854.85 1.181.635 .284-.1 .018.113c.11.68.759.914 1.656.598 1.252-.442 2.58-1.8 2.966-3.033l.506-1.666 .618-3.282 .229-3.525-.118-3.775-.436-4.016-.731-4.251-1.591-6.731-2.925-9.518-3.682-9.955-4.256-10.167-4.65-10.154-4.862-9.913-4.894-9.444-4.745-8.746-4.412-7.818-2.983-5.118-1.791-3.005-1.607-2.645-1.4-2.257-1.172-1.842-.925-1.403-.675-.961-.939-.7-.052-.005c-.237-.025-.514.014-.813.114-1.243.413-2.586,1.755-3.001,2.998l.681-.919 .155.113-1.176.868-2.152,1.117-2.936,1.219-3.621,1.269-4.236,1.287-4.796,1.284-5.304,1.262-5.754,1.221-9.401,1.722-13.735,2.006-14.759,1.553-15.427.973-15.742.264-15.711-.57-11.547-1.052-7.495-1.027-7.284-1.305-7.031-1.6-6.734-1.909-6.392-2.233-6.006-2.573-5.578-2.925-5.105-3.294-4.606-3.69-2.121-2.019c-.225-.214-.579-.286-1.014-.206-1.163.214-2.595,1.436-3.199,2.728l-.893,1.948-1.352,3.857-.969,4.13-.641,4.418-.35,4.707-.092,5.002 .279,7.986 1.005,11.485 1.527,12.326 1.832,13.011 1.921,13.538 1.794,13.902 1.451,14.104 .895,14.135 .125,13.997-.854,13.704-1.408,9.976-1.344,6.435-1.694,6.245-2.061,6.026-2.443,5.78-2.889,5.595-1.688,2.827 2.996-2.349 .124-.006-.78.04-1.53.033-2.209.027-2.832.02-3.404.013-3.927.007-4.4.001-7.376-.009-11.024-.031-18.281-.081-25.546-.163-18.301-.152-11.047-.113-9.663-.117-6.097-.091-3.424-.061-2.851-.062-2.225-.06-1.528-.059-.691-.038-.143-.03 .48.275 .023.051-.196-.354-.546-1.195-1.08-2.656-1.369-3.706-1.542-4.594-1.6-5.324-1.544-5.892-1.375-6.3-1.091-6.542-.696-6.618-.194-6.516 .404-6.218 1.062-5.681 1.748-4.963 1.742-3.128 1.279-1.699 1.476-1.53 1.919-1.496 1.281-.796-.288.165 2.318-1.24 5.417-2.114 5.931-1.441 6.286-.815 6.499-.257 6.586.225 6.553.625 6.403.942 6.137,1.174 5.76,1.323 5.269,1.387 4.667,1.366 3.952,1.261 3.128,1.071 2.191.796 1.146.438 .15.059c.457.181 1.151.025 1.881-.421 1.31-.8 2.357-2.29 2.338-3.327l-2.438-134.803c0-.026-.001-.052-.003-.077l-.18-2.296-.924-4.473-1.581-4.505-2.117-4.571-3.896-6.989-5.925-9.654-5.889-10.115-3.818-7.923-2.03-5.432-1.486-5.556-.831-5.673-.073-5.778 .805-5.968 .805-3.178-.038.134 1.621-5.248 3.475-9.64 3.707-8.534 3.897-7.617 4.055-6.893 4.168-6.342 6.504-9.024 8.798-11.872 6.409-9.452 4.087-6.898 3.841-7.516 3.538-8.282 3.189-9.208 2.789-10.268 1.226-5.553c.261-1.184-.568-1.688-1.851-1.127s-2.536,1.976-2.797,3.159"/>
 <path d="m242.02 289.02c-85.792 44.045-79.799 70.77-121.86 79.048-55.246 10.874-128.93-49.268-102.83-110.55 53.876-58.034 136.04-48.209 136.53-49.193s19.598-68.181 51.316-73.798c38.512-13.301 93.531 18.039 93.137 68.392s-56.299 86.104-56.299 86.104z" fill="#fff"/>
 <path d="m242.263,286.985-3.954,2.052-7.569,4.053-7.088,3.964-6.62,3.866-6.175,3.768-5.757,3.67-5.362,3.571-4.993,3.472-6.827,5.005-8.047,6.32-7.025,5.916-6.17,5.476-5.497,5.009-5.007,4.518-4.701,4.009-4.59,3.503-4.694,3.033-5.062,2.621-5.701,2.252-6.589,1.886-3.645.789 .088-.017-2.601.458-5.159.593-7.887.164-10.697-1.075-10.724-2.466-10.583-3.763-10.258-4.963-9.752-6.059-9.066-7.053-6.237-5.873-3.851-4.168-3.587-4.365-3.296-4.54-2.982-4.703-2.647-4.852-2.291-4.986-1.913-5.107-1.514-5.213-1.094-5.305-.655-5.379-.196-5.439 .281-5.482 .776-5.507 1.286-5.515 1.811-5.506 1.081-2.678-1.023,1.529 2.545-2.67 5.04-4.884 5.117-4.468 5.234-4.128 8.093-5.627 11.027-6.421 11.141-5.278 11.143-4.265 10.974-3.349 10.632-2.534 10.12-1.824 9.438-1.223 8.59-.735 7.578-.359 6.402-.096 5.064.052 3.571.087 1.624.019 .647-.041 1-.301c1.094-.51 2.169-1.636 2.587-2.709l.036-.093 .21-.621 .442-1.384 .942-2.89 1.348-3.951 1.748-4.834 2.139-5.53 2.518-6.036 2.885-6.35 3.238-6.47 3.572-6.392 3.882-6.112 4.155-5.624 4.378-4.929 4.544-4.051 4.695-3.056 4.941-2.009 2.47-.548 .156-.042 3.657-1.117 7.297-1.404 7.528-.446 7.718.475 7.781,1.373 7.721,2.241 7.549,3.074 7.263,3.871 6.869,4.631 6.367,5.352 5.758,6.033 5.042,6.676 4.221,7.278 3.296,7.837 2.268,8.354 1.138,8.826 .113,4.527 .001-.104-.196,4.677-1.27,8.903-2.286,8.42-3.134,7.968-3.82,7.498-4.349,7.016-4.729,6.521-4.961,6.006-5.041,5.469-4.968,4.899-4.736,4.297-4.342,3.659-3.785,2.985-3.062,2.276-1.709,1.209-.824.565-.566.379-.273.179-.008.005c-1.308.842-2.31,2.338-2.238,3.341s1.191,1.134 2.498.291l.073-.047 .36-.236 .661-.443 .956-.657 1.909-1.355 3.317-2.471 4.073-3.22 4.667-3.944 5.098-4.64 5.365-5.311 5.464-5.953 5.391-6.564 5.142-7.137 4.715-7.667 4.112-8.148 3.338-8.58 2.399-8.967 1.303-9.26 .196-4.678c.002-.035.002-.07.001-.104l-.133-4.801-1.198-9.124-2.349-8.593-3.392-8.03-4.326-7.436-5.155-6.808-5.878-6.147-6.497-5.449-7.012-4.717-7.424-3.946-7.735-3.139-7.946-2.292-8.063-1.406-8.088-.474-8.032.511-7.804,1.532-3.657,1.117 .156-.043-3.402.859-6.353,2.781-5.981,4.059-5.496,5.015-5.011,5.713-4.562,6.219-4.148,6.559-3.753,6.732-3.363,6.733-2.976,6.558-2.584,6.2-2.188,5.662-1.785,4.94-1.374,4.028-.952,2.922-.424,1.328-.099.314-.037.095 2.587-2.709 .835-.224-.381.033-1.586-.019-3.612-.087-5.142-.052-6.506.099-7.708.368-8.752.752-9.639,1.255-10.37,1.876-10.947,2.62-11.374,3.487-11.65,4.483-11.776,5.615-11.691,6.846-8.622,6.02-5.679,4.498-5.566,4.882-5.371,5.217-2.547,2.672c-.458.481-.818,1.019-1.023,1.53l-1.221,3.064-1.938,5.958-1.357,5.897-.807,5.827-.284,5.75 .214,5.665 .686,5.569 1.134,5.464 1.56,5.351 1.962,5.226 2.343,5.09 2.7,4.943 3.038,4.784 3.352,4.613 3.645,4.43 3.923,4.243 6.346,5.965 9.201,7.147 9.903,6.143 10.437,5.037 10.806,3.828 11.014,2.513 11.042,1.088 8.209-.187 5.393-.627 2.604-.458 .088-.018 3.968-.871 7.152-2.081 6.402-2.575 5.814-3.062 5.361-3.504 5.059-3.883 4.946-4.223 5.052-4.559 5.382-4.906 5.94-5.277 6.723-5.67 7.751-6.096 6.612-4.85 4.821-3.356 5.194-3.461 5.594-3.569 6.02-3.675 6.472-3.782 6.951-3.888 7.47-4.002 3.955-2.052c1.303-.676 2.467-2.134 2.599-3.256s-.818-1.482-2.121-.806"/>
 <path d="m250.55 142.78c-19.913-26.892 4.849-47.838-24.057-91.239-9.468-14.216-58.611-1.706-68.19-9.862-5.688-4.844 4.963-14.814 10.735-16.907 112.27-40.708 95.979 59.745 89.432 118.85" fill="#fff"/>
 <path d="m252.757,140.764-1.738-2.505-2.725-4.861-1.885-4.746-1.209-4.698-.871-7.1-.127-9.776 .063-7.791-.151-5.527-.476-5.806-.948-6.118-1.565-6.459-2.326-6.834-3.228-7.247-4.273-7.7-2.581-4.046c-.015-.024-.031-.046-.048-.067l-1-1.255-2.766-2.2-3.561-1.653-4.181-1.153-4.678-.743-5.063-.415-8.046-.174-11.025.225-7.978.204-4.944.021-4.516-.149-3.965-.386-3.288-.684-2.487-1.03-.85-.618 .093.076-.486-.469-.602-.902-.304-1.408 .431-1.856 1.019-1.684 1.473-1.717 1.869-1.717 2.062-1.516 1.965-1.091 .687-.257-.2.077 5.168-1.805 9.68-2.973 8.926-2.19 8.232-1.455 7.568-.756 6.931-.092 6.322.539 5.743,1.135 5.189,1.698 4.663,2.23 4.164,2.728 3.691,3.197 3.241,3.634 2.817,4.039 2.417,4.414 2.04,4.756 1.688,5.067 1.36,5.344 1.055,5.59 .775,5.803 .691,9.045 .168,12.486-.511,12.725-.989,12.712-1.267,12.431-1.344,11.885-.638,5.657c-.126,1.119.828,1.474 2.132.793s2.463-2.141 2.589-3.26l.638-5.655 1.349-11.927 1.274-12.517 .997-12.838 .513-12.892-.176-12.662-.706-9.188-.795-5.928-1.084-5.722-1.4-5.484-1.743-5.21-2.112-4.903-2.507-4.56-2.93-4.182-3.38-3.77-3.854-3.32-4.355-2.836-4.882-2.316-5.431-1.761-6.006-1.172-6.602-.548-7.223.108-7.863.798-8.529,1.518-9.215,2.271-9.892,3.042-5.17,1.805c-.066.024-.132.049-.2.078l-1.581.706-3.009,1.79-3.081,2.386-2.947,2.899-2.515,3.309-1.648,3.448-.414,3.077 .556,1.977 .798,1.135 .487.469c.028.027.059.053.092.076l1.173.793 2.835,1.134 3.539.722 4.137.397 4.627.151 5.009-.023 7.963-.203 10.898-.225 7.881.165 4.875.393 4.444.693 3.895,1.05 3.235,1.456 2.519,1.954 1.002,1.256-.048-.066 2.531,3.961 4.207,7.568 3.168,7.093 2.275,6.661 1.529,6.276 .927,5.938 .467,5.655 .15,5.423-.062,7.855 .147,10.072 .924,7.389 1.285,4.928 1.982,4.951 2.805,4.99 1.739,2.505c.479.688 1.855.343 3.074-.771s1.821-2.576 1.342-3.264"/>
 <path d="m13.493 265.88c-1.084-1.28 53.563-26.508 47.128-42.141-29.001-20.887-47.128 42.141-47.128 42.141z" stroke="#000"/>
 <path d="m184.26 168.33c-9.784-6.502-19.635 30.677-19.635 30.677s3.87 13.67 6.891 3.554 22.528-27.728 12.744-34.231z" stroke="#00007a"/>
 <path d="m252.22 178.12c-19.914-26.892 31.343-77.617 2.437-121.02-9.467-14.216-48.28-2.734-57.859-10.891-5.689-4.844 4.937-14.886 10.734-16.906 130.26-45.391 84.425 110.78 51.008 151.94z" fill="#fff"/>
 <path d="m254.433,176.104-.882-1.278-1.422-2.589-1.042-2.687-.705-2.8-.494-4.441 .271-6.291 1.131-6.679 1.788-7.081 2.243-7.455 2.488-7.786 2.514-8.068 2.315-8.298 1.886-8.474 1.224-8.589 .33-8.644-.795-8.634-2.145-8.563-2.633-6.36-2.295-4.192-1.323-2.084-.041-.058-.971-1.259-2.519-2.207-3.119-1.695-3.585-1.219-3.956-.823-4.237-.503-6.678-.314-9.108.032-8.699.051-5.812-.267-3.353-.441-2.864-.72-2.272-1.049-.842-.628 .082.069-.485-.468-.603-.904-.306-1.414 .429-1.867 1.02-1.697 1.473-1.725 1.864-1.713 2.054-1.502 1.955-1.069 .681-.244-.191.072 3.02-1.027 5.784-1.815 5.51-1.526 5.262-1.251 5.019-.985 4.78-.727 4.546-.475 4.317-.232 6.08.094 7.34.913 6.49,1.755 5.698,2.541 4.944,3.27 4.225,3.946 3.54,4.565 2.888,5.13 2.269,5.641 1.682,6.095 1.127,6.493 .607,6.835 .117,7.119-.338,7.346-.76,7.515-1.149,7.625-2.382,11.54-4.22,15.221-5.149,14.582-4.296,10.22-3,6.356-3.081,5.957-3.112,5.464-3.098,4.904-3.035,4.274-1.418,1.802 3.448-1.74-6.321-3.123c-.773-.382-2.256.324-3.314,1.577s-1.288,2.578-.515,2.96l6.321,3.123c.033.016.068.031.104.043 .847.292 2.344-.507 3.343-1.784l1.732-2.222 3.338-4.728 3.318-5.271 3.277-5.769 3.212-6.22 3.128-6.645 4.434-10.578 5.269-14.959 4.296-15.537 2.423-11.77 1.173-7.812 .774-7.706 .341-7.541-.128-7.319-.633-7.038-1.173-6.698-1.751-6.3-2.365-5.841-3.016-5.323-3.702-4.743-4.426-4.103-5.182-3.4-5.974-2.638-6.798-1.815-7.632-.932-6.295-.09-4.495.246-4.726.499-4.961.758-5.199,1.024-5.442,1.298-5.687,1.578-5.916,1.858-3.022,1.028c-.063.021-.126.045-.191.071l-1.597.696-3.029,1.782-3.092,2.388-2.95,2.908-2.511,3.315-1.641,3.453-.41,3.082 .557,1.981 .799,1.136 .487.469c.025.025.053.048.082.069l1.122.789 2.597,1.161 3.119.769 3.571.459 5.963.271 8.693-.052 8.961-.035 6.491.299 4.039.471 3.716.758 3.313,1.102 2.832,1.498 2.314,1.99 .973,1.26-.041-.059 1.27,1.995 2.215,4.026 2.545,6.092 2.085,8.212 .785,8.257-.295,8.271-1.164,8.257-1.821,8.215-2.268,8.14-2.502,8.029-2.516,7.879-2.307,7.686-1.865,7.444-1.18,7.141-.256,6.73 .548,4.746 .778,3.029 1.138,2.891 1.507,2.725 .882,1.279c.476.69 1.852.347 3.072-.767s1.823-2.575 1.346-3.265"/>
 <path d="m84.75,673.334-2.452-.159-4.608.35-4.213,1.256-3.927,2.259-3.558,3.325-2.74,3.974-1.839,4.16-1.164,4.266-.657,4.384-.239,4.48 .291,6.748 1.362,8.729 1.578,5.993 1.244,3.561 .668,1.626c.334.813 1.632.638 2.899-.389s2.022-2.519 1.687-3.331l-.633-1.534-1.198-3.413-1.533-5.772-1.334-8.444-.292-6.455 .205-4.138 .551-3.876 .882-3.454 1.129-2.841 1.229-2.127 1.492-1.695 2.284-1.499 3.237-1.06 4.164-.345 2.454.159c1.008.065 2.503-.943 3.34-2.251s.698-2.422-.309-2.487"/>
 <path d="m97.415,677.916-2.233-.335-4.197.09-3.901,1.151-3.775,2.415-3.314,3.66-2.248,4.117-1.382,4.231-.803,4.387-.398,6.823 .627,9.289 1.14,6.694 .999,4.122 1.136,3.712 1.238,3.212 .653,1.405c.367.786 1.684.574 2.941-.474s1.98-2.534 1.613-3.32l-.606-1.294-1.194-3.085-1.104-3.596-.968-3.974-1.111-6.444-.626-8.913 .344-6.369 .65-3.771 .937-3.159 1.021-2.281 .991-1.524 1.648-1.334 2.726-.938 3.718-.118 2.234.336c.956.143 2.457-.796 3.352-2.098s.848-2.474-.108-2.617"/>
 <path d="m356.219,669.878-1.667.487-3.266,1.301-3.057,1.742-2.792,2.214-2.417,2.643-1.876,2.865-1.75,4.239-1.016,5.769 .076,5.874 .855,5.847 1.379,5.685 .819,2.743c.26.871 1.512.784 2.796-.194s2.113-2.478 1.853-3.349l-.791-2.64-1.34-5.484-.828-5.507-.125-5.241 .706-4.683 1.069-2.909 .836-1.473 1.024-1.29 1.434-1.262 2.01-1.224 2.696-1.102 1.668-.487c1.223-.357 2.595-1.668 3.065-2.928s-.139-1.993-1.361-1.636"/>
 <path d="m371.821,671.054-1.347.127-2.809.68-2.835,1.301-2.751,1.957-2.475,2.498-2.018,2.778-2.172,4.256-1.883,5.983-.976,6.122-.21,5.921 .448,5.392 .454,2.429c.177.932 1.372.942 2.67.022s2.207-2.421 2.03-3.354l-.42-2.182-.44-5.049 .168-5.484 .818-5.45 1.471-4.961 1.457-3.06 .965-1.489 .981-1.162 1.196-1 1.621-.851 2.175-.569 1.348-.127c1.108-.105 2.573-1.248 3.272-2.554 .7-1.305.369-2.279-.738-2.174"/>
 <path d="m403.942,681.232-1.508.213-3.109.924-3.099,1.658-2.927,2.42-2.468,2.959-1.856,3.161-1.333,3.229-.93,3.285-.784,4.969-.111,6.667 .825,6.345 1.169,4.289 1.022,2.528 .587,1.155c.391.766 1.722.525 2.972-.538s1.946-2.545 1.555-3.311l-.525-1.019-.95-2.316-1.109-3.99-.803-5.946 .068-6.171 .668-4.437 .715-2.653 .885-2.302 .963-1.842 .978-1.395 1.173-1.166 1.681-1.036 2.381-.759 1.51-.213c1.136-.16 2.585-1.344 3.237-2.644s.259-2.224-.877-2.064"/>
 <path d="m418.525,682.813-1.402-.065-2.987.349-3.07,1.03-3.044,1.716-2.892,2.339-2.564,2.785-2.137,3.04-1.701,3.168-1.753,4.772-.893,4.842-.076,3.174 .369,2.962 .829,2.747 1.316,2.465 1.83,2.112 1.151.929c.651.518 2.101-.037 3.237-1.24s1.529-2.598.878-3.116l-.957-.745-1.631-1.824-1.179-2.139-.752-2.385-.348-2.56 .018-2.6 .661-3.989 1.342-3.846 1.133-2.229 1.256-1.916 1.334-1.591 1.462-1.32 1.715-1.087 2.042-.778 2.429-.325 1.403.066c1.019.047 2.512-.976 3.335-2.285s.665-2.408-.354-2.456"/>
</svg>
