<?xml version="1.0" encoding="UTF-8"?>
<svg viewBox="0 0 128 128" xmlns="http://www.w3.org/2000/svg">
 <path d="m74.206 25.71c-1.5313 0.41861-2.282 1.0829-3.21 2.0946-3.9764 4.0581-7.3938 10.558-11.18 14.798-5.019-2.5751-10.357-4.201-15.778-4.2437-5.8136-0.04578-15.818 1.9-20.321 6.9368l-0.16322 0.08161c-0.44978 2.9729-0.55096 4.2583-1.0881 6.5287-0.50163-0.40921-0.97169-0.84374-1.4146-1.333-5.7249-6.8338-9.2969-14.703-10.392-23.476l-0.9249-0.65287c-1.162 5.0475-1.4964 9.3828-1.3058 14.907 0.00703 5.4119 1.2587 11.233 4.6789 14.282 1.8111 1.7688 3.746 2.7495 5.9303 3.5908 0.50475 0.03086 1.2202 0.41444 1.7138 0.29923-0.68678 2.3298-1.4162 2.9804-2.6115 5.5494-5.4858 10.123-15.121 31.407 2.1218 35.092 3.5267-0.14926 6.1424-1.0035 8.1881-2.285 0.08784 0.21066 0.90241-0.10144 1.2785-0.10882 2.0548-0.04031 4.1231-0.05803 6.1751-0.16321 7.2707-0.37268 12.345-4.1667 16.839-9.6027 5.2238-5.6114 8.0492-10.489 13.901-8.6234 6.2778 3.4122 11.081 9.3201 16.213 14.254l1.8498-1.1425c-5.4554-4.6985-9.9006-10.801-16.131-14.418-7.0052-2.7693-13.623 6.3529-17.736 10.745-7.2218 8.7321-12.105 6.369-21.518 8.4601 2.592-1.9485 4.1992-4.6976 5.631-7.5896 1.2945 2.1943 3.2234 1.5301 4.8421-1.2785l0.38084-0.43525-2.9379-2.9107c2.4272-4.6347 5.641-8.8532 13.166-10.011 3.7804-0.35951 8.7677-0.90377 12.541-0.62567l0.21762-0.24483c-3.8216-0.18007-7.6281-0.32673-11.452-0.08161-9.6799 1.251-12.998 6.2921-15.669 11.561 0 0-1.598 2.9504-1.5506 3.0739-2.3971 4.7317-5.1931 9.0891-12.677 10.337-17.25-3.5374-7.4917-24.918-1.9042-34.82 1.2546-2.5971 1.599-3.31 2.3667-5.8758 1.1152-0.62956 2.0704-1.5442 2.7475-2.5571 0.36229-0.58714 0.18797-0.95979 0.24483-1.5234 0 0-0.94229-1.0595-1.5778-1.4962 0.22312-0.7819 1.3045-4.7478 2.0674-8.2425 0.03021-0.13838 0.02528 0.10971 0.05441-0.0272l2.4211-1.333c3.5665-2.4094 8.9-3.0817 13.193-3.4276 18.012-1.4512 31.33 10.672 39.88 25.081 4.3873 10.082 11.132 16.879 20.429 22.415l1.333-0.8705c-9.414-5.2752-16.018-12.37-20.62-22.225-4.9307-8.1717-12.509-16.008-21.218-20.865l-0.05441-0.0272c3.0753-4.0378 7.5546-11.408 10.881-15.152 0.17211 0.49388 0.53473 1.0532 0.59847 1.5234 0.80172 5.9122 1.2605 8.3797 1.3874 14.336 0.22858 3.6372 0.44544 6.6993 1.0065 7.5896 2.436-1.1631 8.6082-5.13 11.289-7.6712 2.6512-1.7665 5.0207-4.7383 6.0119-4.9238 0.92686 6.6006-0.37249 17.605-1.2513 24.238-0.01851 0.13974-0.48638 4.2426-0.38084 4.1893 2.6614-1.3461 3.8974-2.4981 5.6582-4.7333 4.5474-5.051 7.5361-10.281 10.582-13.738 2.4324-2.8476 6.1093-5.9744 7.508-5.223 0.31364 1.1856-0.9078 8.7948-2.3667 15.995-2.2333 6.8558-4.5149 20.387-9.0042 26.469-0.15431 0.13967 1.6649-0.58343 1.8226-0.73448 4.0949-6.1854 6.128-18.107 8.2153-24.7 0.9657-3.6861 3.7902-14.683 1.877-18.58-1.7581 0.21142-5.453 2.8519-7.508 5.087-5.487 5.2305-12.011 14.813-13.248 15.832-0.39792 0.4667-1.048 0.8975-1.6594 1.333 0.18732-0.79894 0.33213-1.6048 0.38084-2.1218 0.54041-5.7361 1.0337-11.573 1.2513-17.328 0.03502-0.92664 0.02366-1.8474 0.02721-2.7747-0.3212-2.4578-1.0254-3.8105-1.9586-4.5701-1.3469 0.37161-6.019 5.2017-8.705 7.7257-4.2376 3.4804-8.2372 6.1497-8.1337 1.2241-0.25935-5.3021-0.38273-10.614-0.70728-15.914-0.17433-2.8465-0.23215-5.0362-0.54406-4.951zm-64.39 5.4678c1.8699 7.853 4.0881 13.893 9.4939 20.457 1.291 1.4242 2.8398 2.4929 4.4341 3.5364 0.01482 1.5513-1.5398 3.1191-2.6931 3.1011-2.1795-0.75978-3.8594-0.61024-6.7464-3.1284-3.7098-3.5646-4.6824-9.1363-4.7605-14.309-0.31554-3.3936-0.07019-6.7006 0.27203-9.6571zm36.887 20.702c-1.542-0.0133-3.0636 0.03526-4.5973 0.24483-5.5655 0.94102-10.077 2.8643-12.214 7.6712-0.14196 0.07493-1.6945 6.7209-1.6322 6.7464h0.9249c6.0033 1.7459 12.851-1.6037 16.92-6.0935 1.8392-2.0685 3.5925-5.4889 4.6789-8.0793h-0.0272c-1.3692-0.24995-2.6475-0.47753-4.0532-0.48965zm-1.9042 1.1425c1.4006 0.01341 2.8019 0.12289 4.2981 0.24483-1.0134 2.5371-3.1595 5.4111-5.0054 7.4808-0.96833 1.0586-2.0022 1.9572-3.1012 2.7203-0.09886 0.21745 0.73718-2.9041 0.13602-4.1893-1.9762-3.0201-5.6834-2.7157-8.7322-1.4146 1.7246-2.4504 4.4141-3.8622 8.1065-4.5429 1.4976-0.22999 2.8975-0.31264 4.2981-0.29923zm-12.405 6.8008c2.028 0.10617 4.429 3.6991 1.1697 5.631-1.6641 0.76209-2.3845-0.84901-3.346-1.1153 0.11569-1.1216-0.10563-2.6652 0.48965-3.2644 0.36591-0.92891 1.0106-1.2867 1.6866-1.2513zm4.6789 26.197c0.66134 0.58957 1.8463 1.6444 2.6387 2.1762-0.49972 0.33266-3.0226 1.9944-3.0739 2.0946-0.09169-0.58258-0.40214-1.3074-1.0609-2.1762 0 0 1.3778-1.8519 1.4962-2.0946z"/>
</svg>
