<?xml version="1.0" encoding="UTF-8"?>
<svg viewBox="0 0 329.9046 280.14624" xmlns="http://www.w3.org/2000/svg">
 <g transform="matrix(.62622 0 0 .62622 175.81 -10.293)" fill-rule="evenodd" stroke="#000">
  <path d="m-58.469 17.188c-0.52954-0.00417-1.0719 0.0107-1.625 0.03125-1.4748 0.0548-3.0035 0.18175-4.625 0.4375s-3.3497 0.62951-5.0938 1.125c-4.9405 1.4036-10.287 3.7896-15.562 7.5-8.1618-0.3956-15.413 1.719-21.062 4.875-1.5048 0.8406-2.8985 1.7618-4.1875 2.7188-3.867 2.8707-6.7295 6.1283-8.5312 9.125-1.2012 1.9978-1.9063 3.913-2.0938 5.4688-0.04829 0.40091-0.08414 0.76909-0.0625 1.125-9.3585 3.2078-15.465 11.702-15.875 21.125 0.29308-0.17539 0.5823-0.36707 0.875-0.53125 0.02055 0.07262 0.04494 4.4673 0.0625 6.5625-0.10478 0.12492-0.20828 0.24956-0.3125 0.375-0.50215-2.1464-0.71658-4.301-0.625-6.4062-10.559 6.3186-21.334 19.832-29.594 36.406 7.0174 36.497 2.0046 67.769 9.25 98.438-32.627 19.892-41.455 37.589-68.312 63.25l6.7188-0.25c26.769-23.033 35.929-37.675 68.531-54.875l3.5625-1.5312 3.6562 8.8438c0.3276 2.9015 8.6875 16.031 8.6875 16.031l-1.0625 14.531c-0.19154 5.6226-1.1523 10.682-2.625 15.375l-4.125-2.8125-9.4375 13.812-0.40625-0.25-70.438 83.531-57.219 93.714c51.556-7.6906 0.84828-69.407 198.34 0 47.22 16.635 94.44 3.0228 141.66 0l-37.062-56.027-11.031-9.6875 19.5-37.531-17-1.1562c-1.2391-5.3238 5.498-10.645 10-15.969 23.949 8.5904 37.955 12.583 60.312 11.375 10.865-0.66807 13.922-0.32677 21.219-9.3125 3.052-4.3609 8.0569-9.7046 6.6875-18.281l-6.1562-18.594c0.44743-9.0652 4.5349-13.281 8.125-18.156l-3.875-6 4.6875-5.0625c-3.5124-6.1162-7.7787-10.784-5.5625-27.688l28.031-3.0312c5.3551-2.7048 8.1646-2.4696 7.2188-9.375l-28.5-44.188c-3.4831-4.767-10.236-7.1715-13.719-13.875l6.9688-11.344-5.4688-21.781-1-2.9062c39.291 6.5726 78.584 11.261 117.88 20.594l3.4688-4.625c-36.655-10.461-77.517-16.711-117-24.344-11.569-38.806-35.021-68.92-55.094-101.56l-36.438-8.5625c-11.489 2.9576-22.894 0.75285-34.219 2.5625-3.6939-2.1177-7.974-3.2254-12.375-3.0938-2.0005 0.05982-4.0202 0.37401-6.0312 0.96875-3.5092 0.73926-6.7645 1.4789-9.9062 2.2188-0.75064-0.63285-1.7442-1.225-2.9688-1.7188-2.3305-0.93968-5.4495-1.5646-9.1562-1.5938zm-1.0625 0.96875c3.5296 0.03417 6.5705 0.62727 8.8125 1.5312 0.95387 0.3846 1.7345 0.84212 2.375 1.3125-7.0124 1.6922-13.237 3.3717-18.688 5.0625-2.8455-1.7313-9.0922-1.7321-15.844 0.25l-0.4375 0.125-0.4375-0.03125c-0.10893-0.00962-0.23514 0.00872-0.34375 0 4.907-3.4063 9.6782-5.6019 14.156-6.8438 1.531-0.42458 3.0466-0.70826 4.5-0.9375 1.5123-0.23853 2.9784-0.38713 4.375-0.4375 0.52374-0.01889 1.027-0.03613 1.5312-0.03125zm-28.812 9.0625c0.54358-0.00488 1.1-0.01857 1.6562 0l-0.40625 0.3125 0.5625 0.03125c-6.6057 2.6518-10.968 6.5669-10.125 9.4375 0.02455 0.08363 0.05764 0.17107 0.09375 0.25l-1 0.9375c-7.3187 3.5634-14.004 7.1253-22 10.688-0.0011-0.22144 0.00215-0.44595 0.03125-0.6875 0.1745-1.4486 0.87569-3.2031 2.0312-5.125 1.7333-2.8829 4.4964-6.0578 8.1562-8.7812 1.22-0.90782 2.5653-1.7785 3.9688-2.5625 2.0232-1.1302 4.1917-2.1231 6.5625-2.875 3.1721-1.006 6.6637-1.5908 10.469-1.625z" stroke-width="1.5"/>
  <path d="m110.75 269.81-1.093 6.9478c9.3183 5.0143 19.059 8.7826 27.482 16.488 5.0345 8.4824 9.8926 17.16 4.4289 38.063-2.7607 25.975-1.4841 47.904 5.5109 64.112 8.1853 19.758 24.93 29.799 43.727 31.806 13.58 4.5182 31.722-13.186 41.264-41.864 0.76741-2.3066 1.4498-4.5903 2.0516-6.8594 2.8426-0.30097 5.387-2.2341 6.3513-5.1324l4.5677-13.729c1.3168-3.9577-0.81081-8.2069-4.7686-9.5237-14.649-7.316-29.297-12.188-43.944-14.62-3.9577-1.3168-8.2069 0.81081-9.5237 4.7686l-4.5677 13.729c-1.0984 3.3015 0.19195 6.82 2.9498 8.6551-0.82112 2.0588-1.5858 4.1724-2.3088 6.3456-2.3595 7.0918-3.9306 14.079-4.7614 20.646-26.859-26.273-14.122-66.803-33.293-104.84l-3.6881-3.7983-30.384-11.193z" stroke-width="1.2705"/>
 </g>
</svg>
