<?xml version="1.0" encoding="UTF-8"?>
<svg viewBox="0 0 600 500" xmlns="http://www.w3.org/2000/svg" xmlns:xlink="http://www.w3.org/1999/xlink">
 <defs>
  <linearGradient id="a">
   <stop stop-color="#fff" offset="0"/>
   <stop stop-color="#fff" stop-opacity="0" offset="1"/>
  </linearGradient>
  <linearGradient id="i" x1="17.781" x2="580.79" gradientUnits="userSpaceOnUse">
   <stop offset="0"/>
   <stop stop-opacity="0" offset="1"/>
  </linearGradient>
  <linearGradient id="m" x1="425.59" x2="513.41" y1="681.71" y2="757.02" gradientUnits="userSpaceOnUse" xlink:href="#a"/>
  <linearGradient id="l" x1="303.5" x2="476.24" y1="348.32" y2="410.23" gradientTransform="matrix(.87268,0,0,1.1459,-40,390)" gradientUnits="userSpaceOnUse" xlink:href="#a"/>
  <linearGradient id="k" x1="381.14" x2="347.14" y1="960.76" y2="880.51" gradientUnits="userSpaceOnUse" xlink:href="#a"/>
  <linearGradient id="j" x1="293.22" x2="345.35" gradientUnits="userSpaceOnUse" xlink:href="#a"/>
  <linearGradient id="h" x1="209.22" x2="252.79" y1="659.55" y2="264.19" gradientTransform="matrix(1.1687 0 0 .85566 -40 390)" gradientUnits="userSpaceOnUse" xlink:href="#a"/>
  <radialGradient id="g" cx="531.43" cy="506.33" r="108.23" gradientTransform="matrix(.78472 0 0 1.2743 -40 390)" gradientUnits="userSpaceOnUse" xlink:href="#a"/>
  <radialGradient id="f" cx="481.53" cy="1023.8" r="77.992" gradientUnits="userSpaceOnUse" xlink:href="#a"/>
  <radialGradient id="e" cx="624.65" cy="441.44" r="27.869" gradientTransform="matrix(.77982 0 0 1.2824 -40.714 390)" gradientUnits="userSpaceOnUse" xlink:href="#a"/>
  <radialGradient id="d" cx="448.57" cy="511.94" r="13.252" gradientTransform="matrix(.90574 0 0 1.1041 -40 390)" gradientUnits="userSpaceOnUse" xlink:href="#a"/>
  <radialGradient id="c" cx="542.82" cy="837.6" r="46.658" gradientTransform="matrix(1.7716 1.3521e-7 -2.1294e-7 2.7902 -418.82 -1502.1)" gradientUnits="userSpaceOnUse" xlink:href="#a"/>
  <radialGradient id="b" cx="313.39" cy="155.03" r="495.33" gradientTransform="matrix(.40674 -.04085 .0601 .59831 154.14 537.72)" gradientUnits="userSpaceOnUse" xlink:href="#a"/>
 </defs>
 <g transform="translate(0 -552.36)">
  <path d="m327.7 833.24s18.183-14.489 33.335-25.254c13.02-9.2504 33.843-22.052 46.007-37.967 13.249-17.335 42.917-91.332 93.221-92.169 30.367-0.51994 30.478 12.959 30.478 12.959l36.365-7.0711s10.986-0.37039 5.2718 2.4868-37.857 12.143-37.857 12.143l41.429-7.8571s8.5714 1.4286 2.8571 4.2857-43.571 10-44.286 12.143 10-3.5714 10-3.5714-17.857 32.143-14.286 49.286 20.405 48.669 5 82.857c-21.291 47.25-70.788 82.439-94.022 93.551s-76.976 18.737-93.31 11.255c-17.014-7.7928-13.01-35.274-20.081-22.142s-64.65 70.711-64.65 70.711l17.488-26.784 5.9594-34.453 16.999-34.728s-4.8767-10.382-16.238-15.688c-11.526-5.3824-13.579 0.35817-19.208-12.678-1.4918-3.4548-9.8128-9.2439-12.674-11.899-6.6874-6.2062-16.908-13.757-15.386-20.079 2.2615-9.3991-7.3669-32.672-7.3669-32.672l-202.03-167.69s-20.203-10.102-8.0812-14.142 16.162 0 16.162 0l20.203-22.223s-2.0203-2.0203 6.0609 4.0406 18.183-22.223 18.183-22.223l159.6 165.67s-18.449-36.59-10.837-37.069c4.5086-0.28412 22.959 47.171 22.959 47.171s13.385 14.663 22.111 21.52c11.445 8.9929 30.329 30.22 36.008 36.978 5.5051 6.5508 14.611 21.304 14.611 21.304z" fill="#dfdfdf" fill-rule="evenodd" stroke="#000"/>
  <path d="m327.22 832.32s18.183-14.489 33.335-25.254c13.02-9.2504 33.843-22.052 46.007-37.967 13.249-17.335 42.917-91.332 93.221-92.169 30.367-0.51994 30.478 12.959 30.478 12.959l36.365-7.0711s10.986-0.37039 5.2718 2.4868-37.857 12.143-37.857 12.143l41.429-7.8571s8.5714 1.4286 2.8571 4.2857-43.571 10-44.286 12.143 10-3.5714 10-3.5714-17.857 32.143-14.286 49.286 20.405 48.669 5 82.857c-21.291 47.25-70.788 82.439-94.022 93.551s-76.976 18.737-93.31 11.255c-17.014-7.7928-13.01-35.274-20.081-22.142s-64.65 70.711-64.65 70.711l17.488-26.784 5.9594-34.453 16.999-34.728s-4.8767-10.382-16.238-15.688c-11.526-5.3824-13.579 0.35817-19.208-12.678-1.4918-3.4548-9.8128-9.2439-12.674-11.899-6.6874-6.2062-16.908-13.757-15.386-20.079 2.2615-9.3991-7.3669-32.672-7.3669-32.672l-202.03-167.69s-20.203-10.102-8.0812-14.142 16.162 0 16.162 0l20.203-22.223s-2.0203-2.0203 6.0609 4.0406 18.183-22.223 18.183-22.223l159.6 165.67s-18.449-36.59-10.837-37.069c4.5086-0.28412 22.959 47.171 22.959 47.171s13.385 14.663 22.111 21.52c11.445 8.9929 30.329 30.22 36.008 36.978 5.5051 6.5508 14.611 21.304 14.611 21.304z" fill="url(#h)" fill-rule="evenodd" stroke="url(#i)"/>
  <path d="m331.29 923.72c2.0704-5.4737-43.159 62.184-36.932 65.895 3.1137 1.855 20.858-20.698 22.89-28.275s20.25-25.783 27.658-24.029c0 0-15.585-8.384-13.616-13.591z" fill-rule="evenodd" stroke="#000"/>
  <path d="m331.24 922.38c2.0704-5.4737-43.159 62.184-36.932 65.895 3.1137 1.855 20.858-20.698 22.89-28.275s20.25-25.783 27.658-24.029c0 0-15.585-8.384-13.616-13.591z" fill="url(#j)" fill-rule="evenodd" stroke="#000"/>
  <path d="m331.23 923.14c2.0704-5.4737-44.351 59.898-35.86 67.68 12.122 11.112 42.761-51.996 57.579-48.487 0 0-23.688-13.986-21.718-19.193z" fill="none" stroke="#000"/>
  <path d="m457.28 920.83s-6.847 21.674-8.2756 27.388 6.25 4.4643 5 10-5.5917 12.709-12.02 11.638-16.551-7.3521-13.694-15.923 6.4286-23.571 6.4286-23.571l22.561-9.5308z" fill="#dfdfdf" fill-rule="evenodd" stroke="#000"/>
  <path d="m377.56 941.7c-0.5789 0-2.0974 14.949-0.41842 22.092 1.7603 7.489-18.571 10.571-21.429 2-2.4846-7.454-2.1429-22-2.1429-22l23.99-2.0921z" fill="#dfdfdf" fill-rule="evenodd" stroke="#000"/>
  <path d="m492.35 996.38s-2.8302-1.1084-4.5457-2.0203-1.0102-0.78168-2.3162-1.6273-1.5942-1.1404-2.9079-1.7551-1.903-2.9309-3.0611-4.0073-3.1287-2.5919-4.4284-2.9771-3.0917-3.2957-3.0917-3.2957-0.12735-0.49502-2.4002-1.7577-1.4662-0.13304-4.459-1.5966-5.1131-3.5001-7.5122-4.2577-4.6735-2.9692-4.6735-2.9692l-4.5457-1.0102 6.566-10.102s4.2319 0.63135 6.5047 2.5254 2.2041 2.7689 4.7295 4.1579 4.14 2.6722 5.9077 3.8087 3.0933 3.4042 5.4491 5.3799 2.7663 1.0765 5.0455 3.3263 5.0534 5.8517 5.0534 5.8517 3.0801 1.6251 5.7318 3.8979 4.7855 4.5684 4.7855 4.5684 2.4118 2.3278 4.3058 4.2218 1.4846 1.8365 1.4846 1.8365l2.5201 3.357s3.3103 5.4329 3.227 9.9497c-0.14532 7.8799-5.3741 12.366-5.5738 12.195-0.68017-0.5829 2.6375-4.29 2.6269-10.475s0.0938-5.5664-1.173-5.7261c-0.84022-0.1059-2.2266 5.3684-2.0094 7.2313 0.52476 4.5029-3.4282 8.7101-4.322 8.4033-1.4485 0.2235 2.2851-1.3039 2.2882-8.7128 4e-3 -6.6058-0.0175-8.08-1.2474-7.9293-1.4859 0.182-1.9515 6.4569-2.2762 12.616s-2.8302 3.3627-3.753 3.0812c-1.0848-0.331 2.2855 2.7922 1.9984-3.8232s-0.39232-13.148-0.39232-13.148-3.0305-1.2627-3.0305-4.7982-0.50508-4.4195-0.50508-4.4195" fill="#828f85" fill-rule="evenodd" stroke="#000"/>
  <path d="m391.22 1009.7s-2.2804-2.0095-3.5806-3.4531-0.68189-1.0801-1.6199-2.3214-1.1081-1.6168-2.1323-2.6438-0.7858-3.405-1.5059-4.8126-2.0535-3.5057-3.1431-4.3121-1.7781-4.1544-1.7781-4.1544 0.0497-0.50872-1.6543-2.4726-1.3323-0.6265-3.644-3.0254-3.6077-5.0378-5.603-6.5703-3.3761-4.3886-3.3761-4.3886l-3.926-2.504s8.7428 2.6512 14.159-1.2202c5.7738-4.1268 1.8385 1.9272 3.7365 4.0962s2.9764 3.927 4.2488 5.5995 1.7424 4.2569 3.2804 6.9191 2.2313 1.9577 3.6036 4.8514 2.7472 7.2272 2.7472 7.2272 2.3386 2.5806 4.0529 5.6232 2.9344 5.9297 2.9344 5.9297 1.4702 3.0122 2.6022 5.4399 0.76693 2.2335 0.76693 2.2335l1.22 4.0164s1.2524 6.2375-0.37064 10.453c-2.8317 7.355-8.5651 8.175-8.6942 7.9459-0.43983-0.7803 3.2314-1.5221 5.3368-7.3376s1.992-5.1985 0.8562-5.7819c-0.75334-0.3869-3.9284 4.2831-4.3615 6.108-1.047 4.4108-6.2004 7.0122-6.9354 6.4183-1.4376-0.2855 2.5932-0.4437 5.1301-7.4047 2.2628-6.2063 2.7471-7.5988 1.5399-7.8778-1.4586-0.3372-2.6136 2.5429-5.0253 8.2193s-5.2382 5.0491-6.009 4.4689c-0.90613-0.6821 2.0855 1.7984 4.0783-4.5163s3.2354-10.882 3.2354-10.882-2.4158-2.223-1.2066-5.5453 1.0369-4.3257 1.0369-4.3257" fill="#828f85" fill-rule="evenodd" stroke="#000"/>
  <path d="m334.4 828.17c13.02-9.2504 61.117-42.255 73.281-58.17 13.249-17.335 42.917-91.332 93.221-92.169 30.367-0.51994 30.478 12.959 30.478 12.959l36.365-7.0711s10.986-0.37039 5.2718 2.4868-37.857 12.143-37.857 12.143l41.429-7.8571s8.5714 1.4286 2.8571 4.2857-43.571 10-44.286 12.143 10-3.5714 10-3.5714-17.857 32.143-14.286 49.286 20.405 48.669 5 82.857c-21.291 47.25-67.758 36.982-79.88 12.739-11.518-23.035 0.47533-43.581 12.756-75.618 13.845-36.119-46.322 16.855-54.426 29.376-8.4996 13.132-54.409 64.952-66.773 60.406-14.159-5.2056-67.088 85.669-67.088 85.669s38.785-109.13 53.938-119.89z" fill-rule="evenodd" stroke="#000"/>
  <path d="m327.08 832.66s44.814-37.873 33.335-23.254l-49.416 62.934s-2.9431-8.9177-14.305-14.223c-11.526-5.3824-22.655-1.1063-28.284-14.142-4.979-11.53-22.375-17.237-20.203-26.264 2.2615-9.3991-16.081-18.386-16.081-18.386l-194.03-173.69s-28.203-4.1015-16.081-8.1421 15.668-1.1506 21.877-3.5714c3.1044-1.2104 206.22 163.28 206.41 162.36s-204.97-167.21-204.97-167.21l5.8517-6.1042 8.6222-7.6987s210.99 195.21 213 195.46-213.67-207.54-203.8-192.85c5.6339 8.3845 13.611-20.795 13.611-20.795l159.6 165.67s0.99657 1.5437-10.332-35.807c-1.3112-4.3231 22.959 47.171 22.959 47.171s12.88 13.4 21.606 20.257c11.445 8.9929 30.329 30.22 36.008 36.978 5.5051 6.5508 14.611 21.304 14.611 21.304z" fill-rule="evenodd" stroke="#000"/>
  <path d="m252.59 1003s57.806-93.658 66.55-99.372c6.765-4.4206 16.286-6.4286 27.714-9.2857s50.768-43.014 52.857-52.714c1.881-8.7349 45-40.143 45-40.143s0 32.143-7.1428 43.571c-6.9805 11.169-138.17 118.4-146.43 126.43-9.2498 8.9898-25.678 16.276-38.55 31.515z" fill-rule="evenodd" stroke="#000"/>
  <path transform="translate(95.36 402.12)" d="m420.22 297.78a7.5761 7.0711 0 1 1 -15.152 0 7.5761 7.0711 0 1 1 15.152 0z" fill="#fff"/>
  <path d="m530.65 753.48c4.9445 16.798 20.405 48.669 5 82.857-21.291 47.25-67.168 36.678-79.88 12.739-12.232-23.035-3.6343-30.56 12.756-75.618 16.85-46.322 51.828-54.957 62.124-19.978z" fill="url(#c)" fill-rule="evenodd" opacity=".62766" stroke="#000"/>
  <path d="m405.32 770.85c13.249-17.335 42.917-91.332 93.221-92.169 30.367-0.51994 30.478 12.959 30.478 12.959l3.7802 7.5585s0.71428 6.4286 0 8.5714-76.886 13.836-120.84 95.068c-7.4436 13.758-18.807-16.073-6.6432-31.988z" fill="url(#m)" fill-rule="evenodd" stroke="#000"/>
  <path d="m333.46 828.31c13.02-9.2504 68.544-72.416 66.852-52.456-2.4657 29.093 4.0331 28.753 13.072 26.273 15.085-4.1376-54.409 64.952-66.773 60.406-14.159-5.2056-67.088 85.669-67.088 85.669s38.785-109.13 53.938-119.89z" fill="url(#l)" fill-rule="evenodd"/>
  <path d="m251.08 1005.3s57.806-93.658 66.55-99.372c6.765-4.4206 16.286-6.4286 27.714-9.2857s50.768-43.014 52.857-52.714c1.881-8.7349 45-40.143 45-40.143s0 32.143-7.1428 43.571c-6.9805 11.169-138.17 118.4-146.43 126.43-9.2498 8.9898-25.678 16.276-38.55 31.515z" fill="url(#k)" fill-rule="evenodd" stroke="#000"/>
  <path d="m326.44 831.73s44.814-37.873 33.335-23.254l-49.416 62.934s-2.9431-8.9177-14.305-14.223c-11.526-5.3824-22.655-1.1063-28.284-14.142-4.979-11.53-22.375-17.237-20.203-26.264 2.2615-9.3991-16.081-18.386-16.081-18.386l-194.03-173.69s-28.203-4.1015-16.081-8.1421 15.668-1.1506 21.877-3.5714c3.1044-1.2104 206.22 163.28 206.41 162.36s-204.97-167.21-204.97-167.21l5.8517-6.1042 8.6222-7.6987s210.99 195.21 213 195.46-213.67-207.54-203.8-192.85c5.6339 8.3845 13.611-20.795 13.611-20.795l159.6 165.67s0.99657 1.5437-10.332-35.807c-1.3112-4.3231 22.959 47.171 22.959 47.171s12.88 13.4 21.606 20.257c11.445 8.9929 30.329 30.22 36.008 36.978 5.5051 6.5508 14.611 21.304 14.611 21.304z" fill="url(#b)" fill-rule="evenodd" stroke="#000"/>
  <path d="m390.77 1009.8s-2.2804-2.0096-3.5806-3.4532-0.68189-1.08-1.6199-2.3213-1.1081-1.6168-2.1323-2.6438-0.7858-3.405-1.5059-4.8126-2.0535-3.5057-3.1431-4.3121-1.7781-4.1544-1.7781-4.1544 0.0497-0.50872-1.6543-2.4726-1.3323-0.6265-3.644-3.0254-3.6077-5.0378-5.603-6.5703-3.3761-4.3886-3.3761-4.3886l-3.926-2.504s8.7428 2.6512 14.159-1.2202c5.7738-4.1268 1.8385 1.9272 3.7365 4.0962s2.9764 3.927 4.2488 5.5995 1.7424 4.2569 3.2804 6.9191 2.2313 1.9577 3.6036 4.8514 2.7472 7.2272 2.7472 7.2272 2.3386 2.5806 4.0529 5.6232 2.9344 5.9297 2.9344 5.9297 1.4702 3.0122 2.6022 5.4399 0.76693 2.2335 0.76693 2.2335l1.22 4.0164s1.2524 6.2375-0.37064 10.453c-2.8317 7.355-8.5651 8.1749-8.6942 7.9459-0.43983-0.7803 3.2314-1.5221 5.3368-7.3376s1.992-5.1985 0.8562-5.7819c-0.75334-0.3869-3.9284 4.2831-4.3615 6.1079-1.047 4.4109-6.2004 7.0123-6.9354 6.4184-1.4376-0.2855 2.5932-0.4437 5.1301-7.4048 2.2628-6.2062 2.7471-7.5987 1.5399-7.8778-1.4586-0.3371-2.6136 2.543-5.0253 8.2194s-5.2382 5.049-6.009 4.4689c-0.90613-0.6821 2.0855 1.7984 4.0783-4.5163s3.2354-10.882 3.2354-10.882-2.4158-2.223-1.2066-5.5453 1.0369-4.3257 1.0369-4.3257" fill="url(#g)" fill-rule="evenodd" stroke="#000"/>
  <path d="m491.86 996.48s-2.8302-1.1084-4.5457-2.0203-1.0102-0.78168-2.3162-1.6273-1.5942-1.1404-2.9079-1.7551-1.903-2.9309-3.0611-4.0073-3.1287-2.5919-4.4284-2.9771-3.0917-3.2957-3.0917-3.2957-0.12735-0.49502-2.4002-1.7577-1.4662-0.13304-4.459-1.5966-5.1131-3.5001-7.5122-4.2577-4.6735-2.9692-4.6735-2.9692l-4.5457-1.0102 6.566-10.102s4.2319 0.63135 6.5047 2.5254 2.2041 2.7689 4.7295 4.1579 4.14 2.6722 5.9077 3.8087 3.0933 3.4042 5.4491 5.3799 2.7663 1.0765 5.0455 3.3263 5.0534 5.8517 5.0534 5.8517 3.0801 1.6251 5.7318 3.8979 4.7855 4.5684 4.7855 4.5684 2.4118 2.3278 4.3058 4.2218 1.4846 1.8365 1.4846 1.8365l2.5201 3.357s3.3103 5.433 3.227 9.9497c-0.14532 7.8799-5.3741 12.366-5.5738 12.195-0.68017-0.5828 2.6375-4.29 2.6269-10.475s0.0938-5.5664-1.173-5.7261c-0.84022-0.1059-2.2266 5.3684-2.0094 7.2314 0.52476 4.5029-3.4282 8.71-4.322 8.4032-1.4485 0.2235 2.2851-1.3038 2.2882-8.7127 4e-3 -6.6059-0.0175-8.0801-1.2474-7.9294-1.4859 0.1821-1.9515 6.4569-2.2762 12.616s-2.8302 3.3627-3.753 3.0812c-1.0848-0.331 2.2855 2.7922 1.9984-3.8232s-0.39232-13.148-0.39232-13.148-3.0305-1.2627-3.0305-4.7982-0.50508-4.4194-0.50508-4.4194" fill="url(#f)" fill-rule="evenodd" stroke="#000"/>
  <path d="m456.17 919.94s-6.847 21.674-8.2756 27.388 6.25 4.4643 5 10-5.5917 12.709-12.02 11.638-16.551-7.3521-13.694-15.923 6.4286-23.571 6.4286-23.571l22.561-9.5308z" fill="url(#e)" fill-rule="evenodd"/>
  <path d="m378.29 940.59c-0.5789 0-2.0974 14.949-0.41842 22.092 1.7603 7.489-18.571 10.571-21.429 2-2.4846-7.454-2.1429-22-2.1429-22l23.99-2.0921z" fill="url(#d)" fill-rule="evenodd"/>
 </g>
</svg>
