<?xml version="1.0" encoding="UTF-8"?>
<svg viewBox="0 0 744.09447 1052.362179" xmlns="http://www.w3.org/2000/svg">
 <path d="m431.5 441.95c-65.604 12.709-131.91 50.369-178.07 78.492 68.672-70.45 139.97-78.659 178.07-78.492z"/>
 <path d="m54.561 518.91c-62.605 83.868 59.182 256.51 100.21 331.85 51.405 121.6 124.66 132.36 210.63 42.492 1.4261-1.7716 2.9091-3.4968 4.4128-5.2029 95.615-81.237 260.66-158.28 214.61-313.68-0.03911-0.13582-0.03405-0.27802-0.03556-0.4179 6.4565-6.9391 8.0737 5.4054 10.266 10.431 0.62576 1.2325 1.2651 2.4579 1.876 3.6978 0.64125 1.3062 1.2791 2.6145 1.9316 3.9148 0.64594 1.3689 1.2687 2.7473 1.8335 4.1521 34.566 156.23-142.83 215.41-225.96 290-1.5242 1.6981-3.0081 3.4298-4.453 5.196-1.2768 1.5547-2.517 3.1386-3.7294 4.7441-1.084 1.4457-2.1548 2.9015-3.1697 4.3969-91.232 99.332-178.34 56.382-211.34-48.001-30.235-109.74-135.21-194.61-100.34-325.24-0.2193-0.3739-0.55053 0.71714 3.2581-8.3323z"/>
 <path d="m53.588 516.43c-8.5519-44.807-22.116-62.871-26.218-84.831 6.7313-15.179 26.964-32.036 42.265-52.135 18.929-24.032 33.633-71.563 56.334-102.82-10.958 46.058-41.328 83.67-52.609 101.22-61.102 64.366-19.413 77.643-16.663 137.22l-3.1083 1.351z"/>
 <path d="m412.93 841.77c0.71713-0.73462 1.467-1.4363 2.2037-2.1513 0.87238-0.90486 1.7391-1.8043 2.6952-2.6215l0.54107-0.22592c-0.53613 0.86713-1.3033 1.5425-1.9598 2.3155-0.62328 0.70962-1.2618 1.4079-1.955 2.0504l-1.5252 0.6329z"/>
 <path d="m183.71 516.45c-20.798 0.71107-82.095-51.128-125.06-48.077 28.717-18.469 92.076 23.282 125.06 48.077z"/>
 <path d="m410.46 452.49c5.914 97.885-93.492 147.21-151.67 64.455 69.46 49.625 121.45 33.537 151.67-64.455z"/>
 <path d="m176.79893,516.92952c-.14402.87566-.34566,1.73749-.61507,2.58271-.36016,1.0305-.76627,2.04507-1.18544,3.05282-27.42032,75.25167-134.04536,38.01517-106.35454-54.69124 .03421-.15581.05157-.31457.06884-.4718-.00216-.16275-.01569-.19048.12119-.30808l.81542-.45199c.19127-.05525.17778-.00817.25048.14801 .01301.14773.028.29543.02593.44399 .03306.18425.05362.34783.21362.47005 .26496.17937.55768.2071.8771.22816-14.82323,48.09366 32.34706,129.79814 105.78247,48.99737z"/>
 <path d="m168.64 614.79c-0.82318 1.6894-1.5474 3.4242-2.2881 5.1506-1.1597 2.7026-2.3247 5.4029-3.489 8.1035-34.66 93.128-36.303 96.209 54.905 116.76l-14.935 3.4858c-20.225 0.70523-42.531-12.318-67.576-30.744-1.3259-34.576 13.119-61.37 24.57-88.107 1.1516-2.6917 2.3147-5.3786 3.4425-8.0803 0.71729-1.7136 1.4197-3.4346 2.1838-5.1279l3.1872-1.441z"/>
 <path d="m165.82 791.87c3.4953 0.22482 6.9718 0.64797 10.466 0.9037 110.14-2.7156 189.62-37.612 250.25-118.76 4.3122-5.8961 21.185-25.429 9.8155-6.9261-60.954 83.159-135.19 139.35-271.73 128.74 24.535 5.5926-2.3376-0.27323-3.4003-0.78133l4.5953-3.1754z"/>
 <path d="m137.06 715.33c4.998-0.11812 44.492-0.17515 72.324 3.9597s30.674 9.8053 30.674 9.8053c-25.027 9.3178-77.097 18.044-103-13.765z" fill-rule="evenodd" opacity=".334" stroke="#000"/>
 <path d="m192.72 841.04c52.765-13.727 79.939-2.2611 117.21 28.6-46.985-64.436-104.65-57.293-117.21-28.6z" fill-rule="evenodd" opacity=".3968" stroke="#000"/>
 <path d="m58.58 449.57c-6.2177-14.117-9.2683-46.912 20.106-53.427 46.725 31.111 81.751 70.038 112.92 120.04 0 0-80.356-85.653-110.72-93.791-12.392-3.3208-24.999 6.7995-22.309 27.176z" fill-rule="evenodd" stroke="#000"/>
 <path d="m445.8 431c13.909-21.082 14.206-53.205-29.614-60.541-68.819 35.253-120.41 79.364-166.32 136.02 0 0 118.36-97.057 163.08-106.28 18.251-3.7629 35.252 11.692 32.859 30.794z" fill-rule="evenodd" stroke="#000"/>
 <path transform="matrix(2.0658 1.2214 -1.2302 2.0806 336.29 -808.62)" d="m221.36 505.53a15.762 15.762 0 1 1 -31.513 -0.59496" fill-rule="evenodd" stroke="#000" stroke-width=".4152"/>
 <path transform="matrix(2.4569 -1.2453 1.253 2.4766 -792.94 -528.2)" d="m221.36 505.53a15.762 15.762 0 1 1 -31.513 -0.59496" fill-rule="evenodd" stroke="#000" stroke-width=".36167"/>
 <path d="m614.88 523.22c-27.365-38.416-6.1122-76.977-1.4398-120.95-1.0403-9.2982-1.271-24.91-9.6939-22.831-7.6915 3.0464-8.5944 3.9799 0.30795-1.0903-32.681 21.3-44.501 50.723-55.602 75.59-4.1563 9.063-7.4294 12.62-2.0276 0.92132 7.3858-39.702 22.793-62.352 57.624-86.305 37.576 5.0196-19.631 118.34 19.41 155.24 24.332 35.086 19.527 97.738-34.959 52.334-0.77361-0.98926-1.4784-2.0316-1.996-3.1809 44.99 18.806 51.01-20.728 28.377-49.73z"/>
 <path d="m415.29 838.95c0.85457-0.6615 1.6978-1.3372 2.5373-2.0177 13.748-11.115 27.24-22.487 40.143-34.578l0.83457-0.34499c-1.396 1.4635-2.805 2.9138-4.2175 4.3613-10.52 10.52-22.139 19.869-33.626 29.303-0.8925 0.71802-1.7783 1.4458-2.7178 2.1026l-2.9533 1.1745z"/>
 <path d="m121.77 277.17c-31.299-34.785-50.404-103.48-62.636-131.1 539.06-155.49 877.49 98.655 541.37 485.23-17.822 20.498 3.1144-13.025-9.4438-58.21 56.173 50.024 49.777-20.597 25.327-52.677-31.822-26.675 29.806-176.82-30.263-138.55-42.775 75.14-53.482 101.58-30.263 169.98 3.8634 6.1973-69.326 46.922-69.326 46.922 95.948-273.91 61.548-387.9-253.05-263.05-26.407-35.079-43.583-26.331-111.72-58.542z" fill-rule="evenodd" stroke="#000"/>
 <path d="m595.57 539.18c-6.0012-16.613-17.237-95.133-20.927-24.808-3.5533 37.884 21.457-15.624 15.575 24.936-0.03726 0.61532-0.13735 1.2235-0.21973 1.8337-1.2965 6.1927-2.9863 12.318-4.6234 18.431-10.97 10.115-1.9073-14.033-0.40308-19.365 1.2683-12.408-6.0414-6.6471-12.166-4.8652-0.43674-0.01026-0.72128-0.17747-0.93462-0.56592-0.20302-0.41633-0.42468-0.8285-0.52359-1.2855-0.39173-5.7834-0.04693-11.612-0.05062-17.414 0.01529-5.8747 0.05031-11.753 0.33426-17.622 0.07087-1.1686 0.13171-2.3376 0.20087-3.5064 0.91138-16.496 8.0704-55.818 23.017-64.277-17.948 34.429-8.5497 58.945 4.1323 108.92-13.458 19.239-4.0881 5.9908-3.411-0.41695z"/>
 <path d="m577.39 530.52c-2.0109-1.0173-5.4637-0.7434-5.1222-6.9254s0.7209-12.833 1.4418-17.137-0.91061-11.151 1.2521-13.772-0.7209-5.4777 4.0977 1.0955 7.0952 13.616 7.5505 19.172-0.03794 11.777-0.03794 11.777l-9.182 5.7907z" fill-rule="evenodd" opacity=".31" stroke="#000"/>
 <path d="m235.9 326.34c0.35927-1.0136 0.54499-2.069 0.71783-3.1269 0.21436-1.2866 0.36459-2.5812 0.39208-3.8852-0.01432-1.5018-0.24043-2.9834-0.55277-4.4486-0.34963-1.6359-0.82749-3.233-1.4116-4.7988-0.60539-1.767-1.3858-3.4587-2.1911-5.141-0.88898-1.7878-1.8058-3.5614-2.7115-5.3408-0.99749-1.9217-1.977-3.852-3.0053-5.7576-1.0438-1.9886-2.018-4.0127-3.02-6.0227-0.99621-1.9992-1.9206-4.0256-2.7708-6.0906-0.89757-2.09-1.4927-4.2835-2.0543-6.4814-0.51553-2.1831-0.85215-4.3958-1.0298-6.63-0.16687-2.1866-0.13043-4.383 0.00875-6.5696 0.17724-2.1965 0.63528-4.34 1.2667-6.446 0.68339-2.1765 1.6397-4.2501 2.7121-6.2588 1.0973-2.0876 2.4486-4.0161 3.8924-5.8747 1.5348-1.8056 2.9035-3.7379 4.2917-5.6554 1.1866-1.5738 2.4682-3.0746 3.8728-4.4564l0.87859-0.37314c-0.83146 1.3909-1.9404 2.5952-2.7926 3.9778-1.0603 1.5683-2.0759 3.1685-2.7308 4.9564-0.80072 1.7764-1.7656 3.4685-2.5875 5.2348-0.80047 1.8698-1.5142 3.774-1.9302 5.7719-0.45864 2.057-0.90334 4.1276-1.0846 6.2304-0.19826 2.1623-0.27831 4.3312-0.10283 6.4995 0.20354 2.1999 0.4584 4.4013 0.96128 6.556 0.5028 2.19 1.1916 4.328 1.953 6.4414 0.76097 2.0923 1.5571 4.1762 2.4839 6.2012 0.91509 2.0506 1.908 4.0635 2.8705 6.092 0.90937 1.9668 1.8812 3.9014 2.8726 5.8279 0.91519 1.7877 1.8022 3.5934 2.5882 5.4419 0.73817 1.7388 1.4497 3.494 2.0498 5.2852 0.47363 1.636 0.93131 3.2785 1.2647 4.9499 0.28797 1.5013 0.59456 3.0133 0.59774 4.5483-0.00508 1.3495-0.09428 2.6954-0.42335 4.0099-0.27464 1.1087-0.53489 2.2284-0.91145 3.3063l-4.3642 2.0271z" fill="#fff"/>
 <path d="m177.98 794.3c1.7916 7.4855 2.6023 14.793 9.3368 22.185 8.032-8.0478 8.1035-13.296 10.124-21.376l-19.46-0.80967z" fill-rule="evenodd" stroke="#000"/>
 <path d="m274.34 781.11c2.1418 8.465 3.1672 16.742 10.921 25.03 9.0066-9.2436 9.0127-15.197 11.191-24.391l-22.113-0.63943z" fill-rule="evenodd" stroke="#000"/>
 <path d="m186.85 813.47s-4.1585-6.557-5.3122-9.9046-1.4488-5.561-1.4488-5.561 4.3195-0.35967 6.0365 3.071 1.6097 12.948 0.72437 12.395z" fill="#fff" fill-rule="evenodd" stroke="#000"/>
 <path d="m284.35 802.16c-0.72437-1.0237-2.4951-1.8813-4.239-6.2803s-2.3878-6.9996-2.3878-6.9996l-0.50974-1.826 6.9219-1.7983s-0.96584 5.561-0.34878 9.9876 0.56341 6.8613 0.56341 6.9166z" fill="#fff" fill-rule="evenodd" stroke="#000"/>
 <path d="m107.71 480.18 9.6048 5.478c-4.2929 7.3566-4.5654 15.692-3.3268 23.904-11.055-4.5972-11.918-18.376-6.278-29.382z" fill="#fff" fill-rule="evenodd" stroke="#000"/>
 <path d="m311.89 486.94 10.487-3.5045c2.6194 8.1048 8.6491 13.866 15.595 18.419-10.798 5.1728-21.641-3.3726-26.082-14.915z" fill="#fff" fill-rule="evenodd" stroke="#000"/>
 <path d="m46.442 550.55c-22.128 50.19-1.1723 81.219 23.976 86.559-19.436-18.614-22.605-56.59-23.976-86.559z" opacity=".2106"/>
</svg>
