<?xml version="1.0" encoding="UTF-8"?>
<svg enable-background="new 0 0 397.586 245.581" viewBox="0 0 397.586 245.581" xmlns="http://www.w3.org/2000/svg">
 <path d="m162.677,53.28c2.649-.642 1.654,2.362 4.304,1.721 .169,2.464.107,4.697-2.582,4.304 .074-1.222.142-2.438-.861-2.582-1.614.968-1.829,3.336-3.443,4.303 .559.875 1.979.89 1.722,2.582-6.124,1.621-1.866-8.398.86-10.328z" fill-rule="evenodd"/>
 <path d="m166.98 61.026c3.089 3.223 7.573 5.051 7.747 11.189-3.123-3.189-6.156-6.468-7.747-11.189z" fill-rule="evenodd"/>
 <path d="m172.14 74.798c-4.783 1.141-6.346-7.854-8.607-12.05 5.321 1.564 8.119 5.651 8.607 12.05z" fill-rule="evenodd"/>
 <path d="m362.365,116.973c.42-1.189 7.759-2.089 6.886.861-2.772.189-3.642-1.522-6.886-.861z" fill-rule="evenodd"/>
 <path d="m373.56 127.3c4.706 2.545 5.727 19.467-1.722 19.797 2.652-5.224 3.196-12.699 1.722-19.797z" fill-rule="evenodd"/>
 <path d="m368.39,128.163c2.433-.712 2.23,1.212 4.304.86 .624,7.797-1.751,12.594-3.442,18.076-3.154-3.712-3.601-14.406-.862-18.936z" fill-rule="evenodd"/>
 <path d="m161.816,79.962c1.454-1.416 1.068-4.669 2.582-6.025 1.867-.146.39,3.053.861,4.304 .803-.631 1.304-1.565 1.721-2.583 2.448,1.148-.664,3.828-.861,5.165 4.493-2.143 13.42-8.919 14.632-15.493 2.256-12.233-5.574-23.617-20.657-21.518 4.094-6.243 16.818-.18 19.797,3.443 2.235,2.719 4.142,9.101 4.303,12.05 .776,14.158-12.769,19.4-18.936,26.683-2.337.615.616-4.059-1.722-3.443-2.034,3.131-3.338,6.99-8.607,6.886-.28-5.169-2.198-10.802-7.747-12.911-1.812,1.915.907,4.15 0,7.747-5.668,12.062-.325,27.573 4.304,37.011 12.666-3.976 31.018-2.264 43.897-6.025 6.233-8.692 23.269-12.595 32.707-4.303 .38,3.25-1.697,4.041-2.582,6.025 9.005-1.522 24.034-3.158 37.872-2.582 1.713,14.006.772,38.601.86,56.808 .021,4.389-3.075,9.47.86,12.051 1.986-25.438.232-44.18 2.583-68.858 1.736-2.568 4.36-4.247 6.024-6.886-6.457-10.184-13.811-19.47-20.657-29.265 10.399-4.424 20.493-10.402 32.708-14.633 3.155-1.093 8.4-2.799 10.328-2.582 4.257.479 6.468,5.208 10.329,7.747 7.362,4.841 23.021,6 26.683,15.493-4.324-.7-6.438-4.95-10.328-6.886-4.57-2.273-10.194-2.58-14.634-5.165-4.414-2.57-6.811-6.442-11.188-8.607-14.233,4.417-26.649,10.649-39.594,16.354 7.038,7.881 11.77,18.068 19.797,24.961 2.137-1.593 2.32-5.139 6.025-5.165 .5-6.647-5.215-21.56 4.304-24.101 7.726,3.689.816,15.689.86,22.379-.362,1.646-.312,3.705-2.582,3.443 21.727,5.679 37.214-9.07 50.782-17.214-4.956-6.908-9.891-17.808-16.354-25.822-3.276-4.063-12.123-10.667-4.304-17.214 .609,3.192-1.47,3.694-.86,6.886 8.572,10.937 15.639,23.381 23.239,35.29-12.147,12.863-29.056,24.012-52.504,20.658 2.861,3.643 5.161,2.817 9.468,4.304 .364,1.798-.59,2.279-.86,3.443 19.765-5.483 37.379-13.117 54.225-21.518-1.012-18.498-10.816-28.203-18.074-40.454v-5.165c-4.958-9.61-20.583-.267-23.24-12.05-1.251-5.55 5.614-11.116 4.304-18.936-.666-3.976-6.333-9.564-11.189-10.329-5.002-.788-13.479.765-15.492,6.886-4.775-1.771-6.697,4.848-7.747,9.468 6.876-1.731 12.994-4.22 22.379-3.443 1.837,1.99 3.308,11.237 0,12.911-4.373-.38-1.008-1.814-.861-4.304 .342-2.062-3.92.478-2.582-2.582-.755-4.012 2.233,1.186 2.582-1.722-1.231-2.944-6.22-1.95-8.606-1.721-3.322.318-6.851,1.499-9.468,2.582 2.781,2.203 10.259-1.981 12.91,0-2.438,5.596-14.917,1.15-16.354,7.747 1.213,2.926 7.167.216 4.304,6.025 2.62.244 3.347-2.758 5.164-.861 1.176,3.758-3.333,1.831-2.582,5.164 5.07,2.763 8.518-2.741 14.632-1.721 1.278-.375-.34-1.102 0-2.582 2.496.947 5.821,1.065 6.025,4.303-1.755,1.729-1.688-.38-3.443-.861-1.723,1.146-1.917,3.821-2.582,6.025-4.773.329-11.812,2.157-16.353,5.165-10.259,13.268-30.12,16.934-41.315,29.264 5.057,9.834 13.38,16.739 21.518,24.101 2.305,2.084 6.93,3.786 6.886,7.747-6.86-4.042-12.206-9.599-18.074-14.632-4.269-6.347-11.886-9.346-13.772-18.075 9.477-11.208 24.567-14.848 36.15-23.24 7.166-5.191 12.795-13.053 23.24-12.911-4.216-2.75-8.997,1.309-12.911,1.722-2.34-3.972-5.376-7.248-10.329-8.607-2.033-2.875 1.041-6.593 1.722-9.468-4.737-15.075 12.149-29.243 27.543-24.961 5.538,1.54 11.811,8.484 12.051,14.632 .265,6.787-5.44,10.744-4.305,18.075 10.551,4.055 20.567,6.205 29.266,12.911 9.799,7.555 23.55,27.75 30.125,41.315 .321.662-.176,1.861 0,2.583 .562,2.303 2.851,3.571 3.443,5.164 3.089,8.309 2.926,16.284 5.164,25.822 3.01,3.142 7.108,2.916 10.329,6.025 7.647,7.388 9.938,25.628 7.746,38.733-2.286,13.665-13.466,23.19-21.519,26.683 4.429,13.997 8.602,32.628 8.607,48.2 6.635,1.616 12.778-4.067 12.911,2.582-3.764,3.979-10.223,1.066-14.633.861-7.748-.361-16.248-.811-24.1,0-5.448.562-2.927,1.024-7.747,0-6.088-1.295-26.984-.141-36.15-.861-11.714-.92-23.317,1.221-34.429.861-2.392-.077-4.387-1.607-6.886-1.722-13.333-.609-26.616,1.431-39.593.86-28.006-1.23-54.389-1.075-80.909-.86-12.073.098-29.003,1.864-43.036.86-1.172-.084-4.396.436-4.304-1.722-5.711,1.133-13.645,1.63-20.657,1.722-20.113.264-45.087-1.405-65.415-.86-6.529.175-13.635.296-18.936-2.583 .031-4.022 2.448-1.641 5.164-1.721 5.765-10.369 11.029-27.849 9.468-37.872 3.823-3.062 3.579-10.191 6.025-14.632-5.398-1.694-14.297-.788-18.075-1.722 .015-32.508-.732-61.528.861-97.262 17.53,5.996 12.718,34.335 25.822,44.757-11.174-13.733-2.456-39.345 6.886-48.201 7.762-7.358 32.656-19.423 47.34-24.961 2.442-.921 5.075-2.951 6.886-3.443 5.116-1.389 11.501-.316 16.354-.861 5.396-.605 6.22-1.709 13.771,0 2.913.66 6.711,1.067 8.607,1.722 5.545,1.915 7.609,5.917 11.19,5.164 6.752-1.421 7.897-20.407 18.936-18.075-1.965,3.873-5.962,3.381-8.608,6.886-3.191,4.228-2.468,12.844-9.467,13.771 .534,4.344 3.18,6.574 4.303,10.329 7.962-1.364 8.612,4.585 12.05,7.746 2.527-1.202 1.699-5.76 3.443-7.746 4.071.148-.307,3.402.862,6.023zm190.22,8.607c-2.239,5.507-10.692,4.801-12.05,11.189 5.441,2.685 11.607-2.35 14.632-6.886 8.74-13.109 5.445-15.754-1.721-26.683-5.679-8.658-10.439-15.951-18.076-19.797h-1.721c5.51,14.863 17.135,23.608 18.936,42.177zm-148.905,28.404c3.31-6.284 14.155-5.714 21.519-3.443-10.556-12.153-21.706.973-30.126,4.304-13.333,5.274-30.077.736-45.618,6.025-2.874-10.316-8.705-19.954-7.746-30.986 .277-3.191 2.426-6.3 2.582-9.468 1.017-20.671-15.456-27.309-32.708-27.543-20.77-.282-44.681,11.4-56.808,19.796-2.135,10.552.74,21.734 8.607,24.961 10.029-1.725 16.705-10.686 26.683-12.911 9.392-2.093 20.021,1.471 33.568,0 8.553,13.539 12.046,32.138 18.936,47.339 21.282-5.113 43.97-8.82 62.833-16.354 3.223-.097 9.684-.016 7.747-2.582-.087-.965 1.251-1.34 0-1.721-1.74,1.737-6.998,4.436-9.469,2.583zm-150.627-18.936c.422.681 2.039.301 2.582.861 1.865,1.923 2.27,7.874 5.164,5.165-3.733-4.355-11.936-16.11-9.468-26.683h-2.582c-1.45,5.735 1.18,15.618 4.304,20.657zm233.257-1.721c1.055-5.375 3.85-12.227 1.722-18.075h-2.582c.564,5.747-1.136,13.759.86,18.075zm-254.775,32.707c3.917,8.247 8.734,12.661 18.936,11.189-1.503-11.851 2.036-25.286 9.468-30.986-.251.528-2.141,3.313 0,3.443 3.167-1.36.854-4.685-.86-6.025-8.933,6.848-11.324,20.236-14.633,32.708-3.484-.929.264-4.099-.86-7.747-2.072-.27-4.168,3.755-6.025.86 2.511-3.63 4.74-5.063 7.746-4.303-.421-2.717 1.551-3.04.861-6.026-5.363.104-9.78,5.691-13.771,4.304 2.306-8.024 16.487-4.171 18.075-12.911-8.823-.495-14.58,6.641-20.657,6.025 5.106-8.953 23.703-4.414 27.543-14.632-6.579-5.472-9.868-14.233-12.05-24.101-4.542.149-3.312,5.727-2.582,8.607 1.663,6.555 7.604,11.11 8.607,15.493-1.025,3.52-4.662,1.707-7.747,2.582-5.874,1.667-13.007,6.957-16.354,4.304 5.768-3.7 13.458-5.479 21.519-6.886-.375-4.026-4.353-6.131-6.025-9.468-1.753-3.499-.702-7.971-4.304-10.329-4.667,6.133 3.558,10.337 3.443,17.214-6.08-.342-11.114.362-14.632,2.583-3.326,10.459 1.586,18.386 4.302,24.102zm319.328-20.657c-1.167.507-3.123-.437-2.582,1.721 .19.67.721,1.001 1.722.861 6.41.089 13.57-6.507 18.936-10.329-2.521,7.809-11.301,9.357-18.075,12.911 7.378,1.8 12.577-5.692 22.379-4.304-.979-6.193-3.003-11.341-5.164-16.354-4.002,7.093-9.725,12.243-17.216,15.494zm17.215-18.075c-2.127-2.464-2.066-7.116-6.024-7.747-3.103,5.413-5.077,11.451-9.469,15.493-2.731,2.514-6.111,3.019-8.607,6.025 9.99,1.089 13.484-11.76 19.797-17.214-2.952,7.555-7.181,14.314-13.771,18.075-1.556.888-4.411-.762-4.304,2.582 9.814-.002 16.803-10.12 22.378-17.214zm-243.585,3.442c-4.909-2.946-18.793-4.438-29.265-3.442-11.397,1.083-19.149,10.549-27.543,12.05 4.036,1.807 15.585-.499 16.354,5.165 1.134,8.356-11.334,4.059-17.214,1.721 7.827,10.248 17.872,18.279 20.657,33.569 19.558.048 35.085-3.935 51.644-6.886-3.974-14.963-9.791-28.082-14.633-42.177zm-94.679,6.886h8.607c.515-2.06-1.822-7.645-5.164-8.607 .129,4.147-4.333,3.701-3.443,8.607zm-24.101-5.164c.268,17.643.201,37.116 0,52.504 30.891.997 60.764,2.323 83.491,2.582 8.99.103 18.313.867 25.821-2.582 6.688,4.076 16.522,2.53 24.961,2.582 43.845.267 74.421.13 121.362,0 .284-13.252 2.449-23.081.86-32.708-10.659-3.4-23.364,1.993-32.708,0-44.395,9.281-97.43,26.212-145.462,28.404-8.944.409-18.546.922-26.683,0-10.214-1.158-23.492-4.393-30.125-10.329-11.186-10.01-9.62-30.574-19.796-43.036-.205,1.23-1.417,1.453-1.721,2.583zm309.861,12.911c-9.613,3.49-23.356,3.691-24.961,13.771 14.126,4.241 28.57,12.349 30.125,28.404 1.953,20.178-11.059,31.922-31.847,33.568 1.131,2.671-.233,2.456 0,6.024 14.21.844 28.782-1.023 43.036-.86 12.201.14 26.634,3.998 37.872,1.722 4.48-.908 6.654-4.927 11.189-5.164 6.109-6.186 12.9-16.095 12.911-29.266 .009-12.411-3.867-26.26-12.051-30.986 1.582,4.991 4.2,13.076 2.582,19.797-1.483,6.165-8.546,8.438-11.189,12.91-8.169,2.257-15.32-6.383-24.101-3.442-3.736-4.095-8.713-6.055-12.91-9.468-4.157-3.382-7.407-8.51-12.91-10.33-5.953-9.54-20.038-10.949-26.684-19.796 16.805,5.861 28.022,17.309 41.315,26.683-.201-2.277 5.654-2.861 2.582-5.165-.417,1.017-.918,1.952-1.722,2.583-.33-8.856 5.664-19.876.86-27.543-2.978,6.898-1.87,20.553-7.746,24.96 .966-7.934 5.806-16.563 4.304-24.1-3.562,6.193-4.042,15.468-9.468,19.796 .456-9.298 5.963-13.547 7.746-21.518-3.998-1.126-7.286,1.159-8.606-3.443 1.672-2.631 4.577-4.029 8.606-4.304-.846,2.023-4.31,1.429-4.304,4.304 4.121.39 6.525-.935 7.747-3.443-5.571-1.89 1.683-1.002.86-5.165-8.408,1.64-14.702,6.373-23.236,9.471zm-247.888-3.443c4.45-.434 5.294,2.738 10.328,1.721 2.397,1.279-1.819,3.846 1.722,3.443 3.695-5.526-11.359-6.983-12.05-5.164zm209.155,5.164c2.465-2.126 7.116-2.066 7.747-6.025-3.392.651-9.156,3.433-7.747,6.025zm68.858,6.886c.368-2.171-2.691-5.231-3.443-3.443 3.222,3.283-2.005,9.984.861,12.911 1.775-4.867 7.531-.459 11.189-3.443-4.266-5.208-7.818-15.7-12.911-17.214 1.471,3.141 5.922,7.822 4.304,11.189zm7.747-1.722c-.881,1.723 1.317,6.317 4.304,6.886 2.94.646 1.093-3.497 4.304-2.582 4.369,1.655 6.605,5.444 13.771,4.304-.608-4.842-1.169-9.732-2.582-13.771-7.103,1.687-13.83,4.733-19.797,5.163zm-301.253,15.494c-.226,3.596-1.823,10.734 2.582,11.189 .011-9.054 2.438-20.459 2.582-28.404-1.694,5.016-4.737,10.406-5.164,17.215zm166.98-12.911c2.135.126 4.177.16 4.304-1.722-1.509.238-4.295-2.423-5.164,0 .67.191 1,.721.86,1.722zm-161.816,24.961h6.025c-1.578-7.686-3.625-17.249-1.721-25.822-.19-.67-.721-1.001-1.722-.861-3,7.961-2.256,17.929-2.582,26.683zm222.927-26.683c-3.774-.906-2.827,2.911-6.025,2.582-.166,15.593.222,35.411 0,50.784-.068,4.812-2.028,11.425 1.722,13.771 2.622-22.155-1.486-47.108 4.303-67.137zm1.722,3.443c2.733,1.283 5.134-3.951 1.722-3.443-5.654,4.722-4.108,12.687-4.304,22.379-.235,11.665-.965,22.321-.861,34.429 .031,3.562-2.381,10.478 2.583,10.329-.028-20.991 1.345-42.852.86-63.694zm-216.903,23.24c1.725.352 6.384,2.132 7.747,0-3.064-7.839-6.011-15.794-7.747-24.961h-2.583c.117,9.065 2.174,16.189 2.583,24.961zm6.886-10.329c1.355,4.42.072,12.505 6.886,12.05-.367-8.021-6.913-21.725-12.05-24.961 1.176,3.814 3.68,8.068 5.164,12.911zm197.966-11.189c-1.745,13.293-.487,31.585-.86,48.201-.088,3.93-2.443,10.891 1.722,12.91 2.059-19.747-.098-43.708 1.721-63.694h-2.582c-.001.861-.001,1.722-.001,2.583zm-197.966,0c.963,3.833 4.197,7.148 6.025,11.189 1.649,3.646.99,10.59 6.886,10.33-2.576-8.906-8.59-18.948-13.771-22.379 .524.048 1.019.127.86.86zm213.46,29.265c9.84.724 20.35.074 31.847.86-.123-16.595-17.213-23.472-31.847-28.404 .405,11.671-.859,18.981 0,27.544zm67.997-18.937c-2.424-2.167-3.671-5.511-8.608-5.164-1.336,6.457-3.11,13.758-1.721,21.518 7.842,5.672 16.778.534 25.821,3.442 1.105,1.131 1.105,3.173 0,4.304 5.17.456.103-4.847 2.583-6.024 1.53.764 2.188,2.402 5.164,1.721 6.8-3.331 8.065-19.215 2.582-24.96-7.839.954-12.297-1.476-17.214-3.443 .095,4.019-4.851,3.946-6.025,4.304 1.801.762-.277,4.805-2.582,4.302zm-104.147,21.519c-34.302,1.188-62.555.143-92.959,0-44.67-.21-95.799-2.341-149.766-1.722-.67.19-1,.721-.861,1.722v1.722c40.179,4.045 83.477,1.963 126.527,2.582 23.257.335 45.69.496 67.137,0 15.931-.369 31.462,1.765 48.201,1.721 5.084-.013 12.518.07 14.632-3.442-1.318-6.499-9.666-2.696-12.911-2.583zm35.289,4.303c4.232,1.504 11.226.86 17.214.86 5.766,0 13.875,1.392 16.354-1.722-.29-6.547-7.743-2.625-12.051-2.582-6.18.062-15.563-1.372-20.656-.86 .275,1.997-.139,3.305-.861,4.304zm-61.111,4.304c-31.217-.101-67.312-1.722-104.148-1.722-38.212,0-80.025-.227-111.894,0-3.9,3.272-.66,13.687-1.722,19.797 93.102,1.66 178.752,2.006 255.636,2.582v-20.657c-12.293-1.958-24.163.044-37.872,0zm61.111,20.657c15.983-1.805 29.789-5.788 31.847-21.519-11.56.401-22.222,1.698-31.847,0v21.519zm-259.078,2.582c-4.377,3.101-3.069,9.322-4.304,15.493-2.687,13.439-7.365,27.288-12.05,37.872 8.879.31 17.807-.413 26.682,0 5.569.259 12.217,3.001 16.354-.861-12.77-1.288-24.545-3.572-33.568-8.606 2.11-7.088 3.68-11.696 6.025-17.215 2.865-6.741 5.742-12.52 8.607-18.075 1.36-2.638 3.19-5.951 3.443-8.607-3.083-.472-8.422-1.926-11.189-.001zm16.353,0c-1.353.082-2.984-.115-2.582,1.722 6.893,3.68 23.282,1.66 35.29,1.722 3.906.021 9.79,3.694 10.329-2.582-11.452-2.958-29.01-1.977-43.037-.862zm49.923-.86c-6.708,4.318-3.497,39.65-.861,43.896 3.95,6.363 18.432,7.634 27.543,7.746 3.162.282 2.485,4.402 6.025,4.304 40.746-1.577 92.025-.98 132.552,0 9.368-6.41 25.74-5.819 36.15-11.188 4.14-10.527 10.498-23.311 11.189-34.43-6.633-.372-18.193.594-24.961-.86-3.576-.44-1.419-6.614-5.165-6.886-57.179-3.271-133.97.937-182.472-2.582zm187.638,1.722v3.442c2.031.658 5.948,1.696 7.746,0v-4.304c-2.693.176-6.318-.58-7.746.862zm-241.864,5.164c-6.241,11.261-9.95,25.053-15.493,37.011 4.707,1.892 10.044,3.153 14.632,5.164 6.098-10.829 9.414-24.44 9.468-41.314-1.629-1.527-5.685-.628-8.607-.861zm16.354,0c-3.474,14.027-2.571,32.432-8.607,43.896 3.019.425 5.603,1.284 9.468.86 1.485,1.477-1.265,3.385 2.582,3.443 8.759.184 10.456-.823 17.215,0 5.507-18.351-4.97-32.705-7.747-48.2l-12.911.001zm21.518,19.796c-.49-6.108-1.247-11.95-.86-18.937h-4.304c.676,7.358 2.113,13.955 5.164,18.937zm6.025-6.025c.981,9.212 3.261,18.814 6.886,20.657-1.473-4.362-2.914-10.952-3.443-17.214s1.825-13.548-1.722-16.354c-3.214,1.319-2.225,8.182-1.721,12.911zm226.37-11.189c-3.362,14.426-7.633,27.943-14.632,38.732-9.893,3.019-22.003,3.819-30.986,7.746h38.732c-3.738-17.58 16.881-28.529 16.354-45.618-1.847-1.595-6.305-.58-9.468-.86zm12.911,0c-.671.19-1,.721-.86,1.722v1.721c10.182-1.655 22.48,3.06 29.264-.86-5.212-2.759-18.737-1.736-28.404-2.583zm50.784,0c-.916,1.954-5.411.328-7.747.86 .898,10.058 9.27,19.957 8.607,34.43-2.903,3.695-9.391,3.807-12.05,7.746 5.945,2.188 13.679,6.844 22.378,3.442-3.382-14.043-4.381-37.671-11.188-46.478zm-17.215.86c-.472,6.192-5.977,4.781-8.607,7.746-1.214,12.122 3.693,25.568 10.329,32.708 6.462-.424 9.423-4.349 13.771-6.886-.379-14.253-5.789-23.476-10.328-33.568h-5.165zm-12.051,46.479c3.749-.555 9.73,1.122 12.051-.861-2.233-3.847-9.472-2.076-12.051.861zm6.025-6.025c-3.982-7.78-6.756-16.771-9.468-25.821 .636-4.078-.968-5.917-.86-9.469h-7.747c-1.963,10.95-4.696,23.526-7.746,32.708-1.353,4.073-6.239,4.907-6.886,8.607 7.157-1.162 15.777-.863 24.1-.861 .356-3.66 5.583-2.449 9.468-2.582 .964-1.239.928-2.1-.861-2.582zm-27.543-34.429c-3.754,6.216-6.01,12.137-9.469,18.075-2.812,4.833-8.821,9.512-7.746,17.214 15.164-3.198 18.091-18.632 19.798-35.289h-2.583zm-243.585,38.733c4.246-1.253 8.735,3.045 10.329-.86-5.489-2.259-5.503-9.99-9.468-13.771 .024,5.187.268,10.596-.861,14.631zm23.24.86c5.157-.867 11.848-.202 16.354-1.721-11.951.47-22.629-4.908-27.543-8.607 2.891,4.28 8.081,6.264 11.189,10.328z" fill-rule="evenodd"/>
</svg>
