<?xml version="1.0" encoding="UTF-8"?>
<svg viewBox="0 0 616.97 370.45" xmlns="http://www.w3.org/2000/svg">
 <defs>
  <filter id="ab" color-interpolation-filters="sRGB">
   <feGaussianBlur stdDeviation="0.074687"/>
  </filter>
  <filter id="s" color-interpolation-filters="sRGB">
   <feGaussianBlur stdDeviation="0.099925"/>
  </filter>
  <filter id="v" color-interpolation-filters="sRGB">
   <feGaussianBlur stdDeviation="0.173389"/>
  </filter>
  <filter id="z" x="-.12466" y="-.077334" width="1.2493" height="1.1547" color-interpolation-filters="sRGB">
   <feGaussianBlur stdDeviation="0.421898"/>
  </filter>
  <filter id="u" color-interpolation-filters="sRGB">
   <feGaussianBlur stdDeviation="0.177868"/>
  </filter>
  <filter id="t" x="-.11808" y="-.043555" width="1.2362" height="1.0871" color-interpolation-filters="sRGB">
   <feGaussianBlur stdDeviation="0.234097"/>
  </filter>
  <filter id="aa" color-interpolation-filters="sRGB">
   <feGaussianBlur stdDeviation="0.178034"/>
  </filter>
  <filter id="q" x="-.1624" y="-.13171" width="1.3248" height="1.2634" color-interpolation-filters="sRGB">
   <feGaussianBlur stdDeviation="0.17036"/>
  </filter>
  <filter id="w" x="-.11082" y="-.049238" width="1.2216" height="1.0985" color-interpolation-filters="sRGB">
   <feGaussianBlur stdDeviation="0.216019"/>
  </filter>
  <filter id="p" color-interpolation-filters="sRGB">
   <feGaussianBlur stdDeviation="0.093572"/>
  </filter>
  <filter id="r" color-interpolation-filters="sRGB">
   <feGaussianBlur stdDeviation="0.175416"/>
  </filter>
  <filter id="x" x="-.12436" y="-.056051" width="1.2487" height="1.1121" color-interpolation-filters="sRGB">
   <feGaussianBlur stdDeviation="0.298207"/>
  </filter>
  <filter id="y" color-interpolation-filters="sRGB">
   <feGaussianBlur stdDeviation="0.187839"/>
  </filter>
  <filter id="ac" color-interpolation-filters="sRGB">
   <feGaussianBlur stdDeviation="0.042205"/>
  </filter>
  <filter id="a" color-interpolation-filters="sRGB">
   <feGaussianBlur stdDeviation="0.158751"/>
  </filter>
 </defs>
 <path d="m277.9 194.71l1.5198-0.6218 25.418 59.858-1.1631 0.7601-25.775-59.996z" fill-opacity=".61" filter="url(#w)"/>
 <path d="m24.687 291.67l1.3869-0.6722 29.01 60.494-1.1466 1.2993-29.25-61.121z" fill-opacity=".619" filter="url(#p)"/>
 <g fill-opacity=".496">
  <path d="m184.9 221.21c30.159-10.929 22.071 75.751 53.903 79.722 75.889 9.4676 94.864-156.05 171.27-152.67 23.195 1.0264 24.52 49.43 47.699 50.756 67.219 3.8469 153.82-131.18 153.82-131.18s-87.042 133.22-154.26 129.38c-23.179-1.3265-24.504-49.73-47.699-50.756-76.403-3.3794-95.378 162.14-171.27 152.67-31.831-3.9711-23.744-90.652-53.903-79.722-38.5 13.952-125.89 165.72-159.03 142.97 33.58 24.544 120.97-127.22 159.47-141.17z" filter="url(#a)"/>
  <path d="m162.9 156.79c30.159-10.929 22.071 75.751 53.903 79.722 75.889 9.4676 94.864-156.05 171.27-152.67 23.195 1.0264 24.52 49.43 47.699 50.756 67.219 3.8469 153.82-131.18 153.82-131.18s-87.042 133.22-154.26 129.38c-23.179-1.3266-24.504-49.73-47.699-50.756-76.403-3.379-95.378 162.14-171.27 152.67-31.831-3.9712-23.744-90.652-53.903-79.722-38.5 13.952-125.89 165.72-159.03 142.97 33.58 24.544 120.97-127.22 159.47-141.17v1.5e-5z" filter="url(#a)"/>
  <path d="m169.78 171.04c30.159-10.929 22.071 75.751 53.903 79.722 75.889 9.4676 94.864-156.05 171.27-152.67 23.195 1.0264 24.52 49.43 47.699 50.756 67.219 3.8469 153.82-131.18 153.82-131.18s-87.042 133.22-154.26 129.38c-23.179-1.3266-24.504-49.73-47.699-50.756-76.403-3.379-95.378 162.14-171.27 152.67-31.831-3.9712-23.744-90.652-53.903-79.722-38.5 13.952-125.89 165.72-159.03 142.97 33.58 24.544 120.97-127.22 159.47-141.17z" filter="url(#a)"/>
  <path d="m176.66 187.35c30.159-10.929 22.071 75.751 53.903 79.722 75.889 9.4676 94.864-156.05 171.27-152.67 23.195 1.0264 24.52 49.43 47.699 50.756 67.219 3.8469 153.82-131.18 153.82-131.18s-87.042 133.22-154.26 129.38c-23.179-1.3265-24.504-49.73-47.699-50.756-76.403-3.379-95.378 162.14-171.27 152.67-31.831-3.9711-23.744-90.652-53.903-79.722-38.5 13.952-125.89 165.72-159.03 142.97 33.58 24.544 120.97-127.22 159.47-141.17v1.5e-5z" filter="url(#a)"/>
  <path d="m181.28 205.78c30.159-10.929 22.071 75.751 53.903 79.722 75.889 9.4676 94.864-156.05 171.27-152.67 23.195 1.0264 24.52 49.43 47.699 50.756 67.219 3.8469 153.82-131.18 153.82-131.18s-87.041 133.22-154.26 129.38c-23.179-1.3265-24.504-49.73-47.699-50.756-76.403-3.379-95.378 162.14-171.27 152.67-31.831-3.9711-23.744-90.652-53.903-79.722-38.5 13.952-125.89 165.72-159.03 142.97 33.58 24.544 120.97-127.22 159.47-141.17z" filter="url(#a)"/>
 </g>
 <path d="m471.26 131.01l1.3817 0.5181-6.7534 61.147h-1.5602l6.5805-57.509c-3.8976 7.5015-16.097 21.29-23.328 15.406-2.2742-1.8482-0.99023-9.5456 3.2412-8.1637 7.0296 2.2913 12.424 1.6464 14.37-1.5257l6.0682-9.8736z" fill-opacity=".581" filter="url(#y)"/>
 <path d="m120.55 244.39c-3.336 3.9637-4.8112 9.7649-1.6051 12.567 3.2625 2.8519 9.4203 0.36896 12.698-3.1181 3.5111-3.7335 5.441-9.8377 2.2223-12.77-3.3614-3.0616-10.093-0.50667-13.315 3.3204zm11.299-1.1348c2.1948 2.0952 0.27188 5.9753-2.3664 8.7262-2.1884 2.2809-6.3591 4.8016-8.5708 2.7922-2.2859-2.0765-0.31919-6.3379 2.204-8.9288 2.4737-2.5408 6.5497-4.6738 8.7332-2.5895z" fill-opacity=".589" filter="url(#ac)" stroke-width=".127"/>
 <path d="m49.795 309.75c0.4024 1.2236-0.034409 2.4664-0.97563 2.776-0.94123 0.30954-2.0304-0.43143-2.4328-1.655-0.40241-1.2236 0.034389-2.4664 0.97562-2.7759 0.94122-0.30954 2.0304 0.43143 2.4328 1.655z" fill-opacity=".462" filter="url(#q)"/>
 <path d="m183.44 217.54c30.159-10.929 22.071 75.751 53.903 79.722 75.89 9.4675 94.864-156.05 171.27-152.67 23.195 1.0262 24.52 49.429 47.699 50.756 67.218 3.8469 153.82-131.18 153.82-131.18s-87.042 133.22-154.26 129.38c-23.179-1.3264-24.504-49.73-47.699-50.756-76.403-3.3792-95.378 162.14-171.27 152.67-31.832-3.9712-23.744-90.652-53.903-79.722-38.5 13.952-125.89 165.71-159.03 142.97 33.58 24.544 120.97-127.22 159.47-141.17z"/>
 <path d="m161.44 153.13c30.159-10.93 22.071 75.751 53.903 79.722 75.89 9.4676 94.864-156.05 171.27-152.67 23.195 1.0263 24.52 49.429 47.699 50.756 67.218 3.8469 153.82-131.18 153.82-131.18s-87.042 133.22-154.26 129.38c-23.179-1.3265-24.504-49.73-47.699-50.756-76.403-3.3792-95.378 162.14-171.27 152.67-31.832-3.9711-23.744-90.652-53.903-79.722-38.5 13.952-125.89 165.71-159.03 142.97 33.58 24.544 120.97-127.22 159.47-141.17z"/>
 <path d="m168.32 167.37c30.159-10.93 22.071 75.751 53.903 79.722 75.89 9.4676 94.864-156.05 171.27-152.67 23.195 1.0263 24.52 49.429 47.699 50.756 67.218 3.8469 153.82-131.18 153.82-131.18s-87.042 133.22-154.26 129.38c-23.179-1.3265-24.504-49.73-47.699-50.756-76.403-3.3792-95.378 162.14-171.27 152.67-31.832-3.9711-23.744-90.652-53.903-79.722-38.5 13.952-125.89 165.71-159.03 142.97 33.58 24.544 120.97-127.22 159.47-141.17h1.5e-5z"/>
 <path d="m175.2 183.68c30.159-10.93 22.071 75.751 53.903 79.722 75.89 9.4676 94.864-156.05 171.27-152.67 23.194 1.0263 24.52 49.429 47.699 50.756 67.218 3.8469 153.82-131.18 153.82-131.18s-87.042 133.22-154.26 129.38c-23.179-1.3265-24.504-49.73-47.699-50.756-76.403-3.3792-95.378 162.14-171.27 152.67-31.832-3.9711-23.744-90.652-53.903-79.722-38.5 13.952-125.89 165.71-159.03 142.97 33.58 24.544 120.97-127.22 159.47-141.17z"/>
 <path d="m179.82 202.11c30.159-10.929 22.071 75.751 53.903 79.722 75.89 9.4676 94.864-156.05 171.27-152.67 23.195 1.0262 24.52 49.429 47.699 50.756 67.218 3.8469 153.82-131.18 153.82-131.18s-87.042 133.22-154.26 129.38c-23.179-1.3265-24.504-49.73-47.699-50.756-76.403-3.3792-95.378 162.14-171.27 152.67-31.832-3.9712-23.744-90.652-53.903-79.722-38.5 13.952-125.89 165.71-159.03 142.97 33.58 24.544 120.97-127.22 159.47-141.17z"/>
 <path d="m571.34 68.522l4.0185 3.2528 8.6819-10.801-4.1162-3.2124-8.5842 10.76z" fill-opacity=".373" filter="url(#ab)"/>
 <path d="m47.581 309.21c0.40241 1.2236-0.034401 2.4664-0.97563 2.776-0.94122 0.30954-2.0304-0.43146-2.4328-1.655-0.40241-1.2236 0.034389-2.4664 0.97562-2.776 0.94122-0.30954 2.0304 0.43143 2.4328 1.655z"/>
 <path d="m54.962 322.3c0.4024 1.2236-0.034412 2.4664-0.97564 2.776-0.94122 0.30954-2.0304-0.43143-2.4328-1.655-0.40241-1.2236 0.034401-2.4664 0.97562-2.776 0.94123-0.30954 2.0304 0.43146 2.4329 1.655z" fill-opacity=".462" filter="url(#q)"/>
 <path d="m52.125 321.88c0.4024 1.2236-0.034412 2.4664-0.97564 2.776-0.94122 0.30954-2.0304-0.43143-2.4328-1.655s0.034401-2.4664 0.97562-2.776c0.94123-0.30954 2.0305 0.43143 2.4329 1.655z"/>
 <path d="m538.11 151.38c-6.5921-2.9477-17.594 5.0894-14.716 10.3 3.2933 5.9645 18.607 3.0801 19.189-7.5534l-19.246-46.38-27.514 16.869 18.21 45.183c-8.0831-2.7922-17.94 5.3888-14.03 10.818 3.8917 5.3946 19.949 1.992 17.818-9.269l-17.358-43.646 22.332-14.687 15.314 38.366z" fill-opacity=".606" filter="url(#z)"/>
 <path d="m531.26 72.443l1.5542-0.6562 27.093 60.756-1.18 0.7945-27.468-60.894z" fill-opacity=".555" filter="url(#aa)"/>
 <path d="m269.89 245.25c1.5725-12.506 0.60614-21.02-19.986-26.587l20.557 58.8c-1.1512 14.524-17.282 14.48-20.541 7.9065-3.0241-6.0998 7.9689-15.052 17.378-10.73l-20.198-59.295c24.612 4.3483 33.801 7.0431 22.79 29.905z" fill-opacity=".61" filter="url(#t)"/>
 <path d="m162.52 154.35c30.159-10.929 22.071 75.751 53.903 79.722 75.89 9.4676 94.864-156.05 171.27-152.67 23.195 1.0262 24.52 49.429 47.699 50.756 67.218 3.8469 153.82-131.18 153.82-131.18s-87.042 133.22-154.26 129.38c-23.179-1.3265-24.504-49.73-47.699-50.756-76.403-3.3792-95.378 162.14-171.27 152.67-31.832-3.9711-23.744-90.652-53.903-79.722-38.5 13.952-125.89 165.71-159.03 142.97 33.58 24.544 120.97-127.22 159.47-141.17z"/>
 <path d="m168.83 168.88c30.159-10.929 22.071 75.751 53.903 79.722 75.89 9.4675 94.864-156.05 171.27-152.67 23.195 1.0262 24.52 49.429 47.699 50.756 67.218 3.8469 153.82-131.18 153.82-131.18s-87.042 133.22-154.26 129.38c-23.179-1.3265-24.504-49.73-47.699-50.756-76.403-3.3792-95.378 162.14-171.27 152.67-31.832-3.9712-23.744-90.652-53.903-79.722-38.5 13.952-125.89 165.71-159.03 142.97 33.58 24.544 120.97-127.22 159.47-141.17z"/>
 <path d="m175.78 184.67c30.159-10.929 22.071 75.751 53.903 79.722 75.89 9.4675 94.864-156.05 171.27-152.67 23.195 1.0262 24.52 49.429 47.699 50.756 67.218 3.8468 153.82-131.18 153.82-131.18s-87.042 133.22-154.26 129.38c-23.179-1.3265-24.504-49.73-47.699-50.756-76.403-3.3792-95.378 162.14-171.27 152.67-31.832-3.9711-23.744-90.652-53.903-79.722-38.5 13.952-125.89 165.71-159.03 142.97 33.58 24.544 120.97-127.22 159.47-141.17h1.5e-5z"/>
 <path d="m179.57 203.61c30.159-10.929 22.071 75.751 53.903 79.722 75.89 9.4675 94.864-156.05 171.27-152.67 23.195 1.0262 24.52 49.429 47.699 50.756 67.218 3.8469 153.82-131.18 153.82-131.18s-87.042 133.22-154.26 129.38c-23.179-1.3264-24.504-49.73-47.699-50.756-76.403-3.3792-95.378 162.14-171.27 152.67-31.832-3.9711-23.744-90.652-53.903-79.722-38.5 13.952-125.89 165.71-159.03 142.97 33.58 24.544 120.97-127.22 159.47-141.17z"/>
 <path d="m183.99 218.77c30.159-10.929 22.071 75.751 53.903 79.722 75.89 9.4675 94.864-156.05 171.27-152.67 23.195 1.0262 24.52 49.429 47.699 50.756 67.218 3.8468 153.82-131.18 153.82-131.18s-87.042 133.22-154.26 129.38c-23.179-1.3265-24.504-49.73-47.699-50.756-76.403-3.3792-95.378 162.14-171.27 152.67-31.832-3.9711-23.744-90.652-53.903-79.722-38.5 13.952-125.89 165.71-159.03 142.97 33.58 24.544 120.97-127.22 159.47-141.17z"/>
 <path d="m95.508 270.99c-2.2675-12.399-5.7525-20.226-27.066-19.333l37.313 49.879c3.2773 14.196-12.119 19.013-17.207 13.726-4.7208-4.9054 3.0655-16.753 13.34-15.466l-37.119-50.459c24.78-3.266 34.353-3.4641 30.739 21.653z" fill-opacity=".581" filter="url(#s)"/>
 <path d="m88.382 268.94c-2.2673-12.399-5.7524-20.226-27.066-19.333l37.312 49.878c3.2773 14.196-12.119 19.012-17.206 13.726-4.7209-4.9055 3.0654-16.753 13.34-15.466l-37.119-50.458c24.779-3.2663 34.353-3.4643 30.739 21.653z"/>
 <path d="m116.32 241.1c-3.3796 4.0661-4.8735 10.017-1.6259 12.892 3.3051 2.9258 9.5426 0.37857 12.863-3.1986 3.5564-3.83 5.5117-10.092 2.2507-13.1-3.4052-3.1409-10.225-0.51971-13.488 3.4062zm11.446-1.1644c2.2237 2.1494 0.27527 6.1298-2.3971 8.952-2.2167 2.3397-6.4414 4.9257-8.6824 2.8644-2.3157-2.1302-0.32367-6.502 2.2325-9.1598 2.5061-2.6063 6.6354-4.7945 8.847-2.6565z" stroke-width=".127"/>
 <path d="m265.39 243c1.5724-12.506 0.60623-21.02-19.986-26.587l20.557 58.8c-1.1512 14.524-17.282 14.48-20.541 7.9065-3.0241-6.0997 7.9688-15.052 17.378-10.73l-20.198-59.295c24.612 4.3484 33.801 7.0432 22.79 29.905z"/>
 <path d="m313.99 187.28c5.7917 2.585 15.389-4.6001 12.85-9.2174-2.913-5.2851-16.316-2.6483-16.776 6.7993l17.076 41.107 24.031-15.113-16.172-40.047c7.0988 2.4469 15.694-4.8647 12.24-9.6721-3.431-4.7726-17.485-1.6753-15.567 8.3134l15.418 38.688-19.494 13.144-13.604-34.002z" fill-opacity=".648" filter="url(#u)"/>
 <path d="m308.93 186.52c5.791 2.583 15.389-4.603 12.845-9.218-2.913-5.284-16.315-2.647-16.775 6.8l17.077 41.105 24.028-15.112-16.17-40.047c7.098 2.443 15.694-4.867 12.241-9.672-3.432-4.776-17.485-1.678-15.565 8.312l15.414 38.687-19.495 13.148-13.6-34.003z"/>
 <path d="m343.05 125.22c9.079 4.0934 10.058 11.399 10.875 12.084l12.844 1.8135c-17.076 1.6178-6.6842 17.531 7.6052 16.759-18.331-10.611-11.589-8.653-4.3583-17.3-11.722-4.8246-7.6052-11.935-11.013-12.545l-15.953-0.8119z" fill-opacity=".623" filter="url(#v)"/>
 <path d="m336.3 123.72c9.081 4.096 10.061 11.399 10.879 12.085l12.841 1.815c-17.076 1.615-6.683 17.527 7.605 16.756-18.329-10.607-11.589-8.649-4.354-17.296-11.723-4.824-7.608-11.938-11.018-12.546l-15.953-0.814z"/>
 <path d="m392.95 155.85c14.721-15.481 8.6878-23.806 1.7563-33.236 23.167 14.168 14.047 21.906-2.3951 37.071l-16.776-62.8c0.93259-13.639 19.667-13.057 22.05-4.9511 1.94 6.6094-9.8682 10.939-18.855 8.4689l14.22 55.448z" fill-opacity=".644" filter="url(#x)"/>
 <path d="m387.08 149.69c14.721-15.479 8.686-23.804 1.758-33.236 23.163 14.168 14.048 21.905-2.397 37.071l-16.778-62.797c0.93399-13.641 19.67-13.06 22.051-4.954 1.942 6.611-9.868 10.937-18.855 8.469l14.221 55.447z"/>
 <path d="m468.31 127.47l1.386 0.519-6.756 61.15h-1.559l6.582-57.512c-3.899 7.503-16.101 21.29-23.333 15.41-2.273-1.848-0.991-9.547 3.244-8.166 7.03 2.291 12.424 1.645 14.373-1.528l6.063-9.873z"/>
 <path d="m531.22 148.73c-6.595-2.943-17.594 5.09-14.718 10.302 3.292 5.966 18.606 3.077 19.188-7.556l-19.243-46.381-27.518 16.871 18.214 45.183c-8.086-2.792-17.943 5.386-14.031 10.816 3.889 5.398 19.948 1.994 17.818-9.265l-17.36-43.648 22.331-14.685 15.319 38.363z"/>
 <path d="m566.49 67.914l4.022 3.254 8.678-10.801-4.113-3.209-8.587 10.756z"/>
 <path d="m29.279 288.97l1.3807-0.6692 28.766 60.233-1.137 1.2996-29.01-60.864z" fill-opacity=".619" filter="url(#p)"/>
 <path d="m27.277 290.03l1.3729-0.666 28.675 60.154-1.134 1.294-28.914-60.782z"/>
 <path d="m23.03 292.39l1.4157-0.648 28.898 61.083-1.603 0.5-28.71-60.935z"/>
 <path d="m175.9 245.42c14.721-15.481 8.6818-23.806 1.7559-33.236 23.161 14.168 14.048 21.906-2.3951 37.071l-16.776-62.8c0.93294-13.639 19.667-13.057 22.05-4.9513 1.94 6.6093-9.8678 10.939-18.855 8.4689l14.22 55.448z" fill-opacity=".64" filter="url(#r)"/>
 <path d="m170.54 242.5c14.721-15.479 8.686-23.805 1.758-33.236 23.163 14.168 14.048 21.905-2.397 37.071l-16.778-62.797c0.93402-13.641 19.67-13.06 22.051-4.954 1.942 6.611-9.868 10.937-18.855 8.468l14.221 55.448z"/>
 <path d="m275.47 196.76l1.518-0.62 25.416 59.858-1.16 0.762-25.774-60z"/>
 <path d="m528.02 73.931l1.55-0.656 27.097 60.754-1.179 0.797-27.468-60.895z"/>
</svg>
