<?xml version="1.0" encoding="UTF-8"?>
<svg version="1.1" viewBox="0 0 353.47 335.6" xmlns="http://www.w3.org/2000/svg">
 <path d="m169.59 0c-27.804-1.7e-4 -51.105 5.54-75 17.875-4.4844 2.3149-8.9187 4.759-9.875 5.4062-0.9563 0.64729-4.3348 2.8884-7.5 5-20.44 13.636-40.091 34.069-53.656 55.781-2.2305 3.5703-5.2012 8.2022-6.5938 10.312-1.3926 2.1102-3.7437 6.3353-5.25 9.375-2.5788 5.2043-2.755 5.8519-2.75 11.094 4e-3 4.2804 0.4228 6.7567 1.75 10.75 3.1585 9.5034 3.4204 11.622 3.3438 25-0.0527 9.1864-0.43819 15.417-1.4688 22.719-2.437 17.268-2.6818 18.141-9.5938 37.312-0.89659 2.4868-1.9347 7.1463-2.3125 10.375l-0.6875 5.875 3.0938 9.0938c9.9782 29.342 21.355 48.16 32.094 53.125 2.7736 1.2824 4.1493 1.382 18.25 1.4688 18.875 0.11595 23.809 1.1557 29.469 6.125 3.0328 2.6629 3.4401 5.0114 4 23.5l0.46875 15.406h11.875c13.178 0 12.048 0.40706 12.906-4.6875 0.78424-4.6536 3.0986-3.5729 3.9062 1.8125l0.4375 2.875h23.281v-1.875c0-7.8008 4.0768-9.0314 4.9688-1.5l0.40625 3.375h28l0.25-2c0.2296-1.6687 0.9848-3.964 1.6875-5.0938l1.2812-2.0312 1.3125 2.0938c0.7415 1.193 1.2812 3.3498 1.2812 5.0625v1.9688h29.344l0.40625-3.375c0.89194-7.5314 4.9688-6.3008 4.9688 1.5v1.875h23.281l0.4375-2.875c0.80761-5.3854 3.122-6.4661 3.9062-1.8125 0.8585 5.0946-0.2722 4.6875 12.906 4.6875h11.875l0.46875-15.406c0.55991-18.489 0.96724-20.837 4-23.5 5.6598-4.9693 10.594-6.009 29.469-6.125 14.101-0.0868 15.476-0.18634 18.25-1.4688 10.739-4.9655 22.115-23.783 32.094-53.125l3.0937-9.0938-0.6875-5.875c-0.3778-3.2287-1.4159-7.8882-2.3125-10.375-6.9119-19.172-7.1568-20.045-9.5937-37.312-1.0307-7.3019-1.4158-13.532-1.4688-22.719-0.0767-13.378 0.185-15.497 3.3438-25 1.3269-3.9933 1.75-6.4696 1.75-10.75 5e-3 -5.2418-0.1712-5.8894-2.75-11.094-1.5064-3.0397-3.8574-7.2648-5.25-9.375-1.3927-2.1103-4.3633-6.7422-6.5938-10.312-13.565-21.713-33.216-42.145-53.656-55.781-3.1652-2.1116-6.5437-4.3527-7.5-5-0.95629-0.6472-5.3906-3.0914-9.875-5.4062-23.895-12.335-47.196-17.875-75-17.875-2.4115 2.0004e-5 -4.7977 0.0176-7.1562 0.0937-2.3484-0.0753-4.7241-0.0937-7.125-0.0937zm-97.656 140.94c0.69588-0.0453 1.4185 0.0101 2.3438 0.0937 6.1404 0.55679 10.959 3.428 28.938 17.219 23.917 18.346 41.063 36.231 49.438 51.594 0.95325 1.7485 2.2195 4.0902 2.8438 5.2188 0.62418 1.1286 1.1556 3.0084 1.1562 4.1562 2e-3 3.5443-1.2181 3.7604-14.938 2.7188-6.6134-0.50207-18.427-0.9019-26.281-0.875-12.142 0.0421-15.246 0.26919-20.688 1.4688-14.098 3.108-23.183 0.77386-28.594-7.375-1.2836-1.9332-2.3438-3.6326-2.3438-3.7812 0-0.14851-1.1128-2.7378-2.5-5.7188-3.1337-6.7342-10.575-24.777-14.719-35.75-2.998-7.9378-3.0772-8.3434-2.2812-11 1.2028-4.0146 3.8992-6.1786 15.688-12.531 7.8309-4.2201 9.8498-5.3015 11.938-5.4375zm208.5 0c0.38329-0.0186 0.74581-0.0226 1.0938 0 2.0876 0.13596 4.1066 1.2174 11.938 5.4375 11.788 6.3526 14.485 8.5167 15.688 12.531 0.79595 2.6566 0.71677 3.0622-2.2812 11-4.1442 10.973-11.585 29.016-14.719 35.75-1.3872 2.9809-2.5 5.5702-2.5 5.7188s-1.0601 1.8481-2.3438 3.7812c-5.4105 8.1489-14.495 10.483-28.594 7.375-5.4417-1.1996-8.5458-1.4266-20.688-1.4688-7.8546-0.0269-19.668 0.37293-26.281 0.875-13.719 1.0417-14.94 0.82555-14.938-2.7188 6e-4 -1.1478 0.53207-3.0276 1.1562-4.1562 0.62427-1.1285 1.8905-3.4702 2.8438-5.2188 8.3748-15.363 25.521-33.248 49.438-51.594 17.978-13.791 22.797-16.662 28.938-17.219 0.46263-0.0419 0.86671-0.0751 1.25-0.0937zm-103.72 98.656c5.5326 0.56407 11.412 7.564 23.812 28.156 8.1632 13.556 8.6048 15.384 4.4688 17.906-1.763 1.075-3.3378 1.248-12.281 1.25-5.8052 0-10.794-0.27829-11.5-0.65625-2.6279-1.4064-3.2188-3.9282-3.2188-13.906 0-6.443-0.0571-8.4774-0.53125-9.125v-0.15625c-0.0514-0.0435-0.12761-0.0398-0.1875-0.0625-0.0368-0.0195-0.0845-0.0498-0.125-0.0625-0.0188-3e-3 -0.0429 2e-3 -0.0625 0-0.12055-0.0292-0.25145-0.0312-0.40625-0.0312-0.1454 0-0.26139 0.0107-0.375 0.0312-0.0405 0.0127-0.0882 0.043-0.125 0.0625-0.0599 0.0227-0.13611 0.019-0.1875 0.0625v0.15625c-0.47415 0.64756-0.53125 2.682-0.53125 9.125 0 9.9781-0.59088 12.5-3.2188 13.906-0.70617 0.37796-5.6948 0.65625-11.5 0.65625-8.9434-2e-3 -10.518-0.17499-12.281-1.25-4.1361-2.5221-3.6944-4.3503 4.4688-17.906 12.378-20.554 18.257-27.569 23.781-28.156z" fill-rule="evenodd"/>
</svg>
