<?xml version="1.0" encoding="UTF-8"?>
<svg viewBox="0 0 400 400" xmlns="http://www.w3.org/2000/svg" xmlns:xlink="http://www.w3.org/1999/xlink">
 <g transform="translate(0 -652.36)">
  <g font-family="Eras Bold ITC" font-size="225.16">
   <path d="m167.05 697.35-5.6109 40.608-5.1198 6.1894-0.94689 0.85914-2.297 2.6476-2.1214 3.0509-1.9638 3.4015-1.806 3.7523-1.5781 4.0503-1.4027 4.3483-1.1747 4.5939-0.91173 4.8569-0.7014 5.0497-0.40323 5.2601-0.15781 5.3828 0.15781 5.3654 0.40323 5.2601 0.7014 5.0497 0.91173 4.8568 1.1747 4.5939 1.4027 4.3484 1.5781 4.0503 1.806 3.7698 1.9638 3.384 2.1214 3.0509 2.297 2.6476 2.4197 2.2093 2.56 1.7884 1.2974 0.70133 1.3501 0.59619 1.3852 0.47342 1.3676 0.33312 1.4027 0.19289 1.4378 0.0701 1.4203-0.0701 1.4026-0.19289 1.3852-0.33312 1.3676-0.47342 1.3501-0.59619 1.3151-0.70133 2.5424-1.7884 2.4197-2.2093 2.297-2.6476 2.1216-3.0509 1.9989-3.384 1.7709-3.7698 1.5956-4.0503 1.4026-4.3484 1.1572-4.5939 0.92938-4.8568 0.68375-5.0497 0.33319-4.2081-0.43839 0.0701c0.74118-15.044-0.99969-27.986-7.4693-43.449l-2.823-4.9796-1.2624-1.806-2.297-2.6476-2.4197-2.2093-2.5424-1.7884-1.3151-0.70139-1.0169-0.45584-2.2093-4.5939-5.2425-37.908zm67.33 3.0684-8.4689 42.958-1.2974 0.70132-2.56 1.7884-2.4197 2.2093-2.2968 2.6476-1.2449 1.806-2.8405 4.9796c-4.8765 13.953-7.844 28.329-7.4695 43.449l-0.43832-0.0702 0.33319 4.2081 0.68388 5.0498 0.92925 4.8568 1.1747 4.5939 1.4027 4.3483 1.5781 4.0503 1.7884 3.7698 1.9813 3.3841 2.1216 3.0509 2.2968 2.6476 2.4197 2.2093 2.56 1.7884 1.2974 0.7014 1.3501 0.59613 1.3677 0.47341 1.3852 0.33318 1.4027 0.19283 1.4202 0.0702 1.4378-0.0702 1.4026-0.19283 1.3852-0.33318 1.3676-0.47341 1.3501-0.59613 1.2976-0.7014 2.5598-1.7884 2.4197-2.2093 2.297-2.6476 2.1216-3.0509 1.9638-3.3841 1.806-3.7698 1.5781-4.0503 1.4026-4.3483 1.1747-4.5939 0.92938-4.8568 0.68369-5.0498 0.40336-5.2601 0.15787-5.3828-0.15787-5.3654-0.40336-5.2601-0.68369-5.0497-0.92938-4.8568-1.1747-4.5939-1.4026-4.3484-1.5781-4.0503-1.806-3.7522-1.9638-3.4016-2.1216-3.0509-2.297-2.6476-0.94669-0.85914-5.1198-6.1894-5.6109-40.608zm-139.92 74.905-0.07005 0.0351h-0.08763l-0.07018 0.0175h-0.38572l-0.1578 0.0351-0.14036 0.0175-0.31554 0.0526-0.07018 0.0176-0.10514 0.0526-0.15787 0.0526-0.14036 0.035-0.15767 0.0526-0.1578 0.0701-0.15787 0.0877-0.28052 0.12278-0.14036 0.1052-0.14016 0.10514-0.28052 0.15787-0.57868 0.42081-0.31554 0.28052-0.28052 0.263-0.52601 0.54353-1.0521 1.3501-1.0169 1.6131-0.91193 1.841-0.87658 2.0865-0.754 2.2619-0.71891 2.4723-1.1046 5.453-0.70139 6.0667-0.26301 6.4349 0.26301 6.4525 0.70139 6.0667 1.1046 5.453 0.71891 2.4723 0.754 2.2619 0.87658 2.0865 0.22805 0.4559-0.03502 0.24543-0.08769 3.612 0.14023 3.7698 0.42081 3.8925 0.68375 4.0679 0.9644 4.1029 1.2274 4.2081 1.5079 4.2432 1.7884 4.2256 2.0163 4.138 2.1918 3.9101 2.3145 3.6645 2.4722 3.4016 2.56 3.1386 2.6475 2.8405 2.7353 2.5424 2.7528 2.2444 2.7704 1.8761 2.7879 1.5254 2.7528 1.1923 2.7351 0.78902 2.6652 0.42081 2.6125-0.0351 1.2449-0.15781 1.2274-0.263 1.1923-0.38572 1.1747-0.49099 1.1222-0.59613 1.0521-0.70133 0.99942-0.8066 0.92918-0.89422 1.6658-2.0164 1.4202-2.3671 1.1573-2.6476 0.91174-2.9457 0.64866-3.1912 0.36821-3.4191 0.1052-3.6119-0.14023-3.7698-0.42081-3.8926-0.68388-4.0678-0.96427-4.1029-1.2274-4.2081-1.5079-4.2432-1.7884-4.2257-2.0163-4.1379-2.1568-3.9101-2.3495-3.6646-2.4546-3.4015-2.5775-3.1386-2.63-2.8405-2.7178-2.5424-2.7528-2.2093-2.7879-1.9112-2.7879-1.5254-2.7704-1.1923-2.7351-0.78902-2.6827-0.42081-2.5775 0.0351-1.2624 0.1578-1.2274 0.26301-0.87671 0.28052-0.01718-0.0877-1.1922-3.2964-1.1048-3.4541-0.91173-3.612-0.75386-3.7698-0.57868-3.8048-0.33305-3.7348-0.1578-3.6119v-3.5243l0.22785-3.3666 0.42081-3.2087 0.1052-0.49092 0.08769-0.49092 0.1578-0.92932h-0.01784l-0.03502-0.0351h-0.17591zm209.07 0.0526-0.035 0.0351h-0.0172l0.15787 0.92931 0.0876 0.49092 0.10521 0.49093 0.42087 3.2087 0.22785 3.3666v3.5243l-0.15773 3.6119-0.33319 3.7348-0.57868 3.8048-0.75387 3.7698-0.91173 3.612-1.1048 3.4541-1.1922 3.2964-0.0172 0.0877-0.87677-0.28052-1.2274-0.263-1.2624-0.15781-2.5775-0.0351-2.6827 0.42081-2.7352 0.78902-2.7704 1.1923-2.7879 1.5254-2.7878 1.9112-2.7528 2.2093-2.7179 2.5424-2.63 2.8405-2.5775 3.1386-2.4547 3.4015-2.3495 3.6646-2.1566 3.9101-2.0165 4.138-1.7884 4.2256-1.5079 4.2432-1.2274 4.2081-0.9642 4.1029-0.68389 4.0678-0.42087 3.8926-0.14016 3.7697 0.10513 3.612 0.36821 3.4191 0.64873 3.1912 0.91173 2.9457 1.1572 2.6476 1.4202 2.3671 1.6658 2.0164 0.92925 0.89422 0.99935 0.8066 1.0521 0.70133 1.1222 0.59613 1.1748 0.49099 1.1922 0.38572 1.2275 0.263 1.2449 0.15781 2.6126 0.0351 2.6652-0.42081 2.7352-0.78902 2.7528-1.1923 2.7879-1.5254 2.7703-1.8761 2.7528-2.2443 2.7354-2.5424 2.6475-2.8405 2.56-3.1386 2.4722-3.4016 2.3145-3.6646 2.1918-3.91 2.0163-4.138 1.7885-4.2256 1.5079-4.2432 1.2274-4.2081 0.9644-4.1029 0.68369-4.0679 0.42088-3.8925 0.14029-3.7698-0.0876-3.612-0.035-0.24543 0.22798-0.4559 0.87658-2.0865 0.75407-2.2619 0.71884-2.4723 1.1046-5.453 0.70139-6.0667 0.26301-6.4525-0.26301-6.4349-0.70139-6.0667-1.1046-5.453-0.71884-2.4723-0.75407-2.2619-0.87658-2.0865-0.91186-1.841-1.0169-1.6131-1.052-1.3501-0.52608-0.54352-0.28052-0.26301-0.31547-0.28052-0.57875-0.42081-0.28052-0.15781-0.14016-0.1052-0.14036-0.1052-0.28051-0.12278-0.15781-0.0876-0.15787-0.0702-0.15767-0.0526-0.14036-0.035-0.1578-0.0526-0.10521-0.0526-0.0702-0.0176-0.31555-0.0526-0.14029-0.0175-0.15774-0.0351h-0.38577l-0.0702-0.0175h-0.0877l-0.07-0.0351h-0.1753zm-105.71 88.616-3.6821 0.21041-3.5592 0.5611-3.4542 0.94682-3.3139 1.2975-3.1385 1.6131-2.9808 1.8936c-9.7139 10.55-12.701 21.099-17.516 31.649l-2.069 2.9282-2.332 2.7002-2.5775 2.4723-2.7528 2.2093-2.9807 1.8936-3.1385 1.6131c-11.441 2.8764-18.632 7.1696-24.863 11.783l-2.5775 2.4723-2.332 2.7002-2.0515 2.9457-2.7703 5.2952-0.56104 1.2098-1.21 3.5067-0.87671 3.6646-0.56104 3.7873-0.17531 3.9101 0.17531 3.8925 0.56104 3.8048 0.87671 3.6646 1.21 3.5068 1.5079 3.3314 1.8234 3.1736 2.0515 2.9281 2.332 2.7003 2.5775 2.4723 2.7528 2.2092 2.9807 1.9112 3.1385 1.5956 3.3139 1.315c6.521 3.3298 12.169 3.3939 19.27 0.6138l0.035-0.053 2.069-0.5611 3.3139-1.315 3.1385-1.5957 2.9982-1.9111c18.088-11.653 38.07-18.687 69.224 1.5079l2.9807 1.9112c9.9347 6.6294 20.398 6.1215 31.158 1.6131l3.1211-1.6131 2.9984-1.9112 2.7528-2.2093 2.5773-2.4722 2.3145-2.7003 2.069-2.9282 1.8061-3.1736 1.5078-3.3315 1.2274-3.5068 0.8592-3.6645 0.56104-3.8048 0.19289-3.8926-0.19289-3.91-0.56104-3.7873-0.8592-3.6646-1.2274-3.5068-1.5078-3.3314-1.8061-3.1737-2.069-2.9457-2.3145-2.7002-2.5773-2.4723-2.7528-2.2093-2.9984-1.8936-11.344-3.2964-3.3139-1.315-3.1387-1.6131-2.9807-1.8936-2.7528-2.2092-2.5774-2.4723-2.332-2.7002-2.0514-2.9457-1.8236-3.1561-8.9773-22.724-2.069-2.9457-2.3145-2.7002-2.5775-2.4723-2.7528-2.2093-2.9807-1.8936-3.1385-1.6131-3.3139-1.2975-3.4542-0.94682-3.5769-0.56111-3.6646-0.2104z" fill-rule="evenodd"/>
  </g>
 </g>
</svg>
