<?xml version="1.0" encoding="UTF-8"?>
<svg enable-background="new 0 0 264.283 216.17" viewBox="0 0 264.283 216.17" xmlns="http://www.w3.org/2000/svg">
 <path d="m150.329,71.05c-2.739-1.028-5.686-1.682-8.305-2.988-2.926-1.459-3.113-4.441-3.688-7.341-.249-1.255.13-2.437-.331-3.663-.634-1.684-1.326-3.107-2.219-4.671-1.395-2.443-3.473-4.144-5.29-6.221-3.84-4.39-8.745-7.562-12.871-11.696-1.85-1.854-2.981-4.841-2.981-7.479 0-2.354-.458-5.228 0-7.529 1.063-5.346 8.632-5.818 12.905-5.818 5.068,0 11.104.372 15.67,2.651 2.196,1.097 3.766,3.703 5.474,5.411 1.423,1.423 2.899,4.453 3.289,6.405 .796,3.993.902,10.596-2.815,13.461 1.324-.916.809-2.038 1.223-3.285 .235-.708.872-2.847.656-3.492-.327-.972-.717-2.502-.717-3.51 0-1.778-1.98.488-2.326.978-.717,1.014-1.75,2.004-2.328,3.102-.675,1.282-.946,2.609-1.709,3.883-1.1,1.834-2.513,5.454-1.008,7.365 1.743,2.213 5.223,2.396 6.863,4.861 .939,1.412.772,1.833.372,3.443-.337,1.353-.805,2.732-1.026,4.108-.137.85-.689,2.507-.289,3.303 .27.537.144,1.06.39,1.553 .304.608.87.967 1.162,1.551 .59,1.182 1.505,5.235-.101,5.618"/>
 <path d="m117.36,25.668c-7.197,0-3.447,9.186 0,12.024 3.101,2.553 2.71-1.561 2.297-3.634-.244-1.229-1.537-8.334-2.297-8.39" fill="#f5e0d9"/>
 <path d="m146.837,25.668c1.202,0 2.938-.335 3.593.977s1.063,2.434 1.063,3.865c0,1.865-2.012,5.859-3.678,6.693-.996.499-1.764,1.992-2.918.877-1.029-.994.084-2.73.391-3.879 .402-1.506.266-3.007.639-4.497 .262-1.045.598-3.375 1.301-4.037l-.391.001" fill="#bf8ce0"/>
 <path d="m101.459,74.929c4.342-.622 8.459-2.064 12.525-3.692 4.229-1.693 7.949-3.142 8.808-7.944 .666-3.723.726-8.027-.029-11.78-.816-4.055-1.543-8.793-3.85-12.269h27.15c-1.35,4.041-2.941,7.696-3.777,11.91-.8,4.033-.1,7.938-.1,11.957 0,4.583 4.683,6.477 8.337,7.939 4.206,1.684 8.642,3.022 12.995,4.267-4.515,2.507-9.368,5.704-14.389,7.099-5.808,1.613-11.426,2.852-17.456,3.229-10.469.655-22.792-2.886-30.214-10.716" fill="#f5e0d9"/>
 <path d="m163.128,74.929c-4.251-.71-8.6-2.275-12.604-3.879-3.654-1.463-8.337-3.357-8.337-7.939 0-4.019-.7-7.924.1-11.957 .836-4.213 2.428-7.869 3.777-11.91-2.901.83-5.817,1.765-8.533,3.104-1.219.601-2.321,1.383-3.574,1.919-1.319.564-3.083.912-4.291,1.636-1.242.745-2.54,1.421-3.57,2.449-.814.812 1.09,1.987 1.738,2.528 1.394,1.165 4.656,3.129 4.656,5.229 0,.873 1.053,1.507 1.75,1.854 1.426.709 2.352,1.678 3.477,2.801 2.213,2.21 1.01,4.364.141,6.978-.827,2.487-1.765,4.915-2.596,7.394-.271.809-.36,2.508.523,2.508 .469,0 1.771-2.788 1.939-3.296 .442-1.333 1.901-5.355 3.847-4.38 2.34,1.173 4.739,2.176 7.077,3.347 4.418,2.212 10.05,2.004 14.871,2.004l-.391-.39" fill="#e0bdd9"/>
 <path d="m132.489,3.561c5.655,0 11.277,2.385 13.909,7.651 2.693,5.388 2.378,11.277 2.378,17.173 0,4.783-1.683,10.47-4.387,14.532-1.502,2.256-2.172,4.845-4.734,6.125-2.247,1.122-4.482,2.227-6.984,2.227-4.8,0-9.941-2.873-11.493-7.551-.444-1.34-1.392-2.37-1.878-3.697-.522-1.427-.976-2.73-1.666-4.109-1.049-2.096-1.05-4.641-1.05-6.953 0-2.584-.547-5.238-.334-7.797 .282-3.395.978-6.136 2.177-9.325 2.09-5.56 8.484-8.276 14.062-8.276" fill="#f5e0d9"/>
 <path d="m132.489,50.88c1.926,1.07 4.991-.753 6.791-1.652 2.71-1.353 3.262-3.537 4.843-5.912 2.752-4.135 4.653-9.837 4.653-14.732 0-5.7.443-11.728-2.167-16.951-2.708-5.418-8.069-8.073-14.004-8.073h-.116c2.281,0 4.975.161 6.59,1.939 1.551,1.708 2.33,5.267 2.33,7.614 0,1.13.201,2.519 0,3.634-.238,1.322-1.246,2.487-1.839,3.678-.2.402-2.803.682-3.435.84-1.571.392-2.363,1.593-2.737,3.082-.683,2.713-2.98,12.569 1.618,12.569 1.092,0 2.021,1.165.373,1.165-1.199,0-2.277.774-3.477.774-2.05,0-3.429,1.108-5.242,1.553 2.662,0 5.075.386 7.758.386 .604,0 3.028.072 2.133.971-.804.807-2.548.59-3.501,1.069-1.161.584-3.251.573-.962,1.453 1.024.394 3.448.696 3.98,1.751 .676,1.342.354,2.842-.684,3.872-.583.583-2.745,1.825-2.905.97" fill="#e0bdd9"/>
 <path d="m130.549,7.826c-.59,2.306-2.903,4.3-4.655,5.818s-4.337,3.691-6.594,4.267c1.463-.146 3.18-3.567 4.265-4.653-1.437.957-2.974,2.457-4.466,3.203-1.567.783-2.515,1.63-2.515,3.426 0,2.006.021,4.046-1.163,5.782-.893,1.309-2.678,1.445-3.492,2.716 0-1.747-.361-3.967.195-5.625 .512-1.527.397-3.931 1.357-5.237-.76.765-1.317,1.484-1.939,2.328-.604.818-1.198,2.048-1.939,2.716 1.085-2.71 1.11-5.482 1.939-8.146 .456-1.465 1.644-2.123 2.226-3.29 .648-1.299 1.981-2.634 2.818-3.887 2.396-3.585 8.514-9.275 12.797-6.399 1.473-1.639 3.869-.388 5.636-.388 .923,0 1.771.777 2.693.777 1.357,0 2.186.416 3.307,1.163 2.07,1.378 3.696,2.92 5.455,4.676 1.854,1.852 3.183,3.96 5.02,5.797-.625-.312-2.273-1.56-2.717-.776-.293.518 1.038,2.461 1.28,2.945 .281.563 1.437,2.231 1.437,2.679 0,.33 1.091,1.033 1.162,1.745-.958-1.5-1.471-.47-2.133.194-.374.375.757,2.484 1.071,3.111 .489.975.892,2.465.389,3.477-.514,1.03.276,2.272-.489,3.304 .143-1.259-.491-2.16-1.164-2.714-.687-.565-1.577-1.202-2.326-2.328-1.425-2.141-1.011-5.675-2.91-7.563-2.015-2.002-4.143-3.195-6.968-4.134-2.137-.711-7.427-2.232-7.577-4.984"/>
 <path d="m129.383,6.275c.625.838.498,2.274.837,3.286 .422,1.257 1.167,2.36 1.964,3.423 1.717,2.292 4.13,4.116 6.508,5.704-1.176-1.767-2.816-3.068-3.998-4.837-1.228-1.836-2.011-3.675-2.982-5.637l1.67,2.509c.732,1.096 1.742,1.644 2.475,2.739 1.149,1.72 4.045,2.039 5.162,3.674-2.149-2.173-5.121-4.422-6.489-7.17-.545-1.093-.247-2.401-1.469-3.016-1.099-.552-2.435-.675-3.678-.675"/>
 <path d="m130.549,7.826c.229,1.777-1.154,3.603-1.939,5.043-1.02,1.871-2.388,3.544-3.878,5.042 .501-1.005.95-2.506 1.744-3.297 .353-.351.195-1.057.195-1.544 0-.478.595-.94.772-1.365 .403-.968.759-1.896 1.267-2.915 .242-.487 1.728-2.464 1.839-.964"/>
 <path d="m136.368,25.28h-.391c.841-.079 1.198-1.163 2.141-1.163 .929,0 1.727-.388 2.715-.388 1.792,0 2.891,1.921 4.842,1.551h-2.91c-1.183,0-.585,1.553-1.551,1.553-1.929,0-2.735-1.743-4.846-1.553"/>
 <path d="m128.61,25.28h.387c-1.793-.625-2.808-1.551-4.848-1.551-1.729,0-2.623,1.873-4.462,1.551 .753,0 2.013-.237 2.716,0 .942.318.918,1.553 2.134,1.553 1.404,0 2.595-1.732 4.073-1.553"/>
 <path d="m135.2,21.79c1.158-.41 1.976-1.461 3.107-1.939 .812-.343 1.983-.388 2.9-.388 .912,0 2.073.475 2.918.777 .837.299 1.974.632 2.711,1.163-2.242,0-3.953-.924-6.205-.774-.896.06-2.265.322-2.908.969-.447.447-1.883.192-2.523.192"/>
 <path d="m130.159,21.79c-3.228-3.634-8.048-2.005-11.636-.388 2.256,0 4.126-.774 6.394-.774 1.072,0 1.935.455 2.917.774 .907.295 1.625.388 2.716.388h-.391"/>
 <path d="m132.489,34.591c.354,0 1.939-.157 1.939.193 0,.063 1.735.969.967.969-.372,0-1.744.156-1.744-.194 0-.676-.4-1.06-1.162-.968"/>
 <path d="m131.712,34.591c-1.227,0-2.007.05-2.715,1.163 .445,0 1.562.21 1.939,0 .408-.228.022-.945.776-1.163"/>
 <path d="m141.019,48.166c-.725.948-2.492,1.939-3.683,1.939-1.581,0-2.152-.205-3.499-.877-1.506-.752-1.696-1.159-3.288-.288-1.225.671-2.449,1.842-3.878.776 4.121,4.124 11.954,4.468 14.348-1.55" fill="#bf8ce0"/>
 <path d="m148.39,32.651c.086.719-.194,1.264-.387,1.939-.182.635-.207,1.332-.389,1.939-.396,1.33-1.434,2.549-1.939,3.879-1.147,3.02-2.737,5.272-4.535,7.962-1.686,2.522-5.238,3.286-8.04,3.286-1.589,0-2.788-.078-4.298-.583-1.538-.513-2.643-1.599-4.07-2.133 2.224,1.12 4.714,1.939 7.182,1.939 2.544,0 5.819-.207 7.742-2.126 2.332-2.33 3.74-4.564 5.242-7.571 1.194-2.389 3.831-5.686 3.492-8.531"/>
 <path d="m149.554,32.651c.603-.813.389-1.949.389-2.903 0-1.299-.242-1.611-1.166-2.529 0,1.245-.062,2.292.391,3.104 .081.149 1.667,2.203.386,2.328"/>
 <path d="m115.807,28.772c-.872.874-1.569,1.751-1.163,3.103 .335,1.113 1.827,1.696 2.33,3.102-.45-.772-1.789-3.879-1.747-3.879 .06,0 .97-1.405.97-1.357 0-.408.569.017.387-.583-.007-.021-.642-.071-.777-.386" fill="#bf8ce0"/>
 <path d="m126.671,40.021c3.306,0 7.143-1.739 10.084.388-1.743,0-3.299.425-5.043.386-1.026-.023-4.405-.04-5.041-.774"/>
 <path d="m157.7,172.672c-2.848,3.558-8.041,10.258-4.924,14.922 .848,1.269 2.111,1.666 3.17,2.72 .946.943-2.332,1.812-2.984,1.998-2.662.761-5.768,1.307-8.549,1.307-2.51,0-6.645.42-8.822-1.164-.743-.54-1.939-2.365-1.939-3.261 0-.845.083-3.267.508-3.902 3.094-4.632 6.007-9.996 11.904-11.454 3.825-.946 7.723-1.166 11.636-1.166"/>
 <path d="m132.489,190.126c-2.229,2.224-3.824,3.503-7.124,2.951-2.863-.479-5.706-1.28-8.459-2.197-5.781-1.926-11.049-4.665-16.662-6.978-10.826-4.461-22.448-9.878-34.471-8.902-1.668.136-3.382.538-5.042.776l71.758,14.35" fill="#f5e0d9"/>
 <path d="m168.946,169.958c0,.995-.065,2.301.391,3.103 .384.676 1.355,1.209 2.326,1.551 2.29.807 4.672.776 7.139.776 1.2,0 2.394-.388 3.516-.388 1.273,0 2.6-.664 3.858-.349 2.608.655 5.326.85 7.983,1.513 2.552.637 4.892,1.939 7.515,1.939 2.718,0 5.438-.388 8.115-.388 5.422,0 11.772,1.022 15.787,5.042 4.065,4.07 6.186,9.46 4.265,15.126-.878,2.59-2.317,5.041-4.262,6.982-.933.932-1.985,1.813-2.719,2.91-.747,1.118-2.603,1.756-3.77,2.456-2.334,1.4-5.307,2.16-7.902,2.901-2.807.801-5.69,1.914-8.578,2.327-5.774.826-11.719,1.084-17.494-.069-5.698-1.138-11.679-2.06-17.438-2.781s-11.531-.339-17.29-.863c-6.144-.56-12.322-.476-18.286-2.264-2.556-.767-5.875-1.68-7.595-3.829-1.793-2.24-1.475-5.457-.437-8.058 1.051-2.632 2.167-5.205 3.341-7.784 1.019-2.241 3.055-4.433 4.396-6.539 1.348-2.116 2.999-3.99 4.388-6.075 1.6-2.402 2.87-4.896 4.912-6.938 1.825-1.825 4.198-2.766 6.508-3.793s4.853-2.328 7.462-2.328c2.378,0 5.399-.314 7.668.535 1.404.526 2.637.965 3.877,1.792 1.41.942 1.649,1.914 2.324,3.493" fill="#d59758"/>
 <path d="m125.118,206.418c2.763,1.577 5.487,2.616 8.532,3.529 2.844.853 6.053.921 8.992,1.454 2.743.498 5.954.183 8.768.438 2.756.251 5.567-.262 8.314.131 2.804.4 5.638.116 8.424.733 3.062.68 6.143.91 9.211,1.524 5.757,1.151 11.703,1.886 17.576,1.886 7.635,0 15.197-2.274 22.253-5.099 1.801-.721 3.393-1.71 5.123-2.577 .573-.287 1.188-1.495 1.691-1.999l1.986-1.983c2.76-2.765 3.688-6.346 4.634-10.063-.53,2.607-1.584,5.467-3.507,7.385-1.962,1.957-3.939,4.667-6.654,5.569-1.433.477-2.778,1.356-4.192,1.786-1.421.432-3.062.472-4.525.839-2.955.741-5.973,1.261-8.96,1.857-2.613.521-5.678.9-8.333,1.193-3.062.338-6.093.764-9.174.764-5.738,0-11.521-.612-17.129-1.858-2.444-.544-5.968-1.075-8.121-2.409-2.714-1.682-.362-5.072 1.079-6.995 1.706-2.276 3.137-4.588 5.148-6.601 2.111-2.113 4.351-3.583 6.962-5.021 2.095-1.154 5.023-2.707 6.711-4.388 .767-.763 1.937-1.963 1.332-3.183-.521-1.05-2.502-.354-3.552-.003-6.076,2.024-11.993,4.24-17.896,6.725-11.729,4.939-23.311,10.677-34.693,16.366"/>
 <path d="m199.591,186.636c-3.418-1.364-6.843-2.884-10.475-3.49-3.44-.574-7.14-.718-10.473-1.552l-.387,2.715c3.391,0 7.203-.479 10.546.077 1.889.314 3.758.224 5.629.599 1.86.371 3.369,1.12 5.16,1.651"/>
 <path d="m94.864,173.448c-.244,1.427-6.103.886-7.373.728-3.126-.391-6.132-1.186-9.207-1.869-2.869-.638-5.722-1.298-8.549-2.104-2.681-.765-5.439-1.953-8.23-2.185-2.597-.216-5.306,0-7.914,0-2.517,0-5.151-1.076-7.601-.776-5.976.731-10.166,4.455-12.352,9.941-.826,2.072-1.359,5.154-.64,7.319 .34,1.026.207,2.316.583,3.298 .505,1.318 1.628,2.017 2.527,2.915 .936.935 2.333,1.265 3.292,2.126s1.608,2.385 2.527,3.304c1.502,1.503 2.478,4.458 4.454,4.843 1.035.201 2.099.068 3.102.388 1.481.473 2.434,1.363 3.697,2.205 2.209,1.473 5.122,2.94 7.553,3.999 5.116,2.229 11.787,3.493 17.328,3.493 11.583,0 23.061-2.716 34.674-2.716 5.71,0 11.336-.389 17.041-.389 3.143,0 6.206,0 9.332.349 2.631.292 5.262.472 7.859-.392 3.732-1.24 6.821-2.335 9.945-4.834 3.034-2.429 5.114-5.797 8.154-8.229 3.103-2.482 6.071-4.659 9.699-6.287 .9-.404 1.718-.884 2.535-1.43 .671-.447 1.307-.294 1.935-.61 1.229-.619 3.031-1.894.962-2.613 1.043-.304 2.362-.571 1.939-1.939-.255-.826-2.058-1.871-2.875-2.076-2.343-.586-5.23-.035-7.411-1.129-1.593-.798-4.953-1.672-6.601-1.122-.525.176-1.135-.147-1.545.262-.543.54-1.1.923-1.738,1.35-1.28.855-2.283,1.896-3.371,2.981-2.804,2.797-8.725,8.593-12.732,4.575-4.114-4.125-10.712-.706-13.373,3.303l-2.515-7.9c-.709-2.228-2.241-4.305-3.372-6.34-2.345-4.221-6.188-7.392-9.84-10.435-1.37-1.142-4.072-2.284-5.85-2.58-3.192-.532-5.185-.478-8.384.055-2.398.4-4,2.312-5.238,4.167-.81,1.213-1.677,6.332-2.427,6.354" fill="#e4bc96"/>
 <path d="m161.579,197.884c3.471-3.475 6.939-5.949 11.139-8.468 1.763-1.058 3.574-2.151 5.539-2.78 1.145-.366 4.657-1.769 1.939-2.714 1.069.235 1.798-1.128 1.939-1.939-2.472.615-5.217,1.091-7.576,1.879-2.559.854-4.49,2.429-6.389,4.325-4.2,4.197-8.74,7.91-12.324,12.687-7.579,10.104-22.775,4.52-33.055,3.993-2.368-.121-5.662-.137-7.757,1.163 1.593,1.64 4.019,1.185 6.167,1.49 2.131.304 4.471.061 6.626.061 4.044,0 8.131.777 12.172.777 4.408,0 8.351-.682 12.463-2.327 1.999-.801 3.999-2.256 5.509-3.765 .884-.884 3.571-3.2 3.608-4.382" fill="#e6c7c7"/>
 <path d="m161.188,198.66c-3.786,4.74-8.454,7.852-14.352,9.309-2.829.699-5.286.62-8.121.305-3.083-.343-6.127-.305-9.227-.305-11.427,0-22.855.414-34.238,1.551-5.863.585-11.826,1.554-17.718,1.554-2.896,0-5.576-.492-8.376-1.191-2.547-.636-6.276-1.015-8.531-2.366-2.536-1.52-5.394-2.566-7.845-4.201-1.127-.751-1.96-1.512-3.297-1.938-.761-.243-2.773-.06-3.297-.582-.364-.362-.799-.026-1.163-.389-.327-.325-.377-.767-.776-1.162-.407-.404-.613-1.033-.868-1.545-.345-.692-1.157-1.165-1.653-1.754-.767-.909-1.452-2.316-2.326-3.103-1.008-.906-2.444-1.42-3.493-2.327-4.502-3.894-3.866-12.052-.386-16.678-1.365,3.41-2.255,6.782-1.167,10.472 1.047,3.548 3.856,6.723 7.371,7.757 3.483,1.025 7.249,2.148 10.791,2.857 2.189.438 4.079.975 6.17,1.758 1.282.48 4.263.565 5.148,1.592-1.805.963-5.034-.085-7.004-.305-1.706-.19-4.938-.693-6.185.692 .885,1.152 2.263,1.324 3.492,1.939 1.447.724 2.58,1.377 4.136,1.896 1.377.46 2.291,1.185 3.752,1.368l4.804.601c5.758.722 11.795.319 17.558-.258 5.7-.571 11.571-1.668 17.291-1.668 6.245,0 12.562.297 18.739,1.246 3.644.56 7.283,1.165 10.904,1.856 3.633.693 7.28,1.938 11.003,1.938 6.567.001 15.723-2.637 18.864-8.919" fill="#d59758"/>
 <path d="m139.47,208.357c-5.425-.604-11.728-1.042-17.151-.266-5.603.802-11.35-.274-16.962.35-5.951.661-11.906,1.259-17.864,1.855-6.113.612-11.806,1.217-17.838-.291-2.224-.556-4.431-1.139-6.634-1.77-2.441-.7-4.449-1.925-6.718-3.063-2.181-1.093-4.133-2.46-6.245-3.512-1.688-.84-3.769-.396-5.23-1.451 5.415,0 9.542,2.595 14.469,4.705 5.56,2.382 11.332,2.88 17.289,3.476 5.968.596 11.761-.034 17.712-.034 6.195,0 12.501-.16 18.679-.603 4.566-.326 9.066-.117 13.625.209 4.301.309 8.562-.084 12.868.395"/>
 <path d="m132.489,190.126c-2.229,2.224-3.824,3.503-7.124,2.951-2.863-.479-5.706-1.28-8.459-2.197-5.781-1.926-11.049-4.665-16.662-6.978-10.826-4.461-22.448-9.878-34.471-8.902-1.668.136-3.382.538-5.042.776 5.594-1.4 11.444-1.4 17.162-.766 3.084.343 6.03,1.087 9.096,1.523 2.868.408 5.257,1.569 8.189,1.569 5.471,0 11.35,1.142 16.376-1.87 2.209-1.324 4.272-3.742 7.096-2.332 2.525,1.261 5.139,2.997 6.969,5.192 2.849,3.419 5.065,6.977 6.87,11.034" fill="#bf8ce0"/>
 <path d="m152.269,187.024c-1.364,1.984-4.915,1.29-6.399-.194-1.829-1.829-4.62-2.209-6.995-1.418-1.122.374-2.086,1.342-3.078,1.673-1.629.544-2.016,1.754-3.121,2.856-.99.985-1.434,1.778-2.701,2.412-1.203.602-2.625.78-3.898,1.204-.553.185-2.85-.312-3.479-.521-1.25-.418-2.563-.788-3.844-1.106-1.204-.299-2.418-.957-3.533-1.516-2.034-1.019.494,1.666.978,2.04 4.325,3.346 10.029,7.41 15.845,6.882 6.972-.634 12.887-3.529 19.451-5.718 1.474-.491 7.756-2.08 7.756-4.079 0-2.594-5.274-2.845-6.98-2.127-.002-.129-.002-.259-.002-.388" fill="#f5e0d9"/>
 <path d="m180.583,177.327c5.439-1.813 10.837-1.407 16.147.719 4.899,1.961 10.168.832 15.272.832 5.347,0 11.878,2.069 15.125,6.595 2.937,4.093 2.851,12.848-1.176,16.067-4.369,3.493-11.407,2.55-16.607,2.55-6.125,0-12.084-1.037-17.926-2.98-2.586-.86-5.538-1.155-8.211-1.691-2.931-.586-5.83-1.146-8.832-1.146-2.403,0-7.576-.172-4.265-3.491 1.709-1.713 4.485-3.813 6.736-4.713 5.371-2.145 10.225-4.931 16.264-3.721 2.861.573 5.512,1.14 8.225,2.228 2.331.935 5.665,1.551 8.181,1.551 .733,0 2.773-1.144 1.594-2.025-1.129-.846-2.255-1.987-3.47-2.681-2.665-1.522-5.282-3.035-8.279-3.786-2.455-.614-4.811-.816-7.347-.816-2.327,0-5.176-1.534-7.371-2.267-1.279-.428-2.653-1.394-4.06-1.225" fill="#e6c7c7"/>
 <path d="m208.124,180.817c2.354.472 5.205,1.165 7.563,1.165 1.146,0 2.265.387 3.502.387 1.336,0 2.395.024 3.674.388 2.162.613 4.926,2.398 4.226,5.205-.371,1.489-2.276,5.661-.931,7.014 1.885,1.894 1.579,4.19-.761,5.745-2.543,1.69-5.256,1.947-8.213,2.441-5.575.933-11.838-2.773-17.102-4.087-2.885-.72-5.434-1.824-8.444-2.16-3.074-.343-6.07-.582-9.164-.582-1.603,0-7.117-.328-7.709-2.328-.73-2.467 4.317-4.058 5.9-4.511 5.345-1.526 11.903,2.769 16.668,4.932 5.473,2.486 10.571,5.785 16.738,5.785 .85,0 3.359.121 3.359-1.344 0-1.194-.387-2.346-.387-3.491 0-1.085-.256-2.671.588-3.512 1.108-1.104 2.752-1.296 3.23-2.719 .781-2.324-2.938-4.695-4.582-5.683-2.435-1.463-5.37-2.18-8.155-2.645" fill="#e4bc96"/>
 <path d="m184.462,176.551c5.354,0 10.83,1.415 15.904,3.104-2.669,0-5.296-.285-7.901-.806-1.419-.284-2.909-.153-4.282-.495-.831-.208-3.693-1.03-3.721-1.803" fill="#f5e0d9"/>
 <path d="m63.444,182.757c3.663,2.287 6.988,3.589 11.171,4.636 3.7.926 7.4,1.367 11.114,2.163 8.242,1.765 16.493,3.003 24.649,5.226-7.53-3.168-15.144-6.291-23.157-8.01-7.851-1.685-16.052-1.807-23.777-4.015" fill="#e6c7c7"/>
 <path d="m47.157,170.347c-3.131,0-6.095.274-8.413,2.593-2.244,2.243-4.363,5.17-.711,7.003 1.032.518 2.752.801 3.875.427 1.858-.618 1.758-1.485 1.758-3.243-.001-3.169-.084-5.761 3.491-6.78" fill="#fff"/>
 <path d="m26.21,75.704c.723,2.468 2.257,5.334 3.794,7.385 .877,1.17 1.487,2.397 2.139,3.705 .614,1.232 1.084,2.729 1.825,3.843 1.522,2.29 2.917,4.795 4.336,7.163 1.514,2.525 3.396,4.761 4.909,7.275 1.359,2.261 3.041,4.637 4.905,6.5 1.941,1.94 3.175,4.992 4.385,7.409 1.342,2.682-.072,5.209-.595,7.805-.455,2.261-2.338,5.904-4.571,6.648-.97.323-1.794,1.122-2.897.835-1.36-.354-2.008-1.616-2.902-2.513-1.772-1.779-2.971-4.938-4.079-7.184-2.577-5.224-4.982-10.561-7.025-16.01-2.082-5.556-3.36-11.732-6.008-17.033-1.309-2.619-1.939-5.898-3.527-8.277-.703-1.053-1.209-1.979-1.771-3.099-.634-1.261-.716-2.413-1.062-3.678-1.842-6.745-8.554-10.505-12.292-16.109-.425-.637-1.221-.861-1.672-1.539-.536-.804-.659-1.626-1.351-2.321-.935-.939-1.271-3.402-1.692-4.673-.274-.826-1.57-3.699-.837-4.061 .875-.432 2.827,1.933 3.103,2.714-.938-1.876-1.75-8.144.972-8.144 1.337,0 .967,3.634.967,4.466 0,.937-.135,1.857.289,2.702 .266.53.541,1.525.488,2.141-.275-2.136 1.026-4.904 2.33-6.595 .71-.921 1.869-2.101 2.901-2.614 1.516-.754 1.126.33.978,1.063-.369,1.814-2.33,3.893-2.33,5.624 0,1.998 1.685,3.287 2.716,4.85 .695-1.884 3.068-4.25 4.856-5.144 .766-.382 5.02-2.894 5.617-2.227 1.378,1.538-3.689,4.084-4.269,4.655-1.391,1.369-2.012,3.79-1.939,5.818 .105,2.916 1.985,3.103 4.47,3.103 1.226,0 1.592-1.022 2.32-1.746 .708-.704-.11-1.911-.195-2.52-.125-.888.11-1.826 0-2.716-.105-.847-.776-1.779-.776-2.522 0-1.736.62-5.033 2.716-2.908 1.476,1.497 1.751,4.952 1.939,6.981 .215,2.312.776,4.458.776,6.795 0,1.086-.48,2.254-.776,3.29-.268.936-1.163,2.358-1.163,3.304 0,1.165-.386,2.26-.386,3.473-.002,1.404.498,2.715.384,4.086" fill="#f5edd9"/>
 <path d="m28.149,102.08c1.876,5.632 3.944,11.375 6.595,16.678 1.368,2.737 2.554,5.534 4.07,8.191 1.106,1.939 2.167,5.401 4.263,6.448 .87.435 1.62,1.327 2.728.774 1.451-.724 2.276-.983 3.292-2.227 1.938-2.373 2.273-4.938 3.605-7.598 1.228-2.453-.176-5.671-1.545-7.735-1.526-2.301-2.567-4.951-4.591-6.976-1.896-1.897-2.875-4.417-4.54-6.501-1.848-2.313-3.316-4.807-4.956-7.262-3.138-4.7-5.3-9.865-8.144-14.739-2.415-4.138-4.578-9.495-2.229-14.165 .892-1.772 1.524-4.379 1.452-6.393-.081-2.275-.776-4.465-.776-6.799 0-.927-1.233-6-2.133-6-.054,0-.583-.822-.583-.194 0,.32.254,1.066.39,1.357 .169.363.776,1.014.776,1.358 0,.483-.118,1.121.1,1.559 .376.755-.152,1.567.286,2.513 .45.973.777,1.328.777,2.529 0,2.337-.391,4.72-.391,6.967 0,1.26-.92,2.291-1.744,3.111-1.06,1.054-1.514.483-2.521-.194-.497-.334-1.954-1.551-2.133-1.551-.974,0 .749,2.275.869,2.513 1.211,2.406 2.253,4.887 3.59,7.184 1.436,2.466 2.108,5.316 3.563,7.744 3.045,5.08 5.894,10.397 8.543,15.689 2.601,5.195 5.927,9.91 8.518,15.094 1.29,2.581 2.648,5.74 2.648,8.651 0,2.617-.665,5.623-1.489,8.104-1.324,3.985-4.355-.377-5.492-2.146-1.532-2.384-2.904-4.99-4.318-7.462-1.701-2.973-2.932-6.188-4.618-9.144-.922-1.617-1.263-3.011-1.924-4.728-.56-1.456-1.92-3.035-1.938-4.65" fill="#e0bdd9"/>
 <path d="m1.775,50.105c.513,1.032 1.163,1.78 1.163,2.908 0,1.024.719,2.246 1.284,3.092 1.458,2.182 4.64,3.893 7.057,4.86 2.727,1.092 5.333,2.518 7.769,4.146 .958.64 1.218,2.194 2.306,2.735 .998.497.748,2.292 2.141,2.428 3.471.337-1.976-4.519-2.716-5.042-2.015-1.424-5.301-2.732-5.818-5.43-.406-2.118 1.387-4.502 2.329-6.206 .627-1.135.796-1.483 1.939-2.328 .924-.682 1.967-1.43 2.716-2.328 .812-.973 1.09-1.318-.201-.675-1.168.582-2.287.993-3.291,1.839-2.065,1.739-3.431,3.69-4.265,6.205-.782-.782-2.716-2.588-2.716-3.296 0-1.102-1.392-1.946-1.553-2.908-.362-2.16.832-4.66 1.939-6.206-1.599-.294-3.511,2.919-3.878,4.267-.574,2.106-.193,3.861.776,5.818-.767-.623-1.896-.701-2.427-1.754-.559-1.108-1.278-2.031-1.452-3.29-.203-1.471 1.162-3.984 0-5.042-1.052,1.307-.776,3.18-.776,4.841v1.953c0,.735.563.732.39,1.738-.685-.677-1.791-2.562-2.716-2.325" fill="#e0bdd9"/>
 <path d="m23.494,48.166c.067.743-.296,1.206-.386,1.939-.106.86.386,1.505.386,2.133 0,1.114.39,2.164.39,3.686 0,.93.512,4.265-.971,4.265-.166,0-.989.706-.968,1.165 .029.622 1.132,1.901 1.549,2.328 1.875,1.915 1.553-1.351 1.553-2.716 0-.923.236-1.486.386-2.328 .063-.351-.116-.825 0-1.163 .134-.391.699-.834.776-1.165 .185-.782-.205-1.306-.386-1.939-.208-.73-.39-1.228-.39-2.14 0-.94-.938-4.667-1.939-3.678v-.387" fill="#e0bdd9"/>
 <path d="m132.489,190.126c-2.229,2.224-3.824,3.503-7.124,2.951-2.863-.479-5.706-1.28-8.459-2.197-5.781-1.926-11.049-4.665-16.662-6.978-10.826-4.461-22.448-9.878-34.471-8.902-1.668.136-3.382.538-5.042.776l71.758,14.35" fill="#f5e0d9"/>
 <path d="m184.462,176.551c5.354,0 10.83,1.415 15.904,3.104-2.669,0-5.296-.285-7.901-.806-1.419-.284-2.909-.153-4.282-.495-.831-.208-3.693-1.03-3.721-1.803" fill="#f5e0d9"/>
 <path d="m132.489,190.126c-2.229,2.224-3.824,3.503-7.124,2.951-2.863-.479-5.706-1.28-8.459-2.197-5.781-1.926-11.049-4.665-16.662-6.978-10.826-4.461-22.448-9.878-34.471-8.902-1.668.136-3.382.538-5.042.776 5.594-1.4 11.444-1.4 17.162-.766 3.084.343 6.03,1.087 9.096,1.523 2.868.408 5.257,1.569 8.189,1.569 5.471,0 11.35,1.142 16.376-1.87 2.209-1.324 4.272-3.742 7.096-2.332 2.525,1.261 5.139,2.997 6.969,5.192 2.849,3.419 5.065,6.977 6.87,11.034" fill="#d59758"/>
 <path d="m163.128,112.552c.522,5.192.762,10.609.017,15.786-.695,4.83-1.275,9.68-1.956,14.469-.32,2.256-1.072,4.13-.324,6.389 .82,2.478 2.335,4.205 3.659,6.407 1.413,2.35 2.397,4.533 2.853,7.244 .411,2.449 1.57,4.528 1.57,7.111-.683-2.714-5.422-.49-6.708.475-2.361,1.771-4.234,3.283-5.769,5.839-.711,1.185-1.466,2.258-2.262,3.384-.398.564-.746,1.044-.911,1.708-.222.888-.836,1.202-1.089,1.964-.357,1.075-.326,2.264-.715,3.309-.322.868.126.593-.777,1.165-.608.386-1.05.386-1.738.386-2.094,0-3.779-2.073-5.629-2.714-2.03-.703-4.329-.353-6.393.675-1.988.989-3.278,2.796-4.662,4.173-.717.714-1.218,1.481-2.32,2.033-1.191.597-2.283.276-3.499.683-1.234.412-2.923-.582-4.278-.582-1.705,0-2.735-1.309-3.553-2.532-1.893-2.832-4.334-5.28-6.412-8.055-2.153-2.874-4.537-5.993-7.669-7.873-2.356-1.414-6.864-5.279-9.313-2.097 1.366-5.429 2.054-11.271 5.516-15.89 1.589-2.12 3.018-4.533 3.018-7.19 0-2.518-.533-5.045-.776-7.562-.538-5.558-1.893-11.079-2.326-16.68-.224-2.901-.069-5.971.25-8.855 .202-1.829 1.081-1.259 2.833-1.314l59.363-1.856"/>
 <path d="m110.379,72.602c-2.448.612-5.236.969-7.564,1.745-2.245.748-4.775.738-6.95,1.826-3.57,1.786-12.521,6.098-10.783,11.309 1.843,5.524 8.677,8.614 13.511,11.033 4.958,2.481 11.372,4.338 16.872,5.124 11.729,1.674 24.318,2.668 35.938-.391 3.168-.834 6.322-1.677 9.464-2.602 3.019-.887 5.593-2.17 8.416-3.582 2.715-1.357 5.17-3.402 7.553-5.255 1.566-1.218 4.379-5.301 2.884-7.297-1.774-2.369-3.863-4.327-6.322-5.97-1.992-1.332-4.936-3.224-7.371-3.224-2.138,0-4.854-1.074-6.938-1.593-1.341-.334-2.635-.75-3.99-1.022-1.17-.234-2.684,1.809-3.544,2.562-2.072,1.815-5.797,2.611-8.338,3.458-2.715.904-6.026.917-8.87,1.136-5.455.42-11.797-.596-16.786-2.863-2.775-1.261-4.774-2.52-7.182-4.394"/>
 <path d="m163.13 118.37c0.13-7.628 0.261-15.256 0.391-22.885h-60.453c-1.191 0-1.997-0.474-1.997 0.798v21.677c0 1.272 0.806 0.798 1.997 0.798h60.453l-0.391-0.388"/>
 <path d="m152.269,187.024c-1.364,1.984-4.915,1.29-6.399-.194-1.829-1.829-4.62-2.209-6.995-1.418-1.122.374-2.086,1.342-3.078,1.673-1.629.544-2.016,1.754-3.121,2.856-.99.985-1.434,1.778-2.701,2.412-1.203.602-2.625.78-3.898,1.204-.553.185-2.85-.312-3.479-.521-1.25-.418-2.563-.788-3.844-1.106-1.204-.299-2.418-.957-3.533-1.516-2.034-1.019.494,1.666.978,2.04 4.325,3.346 10.029,7.41 15.845,6.882 6.972-.634 12.887-3.529 19.451-5.718 1.474-.491 7.756-2.08 7.756-4.079 0-2.594-5.274-2.845-6.98-2.127-.002-.129-.002-.259-.002-.388" fill="#f5e0d9"/>
 <path d="m96.027,76.092c-2.581,1.291-5.061,2.338-7.369,4.073-2.3,1.729-3.991,4.083-6.193,5.847-4.562,3.653-7.756,9.074-12.826,12.12-2.326,1.397-4.19,3.52-6.579,4.955-2.342,1.406-4.711,2.901-6.983,4.424-2.263,1.517-4.553,3.404-6.981,4.655-.602.31-1.172.391-1.748.775-.869.58-.344.623-.191,1.551 .249,1.509.501,3.017.751,4.525 .41,2.468.021,5.344.021,7.851 0,2.922-.29,4.936-1.939,7.405 2.787-1.237 5.567-2.371 8.462-3.336 2.43-.811 4.923-1.028 7.254-2.194 1.046-.523 1.582-2.548 2.905-2.615 1.044-.054 2.415,1.596 3.304,2.04 2.999,1.497 3.254-3.999 6.598-1.772 4.52,3.009 9.502,6.716 15.235,6.716 2.528,0 5.618.179 8.102.674 1.095.219 2.545-.187 3.42.689 1.096,1.098 1.396,2.935 2.126.381 3.001-10.492 4.76-21.466 5.043-32.386 .128-4.943.462-11.172-3.299-14.933-1.87-1.87-3.663-3.949-5.314-6.016-1.065-1.336-2.433-5.014-3.799-5.429"/>
 <path d="m237.599,76.092c-1.526,5.19-4.654,10.47-7.371,15.127-1.515,2.596-2.68,5.292-4.563,7.65-1.604,2.009-3.27,4.502-4.586,6.698-2.863,4.777-7.441,8.707-9.271,14.161-.64,1.905.156,5.939 1.05,7.726 1.274,2.549 2.527,5.027 5.149,6.331 4.866,2.421 8.284-7.254 9.702-10.564 2.349-5.485 4.973-10.756 7.077-16.355 2.117-5.632 3.961-11.352 5.875-17.068 .374-1.119.755-2.549 1.203-3.62 .555-1.325 1.42-2.467 2.042-3.691 1.124-2.213 1.465-4.851 2.517-6.967 2.789-5.615 7.778-10.607 12.244-15.062 2.374-2.368 3.468-5.236 4.529-8.411 .266-.793 1.705-3.37.781-3.879-.979-.539-2.843,1.954-3.105,2.714 .506-1.781.779-2.971.779-4.854 0-1.219-.348-4.292-1.939-3.292-1.321.83-.779,3.552-.779,4.861 0,1.51-.977,3.061-.773,4.449 .33-2.584-1.349-4.662-2.428-6.796-.442-.875-1.541-1.781-2.431-2.227-.339-.17-.965-.833-1.347-.674-.515.214-.529,1.027-.196,1.357 .49.485.854,2.156 1.356,2.908 .506.758 1.166,2.092 1.166,2.91 0,.977-.383,1.641-.779,2.133-.728.901-1.274,1.912-1.939,2.714-.701-1.89-3.063-4.241-4.853-5.142-.813-.409-4.911-3.002-5.618-2.227-.529.58 1.042,2.074 1.268,2.529 .569,1.148 2.116,1.261 2.998,2.126 .79.775.747,1.909 1.359,2.521 .223.222 1.007,2.828.866,3.11-.486.978-.437,2.153-1.444,2.901-.676.501-2.548.669-3.308.288-1.182-.595-1.423-.742-2.318-1.645-.515-.519-.198-2.122.093-2.708 .347-.697.005-1.766.1-2.528 .105-.851.773-1.778.773-2.529 0-1.713-.558-5.098-2.711-2.901-1.361,1.389-1.939,4.853-1.939,6.775 0,2.353-.781,4.57-.781,7.001 0,.974.489,2.269.781,3.29 .281.986.431,2.418.872,3.303 1.07,2.151.81,5.39-.101,7.557" fill="#f5edd9"/>
 <path d="m243.804,50.492c.862,1.116 2.13,1.445 2.719,2.716 .505,1.09.467,2.485 1.06,3.677 .372.745-.889,3.027-1.646,3.404-1.412.702-2.54-.101-3.874-.101-1.104,0-1.742-1.57-1.742-2.52 0-1.102.385-1.983.385-3.111 0-2.316 1.367-4.143.387-6.392-.343.971-1.166,1.431-1.166,2.527 0,.625-.386.779-.387,1.352 0,.448.387.915.387,1.163 0,1.23-1.785,4.026-.58,5.235 .496.498.597,1.753 1.167,2.328 .65.656 1.747.319 1.747,1.551 0,1.942-.829,4.344-1.555,6.012 .421-.57.155-1.012.387-1.551 .297-.689.767-.957 1.168-1.551 .868-1.286 1.533-2.418 2.711-3.491 1.756-1.6 4.413-3 6.592-3.879 2.604-1.049 4.828-2.489 6.798-4.468 1.661-1.668 1.739-3.968 1.739-6.192 0-.61.235-1.904-.193-2.334-.893-.896-.586-.035-.586,1.158 0,1.978.154,4.712-1.362,6.22-.556.552-1.668,2.851-2.517,2.901-.814.049.029-1.996.291-2.515 .887-1.754.007-3.256-.678-4.854-.269-.626-1.295-3.113-1.553-1.939-.052.236.688,1.654.779,1.939 .208.644.773,1.458.773,2.133 0,1.521-.658,2.848-2.126,3.584-.601.302-3.038,3.037-3.306,2.814-.153-.127-.104-1.76-.286-2.125-.388-.776-.242-1.373-.874-2.14-1.083-1.315-2.964-2.26-4.456-3.003-.275-.137-1.548-.892-1.747-.875-1.015.083 0,.812 0,.969 0,.347 1.563,1.638 1.939,1.746l-.395-.388" fill="#bfbfbd"/>
 <path d="m217.431,133.498c2.716,1.349 4.069.274 5.818-1.939 1.757-2.224 2.937-4.781 4.061-7.406 2.341-5.468 5.003-10.708 7.1-16.284 2.148-5.716 4.048-11.49 5.988-17.285 1.685-5.032 4.163-9.434 5.74-14.492 .311-.997.895-2.306 1.545-3.102 .935-1.145 1.68-2.456 2.716-3.492 2.011-2.008 3.528-4.586 5.806-6.292 4.383-3.282 6.118-8.485 7.773-13.489-1.67,2.486-2.682,4.992-5.045,6.981-.934.785-2.043,1.313-3.1,1.939-1.308.776-2.291,1.898-3.371,2.983-.798.801-1.404,2.515-1.996,3.504-.725,1.211-1.563,2.34-2.265,3.567-1.448,2.531-2.375,5.306-3.683,7.917-1.445,2.884-2.952,5.744-4.225,8.708-1.162,2.707-2.737,5.257-3.665,8.035-1.002,2.998-2.274,5.772-3.113,8.836-.767,2.798-1.969,5.515-3.046,8.206-2.188,5.469-4.531,10.735-7.156,15.992-.957,1.917-3.043,6.084-5.292,3.82-1.688-1.698-1.753-5.488-1.753-7.699 0-2.964-.123-5.443 1.227-8.146 1.332-2.666 2.818-5.25 4.149-7.911 2.747-5.487 6.37-10.428 9.133-15.935l.231-.461c-1.28,1.906-2.396,4.009-3.424,6.065-.994,1.99-2.639,3.644-3.791,5.567-2.393,3.994-5.624,7.245-8.182,11.07-1.162,1.739-2.385,3.931-3.337,5.841-.518,1.038-1.641,1.685-2.522,2.419-.637.53-.903,2.197-1.106,3.012-.976,3.923 5.601,8.531 8.785,9.471" fill="#e0bdd9"/>
 <path d="m168.171,76.092c2.678,1.072 5.071,2.052 7.386,3.792 2.23,1.677 4.329,3.656 6.304,5.631 2.175,2.176 4.484,4.368 6.395,6.76 .844,1.056 2.095,1.745 2.967,2.835 .909,1.135 2.068,2.024 3.314,2.772 2.396,1.439 4.268,3.569 6.711,5.036 2.428,1.458 4.733,3.073 7.156,4.526 2.345,1.406 4.476,3.218 6.932,4.446 1.27.635 2.67.891 2.156,2.418-.467,1.391-.447,2.929-.447,4.375 0,5.382-1.643,10.78 1.549,15.588-2.662-.941-5.35-.82-7.999-1.881-2.594-1.038-4.937-1.311-7.306-2.893-1.229-.821-2.183-1.448-3.496-2.106-.824-.413-2.577-.101-3.506-.101-1.516,0-2.221-.193-3.496-1.044s-2.548.681-3.492,1.312c-2.299,1.535-4.279,3.157-6.888,4.2-2.506,1.002-5.475.574-8.161.574-2.76,0-5.54-.049-8.199.837-1.058.352-2.974.876-3.369,2.061-.851,2.544-1.519-.478-1.844-1.617-2.845-9.955-4.689-20.832-4.689-31.211 0-5.353-.405-11.168 3.652-15.224 1.807-1.807 3.368-3.665 4.961-5.659 1.202-1.506 2.96-3.615 3.409-5.427"/>
 <path d="m156.534,183.922c-1.094,1.645-3.188,3.108-5.041,3.879-2.336.971-3.886.126-5.818-1.165 0,4.16-2.24,5.505-6.049,6.458-1.786.447-7.675-.034-7.137-2.968-.653,3.98-8.244,3.429-10.864,2.328 6.328,2.533 13.543,4.974 20.443,3.591 3.083-.617 7.377-2.7 9.612-4.941 1.238-1.241 2.708-2.142 3.689-3.691 .478-.754 1.909-3.353 1.165-3.491" fill="#e6c7c7"/>
</svg>
